<svg xmlns="http://www.w3.org/2000/svg" width="25" height="24" viewBox="0 0 25 24">
  <path d="M13.080078,4 C13.033078,4.327 13,4.66 13,5 C13,5.34 13.033078,5.673 13.080078,6 L13.080078,6 L13.5,6 C13.4599609,8.59635417 14.3770345,10.2652181 16.2512207,11.0065918 C18.1254069,11.7479655 19.7083333,12.0791016 21,12 L21,22 L21.001953,22 L21.001953,11.919922 C21.707953,11.818922 22.378,11.612406 23,11.316406 L23,11.316406 L23,24 L3,24 L2.99975751,19 L14.9857575,19 L14.9857575,17 L2.99975751,17 L2.99975751,19 L0.985757511,19 L0.985757511,17 L2.99975751,17 L2.99975751,14.999 L14.9857575,15 L14.9857575,13 L2.99975751,12.999 L2.99975751,14.999 L0.985757511,15 L0.985757511,13 L2.99975751,12.999 L2.99975751,11 L10.9857575,11 L10.9857575,9 L2.99975751,9 L2.99975751,11 L0.985757511,11 L0.985757511,9 L2.99975751,9 L3,4 Z"/>
  <path d="M20.935547,0 C21.064547,0 21.1725,0.096609375 21.1875,0.22460938 L21.1875,0.22460938 L21.304688,1.2363281 C21.788688,1.4043281 22.226469,1.6602812 22.605469,1.9882812 L22.605469,1.9882812 L23.542969,1.5820312 C23.660969,1.5310313 23.797328,1.5784531 23.861328,1.6894531 L23.861328,1.6894531 L24.798828,3.3105469 C24.863828,3.4215469 24.833469,3.563625 24.730469,3.640625 L24.730469,3.640625 L23.923828,4.2402344 C23.971828,4.4872344 24,4.74 24,5 C24,5.26 23.971828,5.5127656 23.923828,5.7597656 L23.923828,5.7597656 L24.730469,6.359375 C24.833469,6.435375 24.862828,6.5774531 24.798828,6.6894531 L24.798828,6.6894531 L23.861328,8.3105469 C23.797328,8.4215469 23.660969,8.4689688 23.542969,8.4179688 L23.542969,8.4179688 L22.605469,8.0117188 C22.226469,8.3397188 21.788688,8.5956719 21.304688,8.7636719 L21.304688,8.7636719 L21.1875,9.7753906 C21.1725,9.9033906 21.064547,10 20.935547,10 L20.935547,10 L19.064453,10 C18.935453,10 18.8275,9.9033906 18.8125,9.7753906 L18.8125,9.7753906 L18.695312,8.7636719 C18.211312,8.5956719 17.773531,8.3407188 17.394531,8.0117188 L17.394531,8.0117188 L16.457031,8.4160156 C16.339031,8.4670156 16.202672,8.4225469 16.138672,8.3105469 L16.138672,8.3105469 L15.201172,6.6894531 C15.136172,6.5784531 15.166531,6.436375 15.269531,6.359375 L15.269531,6.359375 L16.076172,5.7597656 C16.028172,5.5127656 16,5.26 16,5 C16,4.74 16.028172,4.4872344 16.076172,4.2402344 L16.076172,4.2402344 L15.269531,3.640625 C15.166531,3.563625 15.137172,3.4215469 15.201172,3.3105469 L15.201172,3.3105469 L16.138672,1.6894531 C16.202672,1.5784531 16.339031,1.5310313 16.457031,1.5820312 L16.457031,1.5820312 L17.394531,1.9882812 C17.773531,1.6602812 18.211312,1.4043281 18.695312,1.2363281 L18.695312,1.2363281 L18.8125,0.22460938 C18.8275,0.096609375 18.935453,0 19.064453,0 L19.064453,0 Z M20,3 C18.896,3 18,3.895 18,5 C18,6.104 18.896,7 20,7 C21.104,7 22,6.104 22,5 C22,3.895 21.104,3 20,3 Z"/>
</svg>
