<svg xmlns="http://www.w3.org/2000/svg" width="25" height="25" viewBox="0 0 25 25">
  <g fill="#333">
    <path d="M6.54545455,0 C4.70945455,0 3.27272727,1.43781818 3.27272727,3.27272727 C3.27272727,5.10763636 4.70945455,6.54545455 6.54545455,6.54545455 C8.38145455,6.54545455 9.81818182,5.10763636 9.81818182,3.27272727 C9.81818182,1.43781818 8.38145455,0 6.54545455,0 Z M15.2727273,2.18181818 C13.4367273,2.18181818 12,3.61963636 12,5.45454545 C12,7.28945455 13.4367273,8.72727273 15.2727273,8.72727273 C17.1087273,8.72727273 18.5454545,7.28945455 18.5454545,5.45454545 C18.5454545,3.61963636 17.1087273,2.18181818 15.2727273,2.18181818 Z M6.54545455,8.72727273 C2.69236364,8.72727273 0,10.170324 0,12.2365058 L0,15.2727273 L7.63636364,15.2727273 L7.63636364,12.2365058 C7.63636364,11.0637785 10.2435682,10.0290513 11.0028415,9.168324 C10.04175,8.88577855 7.812,8.72727273 6.54545455,8.72727273 Z M15.2727273,10.9090909 C11.4196364,10.9090909 8.72727273,12.3521422 8.72727273,14.418324 L8.72727273,17.4545455 L13.0909091,17.4545455 L13.0909091,16.0014207 L13.0909091,15.2727273 C13.0909091,14.0672727 16.2490909,13.0909091 17.4545455,13.0909091 L21.3963065,13.0909091 C21.1519429,12.7210909 20.7784429,12.3372949 20.1860793,11.9914778 C19.0078975,11.304204 17.2167273,10.9090909 15.2727273,10.9090909 Z"/>
    <path d="M3.87677545,0 C3.75950273,0 3.66136364,0.0878267273 3.64772727,0.204190364 L3.54119273,1.12393464 C3.10119182,1.27663791 2.70354182,1.50891236 2.35866455,1.80752836 L1.50639182,1.43998582 C1.39911909,1.39362218 1.27515636,1.43404827 1.21697455,1.53586645 L0.364701818,3.00958809 C0.305610909,3.11049718 0.33321,3.23965909 0.426846364,3.30965909 L1.16193182,3.85475855 C1.11882,4.07864582 1.09090909,4.30899209 1.09090909,4.54545455 C1.09090909,4.781917 1.11882,5.01226327 1.16193182,5.23615055 L0.426846364,5.78125 C0.33321,5.85034091 0.30652,5.97950282 0.364701818,6.081321 L1.21697455,7.55504273 C1.27515636,7.65686091 1.39911909,7.69906273 1.50639182,7.65269909 L2.35866455,7.28338091 C2.70354182,7.58199636 3.10119182,7.81427091 3.54119273,7.96697455 L3.64772727,8.88671909 C3.66136364,9.00308273 3.75950273,9.09090909 3.87677545,9.09090909 L5.57777,9.09090909 C5.69504273,9.09090909 5.79318182,9.00308273 5.80681818,8.88671909 L5.91335273,7.96697455 C6.35379364,7.81411818 6.75254727,7.58242364 7.09765636,7.28338091 L7.94815364,7.64914727 C8.05542636,7.69551182 8.17938909,7.65508545 8.23757091,7.55326727 L9.08984364,6.07954545 C9.14893455,5.97863636 9.12133545,5.84947445 9.02769909,5.77947445 L8.29438909,5.234375 C8.33726545,5.01107436 8.36363636,4.78125418 8.36363636,4.54545455 C8.36363636,4.30899209 8.33572545,4.07864582 8.29261364,3.85475855 L9.02769909,3.30965909 C9.12133545,3.24056818 9.14802545,3.11140627 9.08984364,3.00958809 L8.23757091,1.53586645 C8.17938909,1.43404827 8.05542636,1.39184655 7.94815364,1.43821018 L7.09588091,1.80752836 C6.75100364,1.50891236 6.35335364,1.27663791 5.91335273,1.12393464 L5.80681818,0.204190364 C5.79318182,0.0878267273 5.69504273,0 5.57777,0 L3.87677545,0 Z M4.72727273,2.95454545 C5.60545455,2.95454545 6.31818182,3.66727273 6.31818182,4.54545455 C6.31818182,5.42454545 5.60545455,6.13636364 4.72727273,6.13636364 C3.84909091,6.13636364 3.13636364,5.42454545 3.13636364,4.54545455 C3.13636364,3.66727273 3.84909091,2.95454545 4.72727273,2.95454545 Z" transform="translate(14.182 14.182)"/>
  </g>
</svg>
