<svg xmlns="http://www.w3.org/2000/svg" width="26" height="26" viewBox="0 0 26 26">
  <path fill="#333" d="M13,0 C5.902,0 0.155898334,5.824 0.155898334,13 C0.155898334,13.234 0.155898334,13.442 0.18179694,13.65 L0.18179694,13.7541017 C0.18179694,13.9361017 0.20810166,14.1178983 0.23410166,14.3258983 L0.23410166,14.3517969 C0.54610166,17.3157969 1.81989834,20.0462031 3.92589834,22.1782031 L3.97820306,22.23 C6.29220306,24.57 9.49,26 13,26 C16.51,26 19.7077969,24.57 22.0217969,22.23 C22.0477969,22.204 22.0741017,22.2042031 22.0741017,22.1782031 C24.1801014,20.0462031 25.4538986,17.2897969 25.7658986,14.3517969 L25.7658986,14.3258983 C25.7918986,14.1438983 25.7922028,13.9621017 25.8182028,13.7541017 L25.8182028,13.65 C25.8182028,13.442 25.8441014,13.208 25.8441014,13 C25.8441014,5.824 20.098,0 13,0 Z M13,1.56 C19.214,1.56 24.2841014,6.682 24.2841014,13 L22.8282028,13 C22.8282028,7.514 18.434,3.06820306 13,3.06820306 C7.566,3.06820306 3.17179694,7.514 3.17179694,13 C3.17179694,15.392 4.00379694,17.6542031 5.51179694,19.4482031 L4.47179694,20.4882031 C3.22379694,19.0322031 2.34010166,17.2641017 1.92410166,15.3141017 L1.92410166,15.2882031 C1.89810166,15.1322031 1.87189834,14.9761017 1.84589834,14.7941017 C1.84589834,14.7681017 1.846,14.716 1.82,14.69 C1.82,14.56 1.82010166,14.4041017 1.79410166,14.2741017 C1.79410166,14.2221017 1.79420306,14.1701017 1.76820306,14.1441017 C1.74220306,14.0141017 1.74179694,13.8582031 1.74179694,13.7282031 L1.74179694,13.5717969 C1.74179694,13.3897969 1.71589834,13.208 1.71589834,13 C1.71589834,6.682 6.786,1.56 13,1.56 Z M13,4.62820306 C17.576,4.62820306 21.2682031,8.372 21.2682031,13 C21.2682031,15.236 20.41,17.3422031 18.85,18.9282031 C18.538,19.2402031 18.538,19.708 18.85,20.02 L20.41,21.6058983 C18.408,23.3738986 15.834,24.44 13,24.44 C10.166,24.44 7.592,23.3738986 5.59,21.6058983 L7.15,20.02 C7.462,19.708 7.462,19.2402031 7.15,18.9282031 C5.59,17.3422031 4.73179694,15.236 4.73179694,13 C4.73179694,8.372 8.424,4.62820306 13,4.62820306 Z M17.8780469,7.26375 C17.6797969,7.267 17.4847969,7.34520306 17.3417969,7.48820306 L14.3258983,10.5558983 C13.9358983,10.3478983 13.494,10.2182031 13,10.2182031 C11.466,10.2182031 10.2441017,11.466 10.2441017,13 C10.2441017,14.534 11.466,15.7817969 13,15.7817969 C14.534,15.7817969 15.7558983,14.534 15.7558983,13 C15.7558983,12.506 15.6262031,12.0642031 15.4182031,11.6482031 L18.4341017,8.58 C18.7461017,8.294 18.7461017,7.80020306 18.4341017,7.48820306 C18.2781017,7.33220306 18.0762969,7.2605 17.8780469,7.26375 Z M13,11.7782031 C13.65,11.7782031 14.1958983,12.324 14.1958983,13 C14.1958983,13.676 13.676,14.2217969 13,14.2217969 C12.324,14.2217969 11.8041017,13.676 11.8041017,13 C11.8041017,12.324 12.35,11.7782031 13,11.7782031 Z M10.6341017,20.7482031 C10.1921017,20.7482031 9.85410166,21.0862031 9.85410166,21.5282031 C9.85410166,21.9702031 10.1921017,22.3082031 10.6341017,22.3082031 L15.3917969,22.3082031 C15.8337969,22.3082031 16.1717969,21.9702031 16.1717969,21.5282031 C16.1717969,21.0862031 15.8078983,20.7482031 15.3658983,20.7482031 L10.6341017,20.7482031 Z"/>
</svg>
