<svg xmlns="http://www.w3.org/2000/svg" width="28" height="26" viewBox="0 0 28 26">
  <g fill="#333" fill-rule="evenodd">
    <path fill-rule="nonzero" d="M0,0 L0,21 L13,21 L13,0 L0,0 Z M2,2 L11,2 L11,19 L2,19 L2,2 Z M3,4 L3,6 L10,6 L10,4 L3,4 Z M3,8 L3,10 L10,10 L10,8 L3,8 Z M5,15 L5,17 L8,17 L8,15 L5,15 Z"/>
    <path fill-rule="nonzero" d="M0,0 L0,21 L13,21 L13,0 L0,0 Z M2,2 L11,2 L11,19 L2,19 L2,2 Z M3,4 L3,6 L10,6 L10,4 L3,4 Z M3,8 L3,10 L10,10 L10,8 L3,8 Z M5,15 L5,17 L8,17 L8,15 L5,15 Z" transform="translate(15)"/>
    <g transform="translate(2 19)">
      <rect width="25" height="2" y="5"/>
      <rect width="2" height="6" x="11"/>
    </g>
  </g>
</svg>
