<?xml version="1.0" encoding="UTF-8" standalone="no"?>
<svg
   xmlns:dc="http://purl.org/dc/elements/1.1/"
   xmlns:cc="http://creativecommons.org/ns#"
   xmlns:rdf="http://www.w3.org/1999/02/22-rdf-syntax-ns#"
   xmlns:svg="http://www.w3.org/2000/svg"
   xmlns="http://www.w3.org/2000/svg"
   xmlns:sodipodi="http://sodipodi.sourceforge.net/DTD/sodipodi-0.dtd"
   xmlns:inkscape="http://www.inkscape.org/namespaces/inkscape"
   width="34"
   height="30"
   viewBox="0 0 34 30"
   version="1.1"
   id="svg24"
   sodipodi:docname="External-Servers-vec31.svg"
   inkscape:version="0.92.3 (2405546, 2018-03-11)">
  <metadata
     id="metadata30">
    <rdf:RDF>
      <cc:Work
         rdf:about="">
        <dc:format>image/svg+xml</dc:format>
        <dc:type
           rdf:resource="http://purl.org/dc/dcmitype/StillImage" />
      </cc:Work>
    </rdf:RDF>
  </metadata>
  <defs
     id="defs28" />
  <sodipodi:namedview
     pagecolor="#ffffff"
     bordercolor="#666666"
     borderopacity="1"
     objecttolerance="10"
     gridtolerance="10"
     guidetolerance="10"
     inkscape:pageopacity="0"
     inkscape:pageshadow="2"
     inkscape:window-width="1745"
     inkscape:window-height="873"
     id="namedview26"
     showgrid="false"
     inkscape:zoom="24.366667"
     inkscape:cx="20.077976"
     inkscape:cy="15"
     inkscape:window-x="47"
     inkscape:window-y="24"
     inkscape:window-maximized="1"
     inkscape:current-layer="svg24" />
  <g
     id="g22"
     transform="matrix(0.71392935,0,0,0.77733999,1.6415868,6.6073872)"
     style="fill:none;fill-rule:evenodd">
    <path
       d="M 0,0 V 21 H 16 V 0 Z M 2,2 H 14 V 19 H 2 Z m 2,2 v 2 h 8 V 4 Z m 0,4 v 2 h 8 V 8 Z m 4,8 c -0.550781,0 -1,0.449219 -1,1 0,0.550781 0.449219,1 1,1 0.550781,0 1,-0.449219 1,-1 0,-0.550781 -0.449219,-1 -1,-1 z"
       id="path10"
       inkscape:connector-curvature="0"
       style="fill:#333333;fill-rule:nonzero" />
    <path
       d="M 0,0 V 21 H 16 V 0 Z M 2,2 H 14 V 19 H 2 Z m 2,2 v 2 h 8 V 4 Z m 0,4 v 2 h 8 V 8 Z m 4,8 c -0.550781,0 -1,0.449219 -1,1 0,0.550781 0.449219,1 1,1 0.550781,0 1,-0.449219 1,-1 0,-0.550781 -0.449219,-1 -1,-1 z"
       transform="translate(18)"
       id="path12"
       inkscape:connector-curvature="0"
       style="fill:#333333;fill-rule:nonzero" />
    <g
       transform="translate(6,21)"
       id="g20">
      <line
         x2="23"
         y1="4.5"
         y2="4.5"
         id="line14"
         x1="0"
         style="stroke:#333333;stroke-width:2;stroke-linecap:square" />
      <line
         x1="11"
         x2="11"
         y1="2.5"
         y2="0.5"
         id="line16"
         style="stroke:#333333;stroke-width:2;stroke-linecap:square" />
      <circle
         cx="11"
         cy="5"
         r="3"
         id="circle18"
         style="fill:#ffffff;stroke:#000000" />
    </g>
  </g>
</svg>
