<svg xmlns="http://www.w3.org/2000/svg" width="26" height="26" viewBox="0 0 26 26">
  <path fill="#333" d="M18.4166667,0 L10.8333333,13 L26,13 L18.4166667,0 Z M2.03125,2.16666667 L2.03125,5.41666667 L0,5.41666667 L0,7.58333333 L2.03125,7.58333333 L2.03125,9.75 L0,9.75 L0,11.9166667 L2.03125,11.9166667 L2.03125,14.0833333 L0,14.0833333 L0,16.25 L2.03125,16.25 L2.03125,18.4166667 L0,18.4166667 L0,20.5833333 L2.03125,20.5833333 L2.03125,23.8333333 L13.7574873,23.8333333 C13.2884039,22.8496667 13.0190428,21.7541632 13.0190428,20.5939132 C13.0190428,18.5637465 13.8055093,16.661125 15.2322593,15.234375 C15.2560926,15.2105417 15.2845973,15.1905 15.3084306,15.1666667 L8.66666667,15.1666667 L8.64127604,12.4583333 L14.6440428,2.16666667 L2.03125,2.16666667 Z M17.3333333,4.33333333 L19.5,4.33333333 L19.5,8.66666667 L17.3333333,8.66666667 L17.3333333,4.33333333 Z M17.3333333,9.75 L19.5,9.75 L19.5,11.9166667 L17.3333333,11.9166667 L17.3333333,9.75 Z M20.5917963,15.1878253 C19.0967974,15.1878253 17.7434931,15.7869433 16.7641597,16.7662755 C15.7848264,17.7456088 15.1857095,19.0989132 15.1857095,20.5939132 C15.1857095,23.5839132 17.6039132,26 20.5939132,26 C23.5839132,26 26,23.5849965 26,20.5939132 C25.9989167,17.6071632 23.5817974,15.1889086 20.5917963,15.1878253 Z M19.0683588,17.5279953 L20.6002604,19.0598958 L22.132162,17.5279953 L23.6640625,19.0598958 L22.132162,20.5917963 L23.6640625,22.1236979 L22.132162,23.6555995 L20.6002604,22.1236979 L19.0683588,23.6555995 L17.5364583,22.1236979 L19.0683588,20.5917963 L17.5364583,19.0598958 L19.0683588,17.5279953 Z"/>
</svg>
