<?xml version="1.0" encoding="UTF-8" standalone="no"?>
<svg
   xmlns:dc="http://purl.org/dc/elements/1.1/"
   xmlns:cc="http://creativecommons.org/ns#"
   xmlns:rdf="http://www.w3.org/1999/02/22-rdf-syntax-ns#"
   xmlns:svg="http://www.w3.org/2000/svg"
   xmlns="http://www.w3.org/2000/svg"
   xmlns:sodipodi="http://sodipodi.sourceforge.net/DTD/sodipodi-0.dtd"
   xmlns:inkscape="http://www.inkscape.org/namespaces/inkscape"
   width="27"
   height="26"
   viewBox="0 0 27 26"
   version="1.1"
   id="svg3801"
   sodipodi:docname="Messaging-vec28.svg"
   inkscape:version="0.92.3 (2405546, 2018-03-11)">
  <metadata
     id="metadata3807">
    <rdf:RDF>
      <cc:Work
         rdf:about="">
        <dc:format>image/svg+xml</dc:format>
        <dc:type
           rdf:resource="http://purl.org/dc/dcmitype/StillImage" />
      </cc:Work>
    </rdf:RDF>
  </metadata>
  <defs
     id="defs3805" />
  <sodipodi:namedview
     pagecolor="#ffffff"
     bordercolor="#666666"
     borderopacity="1"
     objecttolerance="10"
     gridtolerance="10"
     guidetolerance="10"
     inkscape:pageopacity="0"
     inkscape:pageshadow="2"
     inkscape:window-width="1745"
     inkscape:window-height="873"
     id="namedview3803"
     showgrid="false"
     inkscape:zoom="28.115385"
     inkscape:cx="14.833789"
     inkscape:cy="13"
     inkscape:window-x="47"
     inkscape:window-y="24"
     inkscape:window-maximized="1"
     inkscape:current-layer="svg3801" />
  <path
     d="M 9.4392212,2.7387141 C 4.2846332,2.7387141 0,6.3730115 0,10.943415 c 0,2.194447 1.0107446,4.186988 2.6140675,5.65743 L 2.5636353,16.8415 c -0.3614306,1.027882 -1.2502977,1.609125 -1.77773372,1.794715 -0.30679597,0.106051 -0.56105802,0.267168 -0.70184796,0.548611 -0.1386882,0.279405 -0.05463459,0.6669 0.15549946,0.868806 0.49171338,0.479269 1.13052082,0.432363 1.59701872,0.436441 1.7546188,0.0204 3.8223378,-0.872884 5.0747367,-1.480639 l 0.01471,-0.0061 0.4286734,-0.240655 -0.1639042,-0.04895 0.018912,0.0041 c 0.697645,0.157037 1.4289115,0.205984 2.1475696,0.205984 4.5325917,0 8.4326797,-2.628849 9.2942297,-6.412026 v -0.002 c 0.115573,-0.503744 0.176512,-1.027882 0.176512,-1.566297 0,-4.5663249 -4.234201,-8.2047009 -9.3887892,-8.2047009 z m 0,1.0441976 c 4.6355568,0 8.3129028,3.2223285 8.3129028,7.1605033 0,0.462955 -0.05253,0.911634 -0.151297,1.341957 -0.735469,3.230486 -4.137539,5.594207 -8.2435583,5.594207 -0.6640235,0 -1.31754,-0.04895 -1.9017129,-0.179471 l -0.2353501,-0.0673 -0.7964082,0.4446 c -1.1893584,0.577164 -3.2402666,1.384785 -4.5746179,1.36847 -0.1828168,0 -0.1996275,-0.03467 -0.3278091,-0.04895 0.7648879,-0.363022 1.6474508,-1.021764 2.0677189,-2.233196 l 0.00841,-0.02651 0.1933233,-0.881042 -0.2374513,-0.203945 c -1.540287,-1.307288 -2.4774851,-3.120357 -2.4774851,-5.10882 0,-3.9340956 3.7277782,-7.1605033 8.3633349,-7.1605033 z M 4.8414883,7.4376033 V 8.4818009 H 13.986522 V 7.4376033 Z m 0,2.6104937 v 1.044198 h 9.1450337 v -1.044198 z m 14.9468337,2.190368 c -0.02732,0.167235 -0.04623,0.33447 -0.08405,0.499665 -0.04203,0.179471 -0.09666,0.354864 -0.151297,0.532296 2.477481,0.927949 4.108121,2.798123 4.108121,4.876321 0,1.490837 -0.798509,2.88378 -2.252637,3.925938 l -0.292086,0.210064 0.09036,0.342627 c 0.289986,1.078868 1.307034,1.635637 2.010983,2.006817 -1.115811,0.14684 -3.540758,-0.09789 -4.759536,-1.496955 l -0.20383,-0.236576 -0.310998,0.06118 c -0.489612,0.09381 -1.056974,0.140722 -1.737809,0.140722 -3.345334,0 -6.062367,-1.258339 -7.1193411,-3.14075 -0.4370788,-0.0082 -0.8447385,-0.03671 -1.2271828,-0.08158 0.9981369,2.565626 4.2068839,4.266526 8.3465239,4.266526 0.619896,0 1.15994,-0.03671 1.64535,-0.108091 1.187257,1.166565 3.122591,1.672348 4.690192,1.672348 0.102965,0 0.205931,-0.002 0.304694,-0.0061 0.90988,-0.04079 1.502458,-0.244733 1.765126,-0.605716 0.115574,-0.163155 0.155499,-0.354864 0.10927,-0.542493 -0.09036,-0.373219 -0.443383,-0.55677 -0.932996,-0.8117 -0.481206,-0.252892 -1.11371,-0.585322 -1.409999,-1.080908 1.506661,-1.207354 2.359805,-2.830755 2.359805,-4.515339 0,-2.561547 -1.973158,-4.847769 -4.948657,-5.908282 z M 4.8414883,12.658591 v 1.044198 h 6.4553177 v -1.044198 z m 13.4569837,3.132593 c -0.268971,0.367101 -0.56526,0.717886 -0.890968,1.044198 h 2.496392 v -1.044198 z m -2.918761,2.610494 c -0.741773,0.432363 -1.554992,0.785188 -2.418643,1.044198 h 6.942828 v -1.044198 z"
     id="path3799"
     inkscape:connector-curvature="0"
     style="fill:#333333;stroke-width:0.9069286" />
</svg>
