<svg xmlns="http://www.w3.org/2000/svg" width="27" height="25" viewBox="0 0 27 25">
  <g fill="#333">
    <path d="M6.5,0.5915 L0,3.4775 L0,10.8225 L6.2465,13.598 L6.5,13.7085 L6.7535,13.598 L13,10.8225 L13,3.4775 L6.5,0.5915 Z M5.85,11.999 L1.3,9.9775 L1.3,4.901 L5.85,6.9225 L5.85,11.999 Z M6.5,5.7915 L2.249,3.9 L6.5,2.0085 L10.751,3.9 L6.5,5.7915 Z"/>
    <path d="M6.5,0.5915 L0,3.4775 L0,10.8225 L6.2465,13.598 L6.5,13.7085 L6.7535,13.598 L13,10.8225 L13,3.4775 L6.5,0.5915 Z M5.85,11.999 L1.3,9.9775 L1.3,4.901 L5.85,6.9225 L5.85,11.999 Z M6.5,5.7915 L2.249,3.9 L6.5,2.0085 L10.751,3.9 L6.5,5.7915 Z" transform="translate(14)"/>
    <path d="M6.5,0.5915 L0,3.4775 L0,10.8225 L6.2465,13.598 L6.5,13.7085 L6.7535,13.598 L13,10.8225 L13,3.4775 L6.5,0.5915 Z M5.85,11.999 L1.3,9.9775 L1.3,4.901 L5.85,6.9225 L5.85,11.999 Z M6.5,5.7915 L2.249,3.9 L6.5,2.0085 L10.751,3.9 L6.5,5.7915 Z" transform="translate(7 11)"/>
  </g>
</svg>
