<?xml version="1.0" encoding="UTF-8" standalone="no"?>
<svg
   xmlns:dc="http://purl.org/dc/elements/1.1/"
   xmlns:cc="http://creativecommons.org/ns#"
   xmlns:rdf="http://www.w3.org/1999/02/22-rdf-syntax-ns#"
   xmlns:svg="http://www.w3.org/2000/svg"
   xmlns="http://www.w3.org/2000/svg"
   xmlns:sodipodi="http://sodipodi.sourceforge.net/DTD/sodipodi-0.dtd"
   xmlns:inkscape="http://www.inkscape.org/namespaces/inkscape"
   width="27"
   height="27"
   viewBox="0 0 27 27"
   version="1.1"
   id="svg3858"
   sodipodi:docname="Packages-vec27.svg"
   inkscape:version="0.92.3 (2405546, 2018-03-11)">
  <metadata
     id="metadata3864">
    <rdf:RDF>
      <cc:Work
         rdf:about="">
        <dc:format>image/svg+xml</dc:format>
        <dc:type
           rdf:resource="http://purl.org/dc/dcmitype/StillImage" />
      </cc:Work>
    </rdf:RDF>
  </metadata>
  <defs
     id="defs3862" />
  <sodipodi:namedview
     pagecolor="#ffffff"
     bordercolor="#666666"
     borderopacity="1"
     objecttolerance="10"
     gridtolerance="10"
     guidetolerance="10"
     inkscape:pageopacity="0"
     inkscape:pageshadow="2"
     inkscape:window-width="1745"
     inkscape:window-height="873"
     id="namedview3860"
     showgrid="false"
     inkscape:zoom="27.074074"
     inkscape:cx="13.5"
     inkscape:cy="13.5"
     inkscape:window-x="47"
     inkscape:window-y="24"
     inkscape:window-maximized="1"
     inkscape:current-layer="svg3858" />
  <path
     d="M 12.209115,2.0045611 0,6.7542561 V 19.762975 l 14.724561,7.139669 10.798011,-7.139669 V 6.7542561 Z M 12.239791,4.0920067 23.252535,7.9946224 20.154242,9.6282755 8.9881172,5.3626257 Z M 7.6076897,5.8769239 18.988548,10.233332 15.307408,12.139261 3.3743785,7.5408299 Z M 2.0246271,8.055128 14.724561,12.956087 V 24.573176 L 14.57118,24.663934 1.9632748,18.552862 V 8.0853809 Z m 19.5713949,2.964778 c 0.168719,-0.01135 0.268417,0.105885 0.276086,0.332781 0.0115,0.302528 -0.176388,0.680689 -0.429467,0.847079 l -1.963274,1.27062 c -0.306762,0.196643 -0.571344,0.07185 -0.582847,-0.272276 -0.0115,-0.344126 0.210898,-0.786574 0.521494,-0.968091 l 1.993951,-1.149607 c 0.06519,-0.03782 0.126539,-0.05673 0.184057,-0.06051 z"
     id="path3856"
     inkscape:connector-curvature="0"
     style="fill:#333333;stroke-width:0.93873531" />
</svg>
