<svg xmlns="http://www.w3.org/2000/svg" width="23" height="26" viewBox="0 0 23 26">
  <path fill="#333" d="M11.44,0 C10.164375,0 9.08781276,0.71093776 7.49125,1.53156276 C5.89265612,2.35421888 3.75375,3.34546888 0.40828112,4.07875 L0,4.17015612 L0,4.58656276 C0,12.5551561 2.78484388,17.8729689 5.581875,21.17375 C8.38093776,24.4765628 11.220625,25.7928128 11.220625,25.7928128 L11.4501561,25.8984378 L11.675625,25.7846878 C11.675625,25.7846878 22.88,20.0098439 22.88,4.58656276 L22.88,4.17015612 L22.4717189,4.07875 C19.12625,3.34546888 16.9873439,2.35421888 15.38875,1.53156276 C13.7921878,0.71093776 12.715625,0 11.44,0 Z M11.44,1.04 C12.2951561,1.04 13.2823439,1.616875 14.9154689,2.45781276 C16.4632811,3.25406276 18.6489061,4.21890612 21.8075,4.964375 C21.6226561,19.0734378 12.1042189,24.3567189 11.431875,24.7101561 C11.106875,24.55375 8.85625,23.4284378 6.378125,20.5014061 C3.761875,17.4159378 1.16593776,12.4596878 1.0725,4.964375 C4.23109388,4.21890612 6.41671888,3.25406276 7.96453112,2.45781276 C9.59765612,1.616875 10.5848439,1.04 11.44,1.04 Z M11.44,8.32 C10.2903128,8.32 9.36,9.25031276 9.36,10.4 C9.36,11.1007811 9.71546888,11.7548439 10.3025,12.13875 L9.36,16.38 L13.52,16.38 L12.5775,12.13875 C13.1645311,11.756875 13.52,11.1007811 13.52,10.4 C13.52,9.25031276 12.5896878,8.32 11.44,8.32 Z"/>
</svg>
