<?xml version="1.0" encoding="UTF-8"?>
<svg width="24px" height="23px" viewBox="0 0 24 23" version="1.1" xmlns="http://www.w3.org/2000/svg" xmlns:xlink="http://www.w3.org/1999/xlink">
    <title>CDS-system-directory-svc-icon</title>
    <g id="Page-1" stroke="none" stroke-width="1" fill="none" fill-rule="evenodd">
        <g id="CDS-Directory-Svcs-Icons-#333333" transform="translate(-2.000000, -243.000000)" fill="#333333" fill-rule="nonzero">
            <g id="CDS-system-directory-svc-icon" transform="translate(2.250000, 243.000000)">
                <path d="M0,3 L0,19 L9,19 L9,21 L7,21 L7,23 L15,23 L15,21 L13,21 L13,19 L22,19 L22,3 L0,3 Z M22,3 L22,11 L20,11 L20,17 L2,17 L2,5 L12,5 L12,3 L22,3 Z M4,7 L10,7 L10,9 L4,9 L4,7 Z M4,10 L10,10 L10,12 L4,12 L4,10 Z M4,13 L10,13 L10,15 L4,15 L4,13 Z M12,13 L18,13 L18,15 L12,15 L12,13 Z M12,10 L16,10 L16,12 L12,12 L12,10 Z" id="Shape"></path>
                <path d="M17.064453,0 C16.935453,0 16.8275,0.096609375 16.8125,0.22460938 L16.695312,1.2363281 C16.211312,1.4043281 15.773531,1.6602812 15.394531,1.9882812 L14.457031,1.5820312 C14.339031,1.5310313 14.202672,1.5784531 14.138672,1.6894531 L13.201172,3.3105469 C13.137172,3.4215469 13.166531,3.563625 13.269531,3.640625 L14.076172,4.2402344 C14.028172,4.4872344 14,4.74 14,5 C14,5.26 14.028172,5.5127656 14.076172,5.7597656 L13.269531,6.359375 C13.166531,6.436375 13.136172,6.5784531 13.201172,6.6894531 L14.138672,8.3105469 C14.202672,8.4225469 14.339031,8.4670156 14.457031,8.4160156 L15.394531,8.0117188 C15.773531,8.3407188 16.211312,8.5956719 16.695312,8.7636719 L16.8125,9.7753906 C16.8275,9.9033906 16.935453,10 17.064453,10 L18.935547,10 C19.064547,10 19.1725,9.9033906 19.1875,9.7753906 L19.304688,8.7636719 C19.788688,8.5956719 20.226469,8.3397188 20.605469,8.0117188 L21.542969,8.4179688 C21.660969,8.4689688 21.797328,8.4215469 21.861328,8.3105469 L22.798828,6.6894531 C22.862828,6.5774531 22.833469,6.435375 22.730469,6.359375 L21.923828,5.7597656 C21.971828,5.5127656 22,5.26 22,5 C22,4.74 21.971828,4.4872344 21.923828,4.2402344 L22.730469,3.640625 C22.833469,3.563625 22.863828,3.4215469 22.798828,3.3105469 L21.861328,1.6894531 C21.797328,1.5784531 21.660969,1.5310313 21.542969,1.5820312 L20.605469,1.9882812 C20.226469,1.6602812 19.788688,1.4043281 19.304688,1.2363281 L19.1875,0.22460938 C19.1725,0.096609375 19.064547,0 18.935547,0 L17.064453,0 Z M18,3 C19.104,3 20,3.895 20,5 C20,6.104 19.104,7 18,7 C16.896,7 16,6.104 16,5 C16,3.895 16.896,3 18,3 Z" id="Shape"></path>
            </g>
        </g>
    </g>
</svg>