<svg xmlns="http://www.w3.org/2000/svg" width="20" height="20" viewBox="0 0 20 20">
  <polygon points="8 0 8 3 9.75 3 9.5 3.156 4.5 6.156 4 6.438 4 9 3 9 3 12 4.156 12 3.875 12.219 1.375 14.219 1 14.531 1 17 0 17 0 20 4 20 4 17 3 17 3 15.469 4.5 14.281 6 15.469 6 17 5 17 5 20 9 20 9 17 8 17 8 14.531 7.625 14.219 5.125 12.219 4.844 12 7 12 7 9 6 9 6 7.531 10 5.156 14 7.531 14 9 13 9 13 12 15.156 12 14.875 12.219 12.375 14.219 12 14.531 12 17 11 17 11 20 15 20 15 17 14 17 14 15.469 15.5 14.281 17 15.469 17 17 16 17 16 20 20 20 20 17 19 17 19 14.531 18.625 14.219 16.125 12.219 15.844 12 17 12 17 9 16 9 16 6.438 15.5 6.156 10.5 3.156 10.25 3 12 3 12 0"/>
</svg>
