<?xml version="1.0" encoding="UTF-8"?>
<svg width="198.46mm" height="128.85mm" version="1.1" viewBox="0 0 198.46 128.85" xmlns="http://www.w3.org/2000/svg" xmlns:cc="http://creativecommons.org/ns#" xmlns:dc="http://purl.org/dc/elements/1.1/" xmlns:rdf="http://www.w3.org/1999/02/22-rdf-syntax-ns#">
 <metadata>
  <rdf:RDF>
   <cc:Work rdf:about="">
    <dc:format>image/svg+xml</dc:format>
    <dc:type rdf:resource="http://purl.org/dc/dcmitype/StillImage"/>
    <dc:title/>
   </cc:Work>
  </rdf:RDF>
 </metadata>
 <g transform="translate(18.712 -12.813)">
  <path d="m-17.187 141.2c-1.6369-1.015-1.5229 3.7768-1.5229-63.962 0-67.925-0.12114-62.978 1.5665-63.975 0.70086-0.41401 2.3133-0.4514 19.468-0.4514 16.839 0 18.777 0.04313 19.436 0.43274 1.5984 0.94418 1.598 0.94175 1.598 11.856 0 9.6237 0.01884 9.9951 0.56169 11.072 0.30893 0.61267 0.60371 1.1607 0.65506 1.2178 0.20549 0.22854 1.0771-0.77168 3.5959-4.1265 3.8297-5.1009 5.8851-6.6929 8.6408-6.6929 0.7591 0 1.7799 0.16702 2.2685 0.37117 2.1329 0.89117 4.2613 3.6553 5.5206 7.1695 0.91667 2.558 1.2844 3.3079 1.6202 3.3038 0.31823-0.0039 2.4762-2.5807 3.8455-4.592 1.479-2.1723 4.1922-4.8544 5.6412-5.5764 2.3727-1.1824 4.9123-0.83431 6.9468 0.95199 1.3705 1.2033 2.2638 2.6396 3.5382 5.6886 0.61756 1.4775 1.2923 2.9063 1.4994 3.175 0.35717 0.4634 0.41785 0.44084 1.1762-0.43743 0.4398-0.50932 1.4364-1.819 2.2146-2.9104 2.1687-3.0415 4.7489-5.6846 6.3075-6.4613 3.5152-1.7517 7.069-0.1182 9.308 4.2785l0.4379 0.8599h4.4083l0.42985-1.7419c1.6933-6.8617 5.9747-12.299 12.133-15.408 3.4897-1.7617 5.1364-2.1827 9.2092-2.354 4.9781-0.20941 8.4043 0.43334 9.9729 1.8709 1.1661 1.0687 1.455 2.7325 0.73721 4.2453-0.82947 1.748-2.2989 2.0956-5.6005 1.3249-7.676-1.7918-14.805 1.6043-18.417 8.774-1.4858 2.9486-1.9444 7.3257-1.1053 10.547 1.9381 7.4407 9.1824 12.768 16.647 12.241 5.3916-0.38049 10.871-3.9681 13.26-8.6815 1.7047-3.3641 2.1429-7.797 1.1371-11.504-1.094-4.0321-0.93046-5.4507 0.74821-6.4882 1.3148-0.81262 3.2803-0.60054 4.3502 0.46942 1.6558 1.6558 2.8242 7.1098 2.513 11.731-0.24073 3.5757-0.77548 5.5683-2.3277 8.6737-3.5756 7.1532-10.213 11.799-18.271 12.789-8.6219 1.0596-17.725-3.5081-22.38-11.229-0.80491-1.3351-2.4443-5.6396-2.8142-7.3894l-0.15384-0.7276h-3.5496c-1.9523 0-3.8848-0.12664-4.2944-0.28142-1.19-0.44962-2.0839-1.4841-2.8598-3.3098-0.39748-0.93524-0.85813-1.698-1.0237-1.6951-0.16553 3e-3 -1.5511 1.6803-3.0791 3.7275-3.1633 4.2382-4.4776 5.5606-6.4308 6.4699-2.4233 1.1283-4.7197 0.74393-6.8159-1.1407-1.483-1.3334-2.9526-3.6213-3.6754-5.7221-0.72857-2.1176-1.3515-3.3414-1.695-3.3299-0.16532 0.0055-1.251 1.2855-2.4127 2.8443-1.1617 1.5588-2.806 3.6322-3.6541 4.6075-2.707 3.1132-5.8577 4.1463-8.5987 2.8194-2.2554-1.0918-3.4337-2.7254-5.4889-7.6098-0.64084-1.5231-1.2194-2.5391-1.4458-2.5391-0.20757 0-1.5815 1.6073-3.0533 3.5719-4.0741 5.4384-6.2618 7.1438-9.1641 7.1438h-1.0112v69.85h11.906v-4.0037c0-3.6364 0.05224-4.0882 0.56951-4.9252 1.0147-1.6418 1.1186-1.6545 13.572-1.6545 15.058 0 14.219-0.37647 14.434 6.4808l0.13229 4.2318 13.758-0.0907c7.5671-0.0499 13.799-0.12925 13.848-0.17633 0.0493-0.0471 0.19602-0.55906 0.32605-1.1378 1.6388-7.294 6.9586-13.637 13.74-16.382 3.4288-1.3882 5.3452-1.7588 8.9958-1.7394 4.9981 0.0265 9.3746 1.3966 13.069 4.0915l1.8243 1.3307 0.98577-1.0161c0.54218-0.55884 6.2223-6.7311 12.622-13.716 6.4002-6.985 15.297-16.681 19.772-21.546 4.4743-4.8655 8.7939-9.592 9.599-10.503 2.0381-2.3071 3.8505-2.8236 5.6507-1.6105 1.4376 0.96881 1.9446 2.5955 1.3205 4.237-0.13411 0.35273-2.4261 3.0159-5.0932 5.9181-2.6672 2.9022-9.6119 10.454-15.433 16.781-5.8208 6.3275-13.751 14.966-17.623 19.197l-7.04 7.693 1.1482 2.3451c1.6312 3.3316 2.0831 5.5297 2.0627 10.032-0.0203 4.4794-0.44387 6.4533-2.1006 9.7896-2.3501 4.7327-5.6584 8.1772-10.078 10.493-3.5883 1.88-5.4462 2.3677-9.6281 2.5278-5.7081 0.21854-7.7162-0.42787-8.4754-2.7282-0.57549-1.7438 0.71084-4.0405 2.5168-4.4938 0.33837-0.0849 1.5496-0.0422 2.6916 0.0948 2.1134 0.25368 4.714 0.0671 6.7658-0.48537 3.1373-0.84478 6.5223-3.367 8.5811-6.394 1.7038-2.505 2.4804-4.8479 2.6655-8.0415 0.42735-7.3742-3.7631-13.543-10.979-16.162-8.3636-3.0358-18.217 2.4504-20.56 11.448-0.86209 3.3098-0.38176 7.597 1.2028 10.736 1.2879 2.5512 0.83094 4.993-1.0826 5.7856-1.2065 0.49974-3.346 0.20624-4.117-0.56476-0.74807-0.74807-2.3211-4.4797-2.9321-6.956l-0.42985-1.7419-10.876 1e-3c-5.9818 5.3e-4 -12.215 0.0784-13.853 0.17272l-2.9766 0.17151v3.9632c0 3.595-0.05291 4.0489-0.56951 4.8847-1.0147 1.6417-1.1186 1.6544-13.572 1.6544-15.058 0-14.219 0.37672-14.434-6.4823l-0.13229-4.2333h-11.642l-0.13229 8.7312c-0.14268 9.4166-0.14381 9.4238-1.6066 10.288-0.64874 0.38322-2.6733 0.42696-19.469 0.42065-17.18-6e-3 -18.805-0.0446-19.471-0.45724zm33.338-6.634c0.26307-0.16702 0.31823-4.5102 0.26458-20.832l-0.06778-20.621-27.914-0.137v20.728c0 11.4 0.07938 20.807 0.17639 20.904 0.2526 0.2526 27.141 0.21088 27.54-0.0427zm40.753-15.391c0.04098-3.5653 0.0085-6.7521-0.07225-7.0818l-0.14675-0.59956-14.408 0.1408-0.0745 6.4823c-0.04098 3.5653-0.0085 6.7521 0.07225 7.0818l0.14675 0.59956 14.408-0.1408zm-40.842-33.234c0.3697-0.14187 0.41852-1.1596 0.41852-8.7262v-8.5656l-0.59531-0.14447c-0.32742-0.0795-6.608-0.11149-13.957-0.0712l-13.361 0.0733-0.06995 8.4644c-0.03847 4.6554-0.01244 8.6142 0.05784 8.7974 0.10039 0.26161 3.0185 0.33302 13.608 0.33302 7.4142 0 13.669-0.0723 13.899-0.1606zm0.35398-45.276 0.06776-20.698-0.59692-0.14487c-0.32831-0.07968-6.6096-0.1119-13.958-0.07159l-13.361 0.07328-0.06775 20.838-0.06775 20.838 27.917-0.137z" stroke-width=".26458"/>
 </g>
</svg>
