<svg xmlns="http://www.w3.org/2000/svg" width="17" height="17" viewBox="0 0 17 17">
  <path fill="#1776BF" d="M1.7,0 C0.76075,0 0,0.76075 0,1.7 L0,11.9 C0,12.83925 0.76075,13.6 1.7,13.6 L11.9,13.6 C12.83925,13.6 13.6,12.83925 13.6,11.9 L13.6,1.7 C13.6,0.76075 12.83925,0 11.9,0 L1.7,0 Z M1.7,1.7 L11.9,1.7 L11.9,11.9 L1.7,11.9 L1.7,1.7 Z M17,3.4 L17,15.3 C17,16.23925 16.23925,17 15.3,17 L15.3,17 L3.4,17 L3.4,15.3 L15.3,15.3 L15.3,3.4 L17,3.4 Z M7.65,2.55 L7.65,5.949 L11.05,5.95 L11.05,7.65 L7.65,7.649 L7.65,11.05 L5.95,11.05 L5.95,7.649 L2.55,7.65 L2.55,5.95 L5.95,5.949 L5.95,2.55 L7.65,2.55 Z"/>
</svg>
