<svg xmlns="http://www.w3.org/2000/svg" xmlns:xlink="http://www.w3.org/1999/xlink" width="17" height="20" viewBox="0 0 17 20">
  <defs>
    <path id="re-order-icon-numberarrow-blue-a" d="M33.75,0 L30,1.4550781 L30,3.0683594 L32,2.3652344 L32,8 L34,8 L34,0 L33.75,0 Z M41,0 L41,16 L38,16 L42,20 L46,16 L43,16 L43,0 L41,0 Z M32,11 C30.6666667,11 29.7247257,11.81422 29.3554688,12.552734 C28.9862118,13.291248 29,14 29,14 L31,14 C31,14 31.0137882,13.708752 31.1445312,13.447266 C31.2752744,13.18578 31.3333333,13 32,13 C32.6666667,13 32.7247257,13.18578 32.8554688,13.447266 C32.9862118,13.708752 33,14 33,14 C33,14.03572 32.910169,14.329169 32.6113281,14.683594 C32.3124874,15.038019 31.858632,15.436579 31.3945312,15.789062 C30.46633,16.494031 29.5214844,17.013672 29.5214844,17.013672 L29,17.296875 L29,19 L35,19 L35,17 L33.0195312,17 C33.4094646,16.678826 33.8094357,16.36313 34.1386719,15.972656 C34.5898312,15.437581 35,14.817278 35,14 C35,14 35.013788,13.291248 34.6445312,12.552734 C34.2752744,11.81422 33.3333333,11 32,11 Z"/>
  </defs>
  <g fill="none" transform="translate(-29)">
    <use fill="#000" xlink:href="#re-order-icon-numberarrow-blue-a"/>
    <use fill="#1776BF" xlink:href="#re-order-icon-numberarrow-blue-a"/>
  </g>
</svg>
