<?xml version="1.0" encoding="UTF-8"?>
<svg width="19px" height="21px" viewBox="0 0 19 21" version="1.1" xmlns="http://www.w3.org/2000/svg" xmlns:xlink="http://www.w3.org/1999/xlink">
    <title>auditing-22b</title>
    <g id="Page-1" stroke="none" stroke-width="1" fill="none" fill-rule="evenodd">
        <g id="ISAC-Event-Type-Icons-May2021" transform="translate(-551.000000, -798.000000)" fill="#333333" fill-rule="nonzero">
            <g id="18.1-Auditing" transform="translate(499.000000, 798.000000)">
                <g id="auditing-22b" transform="translate(52.000000, 0.000000)">
                    <path d="M0,0 L0,18.3333333 L6.89290342,18.3333333 C6.46207008,17.7833333 6.13199858,17.1691667 5.90283192,16.5 L1.83333333,16.5 L1.83333333,1.83333333 L12.8333333,1.83333333 L12.8333333,7.36018892 L14.6666667,7.73616525 L14.6666667,0 L0,0 Z M3.66666667,4.58333333 L3.66666667,6.41666667 L11,6.41666667 L11,4.58333333 L3.66666667,4.58333333 Z M3.66666667,8.25 L3.66666667,10.0833333 L6.89290342,10.0833333 C7.44290342,9.33166667 8.14852225,8.70833333 8.96435558,8.25 L3.66666667,8.25 Z M12.375,9.16666667 C11.1842683,9.16666667 10.0774841,9.58326508 9.21321592,10.2892249 C8.06216858,11.2090165 7.33333333,12.6301505 7.33333333,14.2083333 C7.33333333,14.3971282 7.34452492,14.5864977 7.36734992,14.7722978 C7.64889125,17.2876468 9.78875242,19.25 12.375,19.25 C13.4333146,19.25 14.4160958,18.9198231 15.2288409,18.3583987 L16.9977216,20.1272784 L18.2939451,18.8310549 L16.5250653,17.0621743 C17.0864898,16.2494292 17.4166667,15.2666479 17.4166667,14.2083333 C17.4166667,11.4325264 15.1508069,9.16666667 12.375,9.16666667 Z M12.8333333,11.044759 C14.3985224,11.264924 15.5833333,12.5764128 15.5833333,14.2083333 C15.5833333,15.9975264 14.1641931,17.4166667 12.375,17.4166667 C10.7457423,17.4166667 9.43377967,16.2232409 9.20963542,14.6666667 L12.8333333,14.6666667 L12.8333333,11.044759 Z M3.66666667,11.9166667 L3.66666667,13.75 L5.52685558,13.75 C5.55435558,13.1083333 5.68283192,12.4941667 5.90283192,11.9166667 L3.66666667,11.9166667 Z" id="Shape"></path>
                </g>
            </g>
        </g>
    </g>
</svg>