<?xml version="1.0" encoding="UTF-8"?>
<svg width="22px" height="19px" viewBox="0 0 22 19" version="1.1" xmlns="http://www.w3.org/2000/svg" xmlns:xlink="http://www.w3.org/1999/xlink">
    <title>custom-22b</title>
    <g id="Page-1" stroke="none" stroke-width="1" fill="none" fill-rule="evenodd">
        <g id="ISAC-Event-Type-Icons-May2021" transform="translate(-559.000000, -319.000000)" fill="#333333" fill-rule="nonzero">
            <g id="06.1-Custom" transform="translate(499.000000, 319.000000)">
                <g id="custom-22b" transform="translate(60.000000, -0.000000)">
                    <path d="M16.5590819,0 C16.4408319,0 16.341875,0.0885585937 16.328125,0.205891932 L16.2207027,1.13330076 C15.777036,1.28730076 15.3757367,1.52192443 15.0283201,1.8225911 L14.1689451,1.45019527 C14.0607784,1.40344536 13.9357827,1.44691534 13.877116,1.54866534 L13.017741,3.03466799 C12.9590743,3.13641799 12.9859868,3.26665625 13.0804034,3.33723958 L13.8198243,3.88688153 C13.7758243,4.1132982 13.75,4.345 13.75,4.58333333 C13.75,4.82166667 13.7758243,5.05336847 13.8198243,5.27978513 L13.0804034,5.82942708 C12.9859868,5.90001042 12.9581577,6.03024868 13.017741,6.13199868 L13.877116,7.61800132 C13.9357827,7.72066799 14.0607784,7.76143097 14.1689451,7.71468097 L15.0283201,7.34407557 C15.3757367,7.6456589 15.777036,7.87936591 16.2207027,8.03336591 L16.328125,8.96077472 C16.341875,9.07810805 16.4408319,9.16666667 16.5590819,9.16666667 L18.2742514,9.16666667 C18.3925014,9.16666667 18.4914583,9.07810805 18.5052083,8.96077472 L18.6126307,8.03336591 C19.0562973,7.87936591 19.4575966,7.64474223 19.8050132,7.34407557 L20.6643882,7.7164714 C20.7725549,7.7632214 20.8975507,7.71975132 20.9562173,7.61800132 L21.8155923,6.13199868 C21.874259,6.02933201 21.8473466,5.89909375 21.7529299,5.82942708 L21.013509,5.27978513 C21.057509,5.05336847 21.0833333,4.82166667 21.0833333,4.58333333 C21.0833333,4.345 21.057509,4.1132982 21.013509,3.88688153 L21.7529299,3.33723958 C21.8473466,3.26665625 21.8751757,3.13641799 21.8155923,3.03466799 L20.9562173,1.54866534 C20.8975507,1.44691534 20.7725549,1.40344536 20.6643882,1.45019527 L19.8050132,1.8225911 C19.4575966,1.52192443 19.0562973,1.28730076 18.6126307,1.13330076 L18.5052083,0.205891932 C18.4914583,0.0885585937 18.3925014,0 18.2742514,0 L16.5590819,0 Z M17.4166667,2.75 C18.4286667,2.75 19.25,3.57041667 19.25,4.58333333 C19.25,5.59533333 18.4286667,6.41666667 17.4166667,6.41666667 C16.4046667,6.41666667 15.5833333,5.59533333 15.5833333,4.58333333 C15.5833333,3.57041667 16.4046667,2.75 17.4166667,2.75 Z M1.83333333,3.66666667 L1.83333333,16.5 L0,16.5 L0,18.3333333 L22,18.3333333 L22,16.5 L20.1666667,16.5 L20.1666667,10.3733722 C19.5965,10.6447055 18.9822902,10.8340118 18.3351236,10.9265952 L18.3351236,14.6666667 L3.66666667,14.6666667 L3.66666667,5.5 L11.0734048,5.5 C11.0303215,5.20025 11,4.895 11,4.58333333 C11,4.27166667 11.0303215,3.96641667 11.0734048,3.66666667 L1.83333333,3.66666667 Z" id="Shape"></path>
                </g>
            </g>
        </g>
    </g>
</svg>