<?xml version="1.0" encoding="UTF-8"?>
<svg width="18px" height="19px" viewBox="0 0 18 19" version="1.1" xmlns="http://www.w3.org/2000/svg" xmlns:xlink="http://www.w3.org/1999/xlink">
    <title>enterprise gateway-22</title>
    <g id="Page-1" stroke="none" stroke-width="1" fill="none" fill-rule="evenodd">
        <g id="ISAC-Event-Type-Icons-May2021" transform="translate(-385.000000, -361.000000)" fill="#333333" fill-rule="nonzero">
            <g id="07-Entprise-Gateway" transform="translate(325.000000, 361.000000)">
                <g id="enterprise-gateway-22" transform="translate(60.000000, 0.000000)">
                    <path d="M1.375,-4.07081776e-16 C0.615608469,-4.07081776e-16 0,0.615608469 0,1.375 C0.000729210169,1.76537862 0.16736117,2.13704601 0.458333333,2.3972982 L0.458333333,3.66666667 L0.458333333,16.5 L0.458333333,18.3333333 L2.29166667,18.3333333 L2.29166667,16.5 L13.2916667,16.5 L13.2916667,3.66666667 L2.29166667,3.66666667 L2.29166667,2.3972982 C2.58263883,2.13704601 2.74927079,1.76537862 2.75,1.375 C2.75,0.615608469 2.13439153,-4.07081776e-16 1.375,-4.07081776e-16 Z M16.0416667,-4.07081776e-16 C15.2822751,-4.07081776e-16 14.6666667,0.615608469 14.6666667,1.375 C14.6673959,1.76537862 14.8340278,2.13704601 15.125,2.3972982 L15.125,18.3333333 L16.9583333,18.3333333 L16.9583333,2.3972982 C17.2493055,2.13704601 17.4159375,1.76537862 17.4166667,1.375 C17.4166667,0.615608469 16.8010582,-4.07081776e-16 16.0416667,-4.07081776e-16 Z M9.625,8.25 L11.4583333,8.25 L11.4583333,11.9166667 L9.625,11.9166667 L9.625,8.25 Z" id="Shape"></path>
                </g>
            </g>
        </g>
    </g>
</svg>