<?xml version="1.0" encoding="UTF-8"?>
<svg width="21px" height="21px" viewBox="0 0 21 21" version="1.1" xmlns="http://www.w3.org/2000/svg" xmlns:xlink="http://www.w3.org/1999/xlink">
    <title>configuration-22b</title>
    <g id="Page-1" stroke="none" stroke-width="1" fill="none" fill-rule="evenodd">
        <g id="ISAC-Event-Type-Icons-May2021" transform="translate(-559.000000, -239.000000)" fill="#333333" fill-rule="nonzero">
            <g id="04.1-Configuration" transform="translate(499.000000, 239.000000)">
                <g id="configuration-22b" transform="translate(60.000000, 0.000000)">
                    <path d="M6.86962898,0 L6.41845701,2.31315104 C5.66609478,2.5976511 4.97041976,2.99512043 4.35953778,3.49658201 L2.13769536,2.73030597 L4.07081776e-16,6.4363607 L1.77783201,7.98144508 C1.7147966,8.36823717 1.67399091,8.76206742 1.67399091,9.16666667 C1.67399091,9.57144192 1.71092643,9.96728425 1.77425133,10.3536785 L4.07081776e-16,11.896973 L2.13769536,15.603027 L4.37923182,14.8295895 C4.9429116,15.2878724 5.57341272,15.6671698 6.25732424,15.9449867 L6.25732424,11.5639645 C5.69449091,10.9195478 5.34065757,10.0888333 5.34065757,9.16666667 C5.34065757,7.14175 6.98240758,5.5 9.00732424,5.5 C11.0322409,5.5 12.6739909,7.14175 12.6739909,9.16666667 L16.3406576,9.16666667 C16.3406576,8.76206742 16.2998522,8.36823717 16.2368167,7.98144508 L18.0146486,6.4363607 L15.8769535,2.73030597 L13.6551102,3.49658201 C13.0442289,2.99512043 12.3485541,2.5976511 11.5961917,2.31315104 L11.1450193,0 L6.86962898,0 Z M8.09065757,11 L8.09065757,20.1666667 L20.0073242,20.1666667 L20.0073242,11 L8.09065757,11 Z M15.9611007,12.8333333 L17.2573242,14.1295568 L13.9702144,17.4166667 L10.8406576,17.4166667 L10.8406576,15.5833333 L13.2111007,15.5833333 L15.9611007,12.8333333 Z" id="Shape"></path>
                </g>
            </g>
        </g>
    </g>
</svg>