<?xml version="1.0" encoding="UTF-8"?>
<svg width="22px" height="13px" viewBox="0 0 22 13" version="1.1" xmlns="http://www.w3.org/2000/svg" xmlns:xlink="http://www.w3.org/1999/xlink">
    <title>Keystore-22</title>
    <g id="Page-1" stroke="none" stroke-width="1" fill="none" fill-rule="evenodd">
        <g id="ISAC-Event-Type-Icons-May2021" transform="translate(-385.000000, -441.000000)" fill="#333333" fill-rule="nonzero">
            <g id="09-Keystore" transform="translate(325.000000, 441.000000)">
                <g id="Keystore-22" transform="translate(60.000000, -0.000000)">
                    <path d="M6.41666667,0 C2.87283333,0 0,2.87283333 0,6.41666667 C0,9.9605 2.87283333,12.8333333 6.41666667,12.8333333 C9.32311325,12.8333333 11.7756567,10.9000732 12.5647784,8.25 L16.5,8.25 L16.5,11 L20.1666667,11 L20.1666667,8.25 L22,8.25 L22,4.58333333 L12.5647784,4.58333333 C11.7756567,1.93326027 9.32311325,0 6.41666667,0 Z M6.41666667,3.66666667 C7.93558333,3.66666667 9.16666667,4.89775 9.16666667,6.41666667 C9.16666667,7.93558333 7.93558333,9.16666667 6.41666667,9.16666667 C4.89775,9.16666667 3.66666667,7.93558333 3.66666667,6.41666667 C3.66666667,4.89775 4.89775,3.66666667 6.41666667,3.66666667 Z" id="Shape"></path>
                </g>
            </g>
        </g>
    </g>
</svg>