<?xml version="1.0" encoding="UTF-8"?>
<svg width="15px" height="20px" viewBox="0 0 15 20" version="1.1" xmlns="http://www.w3.org/2000/svg" xmlns:xlink="http://www.w3.org/1999/xlink">
    <title>passwords-22</title>
    <g id="Page-1" stroke="none" stroke-width="1" fill="none" fill-rule="evenodd">
        <g id="ISAC-Event-Type-Icons-May2021" transform="translate(-385.000000, -520.000000)" fill="#333333" fill-rule="nonzero">
            <g id="11-Passwords" transform="translate(325.000000, 520.000000)">
                <g id="passwords-22" transform="translate(60.000000, 0.000000)">
                    <path d="M7.33333333,0 C4.28650796,0 1.83333333,2.45317463 1.83333333,5.5 L1.83333333,6.41666667 L0,6.41666667 L0,19.25 L14.6666667,19.25 L14.6666667,6.41666667 L12.8333333,6.41666667 L12.8333333,5.5 C12.8333333,2.45317463 10.3801592,0 7.33333333,0 Z M7.33333333,1.83333333 C9.41984083,1.83333333 11,3.41349204 11,5.5 L11,6.41666667 L3.66666667,6.41666667 L3.66666667,5.5 C3.66666667,3.41349204 5.24682538,1.83333333 7.33333333,1.83333333 Z M3.66666667,11.9166667 C4.17083333,11.9166667 4.58333333,12.3291667 4.58333333,12.8333333 C4.58333333,13.3375 4.17083333,13.75 3.66666667,13.75 C3.1625,13.75 2.75,13.3375 2.75,12.8333333 C2.75,12.3291667 3.1625,11.9166667 3.66666667,11.9166667 Z M7.33333333,11.9166667 C7.8375,11.9166667 8.25,12.3291667 8.25,12.8333333 C8.25,13.3375 7.8375,13.75 7.33333333,13.75 C6.82916667,13.75 6.41666667,13.3375 6.41666667,12.8333333 C6.41666667,12.3291667 6.82916667,11.9166667 7.33333333,11.9166667 Z M11,11.9166667 C11.5041667,11.9166667 11.9166667,12.3291667 11.9166667,12.8333333 C11.9166667,13.3375 11.5041667,13.75 11,13.75 C10.4958333,13.75 10.0833333,13.3375 10.0833333,12.8333333 C10.0833333,12.3291667 10.4958333,11.9166667 11,11.9166667 Z" id="Shape"></path>
                </g>
            </g>
        </g>
    </g>
</svg>