<?xml version="1.0" encoding="UTF-8"?>
<svg width="19px" height="19px" viewBox="0 0 19 19" version="1.1" xmlns="http://www.w3.org/2000/svg" xmlns:xlink="http://www.w3.org/1999/xlink">
    <title>remote servers-22b</title>
    <g id="Page-1" stroke="none" stroke-width="1" fill="none" fill-rule="evenodd">
        <g id="ISAC-Event-Type-Icons-May2021" transform="translate(-559.000000, -640.000000)" fill="#000000" fill-rule="nonzero">
            <g id="14.1-Remote-servers-final-v2" transform="translate(499.000000, 640.000000)">
                <g id="remote-servers-22b" transform="translate(60.333333, 0.333333)">
                    <path d="M0,0 L0,18.3333333 L7.33333333,18.3333333 L7.33333333,11 L1.83333333,11 L1.83333333,1.83333333 L9.16666667,1.83333333 L9.16666667,7.25 L11,7.25 L11,0 L0,0 Z M3.66666667,3.66666667 L3.66666667,5.5 L7.33333333,5.5 L7.33333333,3.66666667 L3.66666667,3.66666667 Z M3.66666667,7.33333333 L3.66666667,9.16666667 L7.33333333,9.16666667 L7.33333333,7.33333333 L3.66666667,7.33333333 Z M18.6666667,8.53333333 L18.6666667,18.3333333 L9.16666667,18.3333333 L9.16666667,8.53333333 L18.6666667,8.53333333 Z M5.5,13.5208333 C6.1325,13.5208333 6.64583333,14.0341667 6.64583333,14.6666667 C6.64583333,15.2991667 6.1325,15.8125 5.5,15.8125 C4.8675,15.8125 4.35416667,15.2991667 4.35416667,14.6666667 C4.35416667,14.0341667 4.8675,13.5208333 5.5,13.5208333 Z M12.9666667,10.4333333 L14.1949872,11.6616539 L11.0666667,14.7899744 L11.0666667,17.7166667 L12.9666667,17.7166667 L12.9666667,15.5766922 L15.5383461,13.0050128 L16.7666667,14.2333333 L16.7666667,10.4333333 L12.9666667,10.4333333 Z" id="Shape"></path>
                </g>
            </g>
        </g>
    </g>
</svg>