<?xml version="1.0" encoding="UTF-8"?>
<svg width="21px" height="20px" viewBox="0 0 21 20" version="1.1" xmlns="http://www.w3.org/2000/svg" xmlns:xlink="http://www.w3.org/1999/xlink">
    <title>certificates-22</title>
    <g id="Page-1" stroke="none" stroke-width="1" fill="none" fill-rule="evenodd">
        <g id="ISAC-Event-Type-Icons-May2021" transform="translate(-385.000000, -198.000000)" fill="#333333" fill-rule="nonzero">
            <g id="03-Certificates" transform="translate(325.000000, 198.000000)">
                <g id="certificates-22" transform="translate(60.000000, 0.000000)">
                    <path d="M10.0833333,0 L8.26969367,1.75276695 L5.77392576,1.40006515 L5.3370768,3.8850911 L3.10986326,5.06673182 L4.21630862,7.33333333 L3.10986326,9.59993467 L5.3370768,10.7815758 L5.77392576,13.2666013 L8.27148483,12.9139001 L10.0833333,14.6666667 L11.896973,12.9139001 L14.3945313,13.2666013 L14.8295895,10.7815758 L17.0585938,9.59993467 L15.9503584,7.33333333 L17.0568035,5.06673182 L14.8295895,3.8850911 L14.392741,1.40006515 L11.8951818,1.75276695 L10.0833333,0 Z M3.65055341,11.9327798 L0,15.5833333 L2.75,16.5 L3.66666667,19.25 L7.87402348,15.042643 L7.6484375,14.8277992 L6.52408854,14.9853513 C6.41408854,15.0009347 6.3064089,15.0086264 6.19824223,15.0086264 C5.06524223,15.0086264 4.10003513,14.197777 3.90478513,13.0821937 L3.70963542,11.9650062 L3.65055341,11.9327798 Z M16.5161132,11.9327798 L16.4570312,11.9650062 L16.2618812,13.0821937 C16.0657145,14.1986937 15.1014243,15.0086264 13.9684243,15.0086264 C13.8602576,15.0086264 13.7525786,15.0009347 13.6425777,14.9853513 L12.5182292,14.8277992 L12.292643,15.0444332 L16.5,19.25 L17.4166667,16.5 L20.1666667,15.5833333 L16.5161132,11.9327798 Z" id="Shape"></path>
                </g>
            </g>
        </g>
    </g>
</svg>