<?xml version="1.0" encoding="UTF-8"?>
<svg width="17px" height="19px" viewBox="0 0 17 19" version="1.1" xmlns="http://www.w3.org/2000/svg" xmlns:xlink="http://www.w3.org/1999/xlink">
    <title>proxy servers-22</title>
    <g id="Page-1" stroke="none" stroke-width="1" fill="none" fill-rule="evenodd">
        <g id="ISAC-Event-Type-Icons-May2021" transform="translate(-385.000000, -599.000000)" fill="#333333" fill-rule="nonzero">
            <g id="13-Proxy-Servers" transform="translate(325.000000, 599.000000)">
                <g id="proxy-servers-22" transform="translate(60.000000, 0.000000)">
                    <path d="M2.75,0 L2.75,9.16666667 L4.79817708,9.16666667 L3.14746098,11.9166667 L0,11.9166667 L0,12.8333333 L0,17.4166667 L1.83333333,17.4166667 L1.83333333,18.3333333 L5.5,18.3333333 L5.5,17.4166667 L7.33333333,17.4166667 L7.33333333,11.9166667 L5.28515625,11.9166667 L6.93587217,9.16666667 L9.56412783,9.16666667 L11.2148438,11.9166667 L9.16666667,11.9166667 L9.16666667,12.8333333 L9.16666667,17.4166667 L11,17.4166667 L11,18.3333333 L14.6666667,18.3333333 L14.6666667,17.4166667 L16.5,17.4166667 L16.5,11.9166667 L13.3525388,11.9166667 L11.7018229,9.16666667 L13.75,9.16666667 L13.75,8.25 L13.75,0 L2.75,0 Z M4.58333333,2.75 L11.9166667,2.75 L11.9166667,7.33333333 L4.58333333,7.33333333 L4.58333333,2.75 Z M1.83333333,13.75 L5.5,13.75 L5.5,15.5833333 L1.83333333,15.5833333 L1.83333333,13.75 Z M11,13.75 L14.6666667,13.75 L14.6666667,15.5833333 L11,15.5833333 L11,13.75 Z" id="Shape"></path>
                </g>
            </g>
        </g>
    </g>
</svg>