<?xml version="1.0" encoding="UTF-8"?>
<svg width="19px" height="17px" viewBox="0 0 19 17" version="1.1" xmlns="http://www.w3.org/2000/svg" xmlns:xlink="http://www.w3.org/1999/xlink">
    <title>authorization-22b</title>
    <g id="Page-1" stroke="none" stroke-width="1" fill="none" fill-rule="evenodd">
        <g id="ISAC-Event-Type-Icons-May2021" transform="translate(-559.000000, -201.000000)" fill="#333333" fill-rule="nonzero">
            <g id="02.1-Authorization" transform="translate(499.000000, 201.000000)">
                <g id="authorization-22b" transform="translate(60.000000, 0.000000)">
                    <path d="M3.66666667,0 C1.65248013,0 0,1.65248013 0,3.66666667 C0,5.36277656 1.17719571,6.78845933 2.75,7.20084658 L2.75,16.5 L7.33333333,16.5 L7.33333333,14.6666667 L4.58333333,14.6666667 L4.58333333,12.8333333 L6.41666667,12.8333333 L6.41666667,11 L4.58333333,11 L4.58333333,7.20084658 C6.15613762,6.78845933 7.33333333,5.36277656 7.33333333,3.66666667 C7.33333333,1.65248013 5.6808532,0 3.66666667,0 Z M3.66666667,1.83333333 C4.69004626,1.83333333 5.5,2.64328707 5.5,3.66666667 C5.5,4.69004626 4.69004626,5.5 3.66666667,5.5 C2.64328707,5.5 1.83333333,4.69004626 1.83333333,3.66666667 C1.83333333,2.64328707 2.64328707,1.83333333 3.66666667,1.83333333 Z M9.16666667,2.75 L9.16666667,7.33333333 L18.3333333,7.33333333 L18.3333333,2.75 L9.16666667,2.75 Z M9.16666667,9.16666667 L9.16666667,13.75 L18.3333333,13.75 L18.3333333,9.16666667 L9.16666667,9.16666667 Z" id="Shape"></path>
                </g>
            </g>
        </g>
    </g>
</svg>