<?xml version="1.0" encoding="UTF-8"?>
<svg width="19px" height="19px" viewBox="0 0 19 19" version="1.1" xmlns="http://www.w3.org/2000/svg" xmlns:xlink="http://www.w3.org/1999/xlink">
    <title>SSL-22</title>
    <g id="Page-1" stroke="none" stroke-width="1" fill="none" fill-rule="evenodd">
        <g id="ISAC-Event-Type-Icons-May2021" transform="translate(-385.000000, -720.000000)" fill="#333333" fill-rule="nonzero">
            <g id="16-SSL" transform="translate(325.000000, 720.000000)">
                <g id="SSL-22" transform="translate(60.000000, -0.000000)">
                    <path d="M9.16666667,0 C4.11216667,0 0,4.11216667 0,9.16666667 C0,14.2211667 4.11216667,18.3333333 9.16666667,18.3333333 C14.2211667,18.3333333 18.3333333,14.2211667 18.3333333,9.16666667 C18.3333333,4.11216667 14.2211667,0 9.16666667,0 Z M9.16666667,3.66666667 C10.725,3.66666667 11.9166667,4.85833333 11.9166667,6.41666667 L11.9166667,7.33333333 L12.8333333,7.33333333 L12.8333333,8.25 L12.8333333,11.9166667 L12.8333333,12.8333333 L11.9166667,12.8333333 L6.41666667,12.8333333 L5.5,12.8333333 L5.5,11.9166667 L5.5,8.25 L5.5,7.33333333 L6.41666667,7.33333333 L6.41666667,6.41666667 C6.41666667,4.85833333 7.60833333,3.66666667 9.16666667,3.66666667 Z M9.16666667,5.04166667 C8.43333333,5.04166667 7.79166667,5.68333333 7.79166667,6.41666667 L7.79166667,7.33333333 L9.16666667,7.33333333 L10.5416667,7.33333333 L10.5416667,6.41666667 C10.5416667,5.68333333 9.9,5.04166667 9.16666667,5.04166667 Z M9.16666667,9.16666667 C8.66040565,9.16666667 8.25,9.57707231 8.25,10.0833333 C8.25,10.5895944 8.66040565,11 9.16666667,11 C9.67292769,11 10.0833333,10.5895944 10.0833333,10.0833333 C10.0833333,9.57707231 9.67292769,9.16666667 9.16666667,9.16666667 Z" id="Shape"></path>
                </g>
            </g>
        </g>
    </g>
</svg>