<?xml version="1.0" encoding="UTF-8"?>
<svg width="20px" height="19px" viewBox="0 0 20 19" version="1.1" xmlns="http://www.w3.org/2000/svg" xmlns:xlink="http://www.w3.org/1999/xlink">
    <title>web services-22</title>
    <g id="Page-1" stroke="none" stroke-width="1" fill="none" fill-rule="evenodd">
        <g id="ISAC-Event-Type-Icons-May2021" transform="translate(-391.000000, -763.000000)" fill="#333333" fill-rule="nonzero">
            <g id="17-Web-services" transform="translate(325.000000, 763.000000)">
                <g id="web-services-22" transform="translate(66.000000, 0.000000)">
                    <path d="M0,0 L0,16.5 L9.669759,16.5 C9.562509,16.2213333 9.468107,15.9296473 9.39225283,15.6245118 C9.31639867,15.3193764 9.25796117,15.0007917 9.22037783,14.6666667 L1.83333333,14.6666667 L1.83333333,5.5 L14.6666667,5.5 L14.6666667,7.33333333 L16.5,7.33333333 L16.5,0 L0,0 Z M2.75,1.83333333 C3.256,1.83333333 3.66666667,2.244 3.66666667,2.75 C3.66666667,3.256 3.256,3.66666667 2.75,3.66666667 C2.244,3.66666667 1.83333333,3.256 1.83333333,2.75 C1.83333333,2.244 2.244,1.83333333 2.75,1.83333333 Z M5.5,1.83333333 C6.006,1.83333333 6.41666667,2.244 6.41666667,2.75 C6.41666667,3.256 6.006,3.66666667 5.5,3.66666667 C4.994,3.66666667 4.58333333,3.256 4.58333333,2.75 C4.58333333,2.3705 4.81474867,2.04416667 5.14371742,1.90494792 C5.25337367,1.85854167 5.3735,1.83333333 5.5,1.83333333 Z M8.25,1.83333333 L14.6666667,1.83333333 L14.6666667,3.66666667 L8.25,3.66666667 L8.25,1.83333333 Z M16.3575847,9 C16.4758347,9 16.5747917,9.08855859 16.5885417,9.20589193 L16.5885417,9.20589193 L16.695964,10.1333008 C17.1396307,10.2873008 17.5409299,10.5219244 17.8883466,10.8225911 L17.8883466,10.8225911 L18.7477216,10.4501953 C18.8558882,10.4034454 18.980884,10.4469153 19.0395507,10.5486653 L19.0395507,10.5486653 L19.8989257,12.034668 C19.958509,12.136418 19.9306799,12.2666563 19.8362632,12.3372396 L19.8362632,12.3372396 L19.0968423,12.8868815 C19.1408423,13.1132982 19.1666667,13.345 19.1666667,13.5833333 C19.1666667,13.8216667 19.1408423,14.0533685 19.0968423,14.2797851 L19.0968423,14.2797851 L19.8362632,14.8294271 C19.9306799,14.8990938 19.9575923,15.029332 19.8989257,15.1319987 L19.8989257,15.1319987 L19.0395507,16.6180013 C18.980884,16.7197513 18.8558882,16.7632214 18.7477216,16.7164714 L18.7477216,16.7164714 L17.8883466,16.3440756 C17.5409299,16.6447422 17.1396307,16.8793659 16.695964,17.0333659 L16.695964,17.0333659 L16.5885417,17.9607747 C16.5747917,18.0781081 16.4758347,18.1666667 16.3575847,18.1666667 L16.3575847,18.1666667 L14.6424152,18.1666667 C14.5241652,18.1666667 14.4252083,18.0781081 14.4114583,17.9607747 L14.4114583,17.9607747 L14.304036,17.0333659 C13.8603693,16.8793659 13.4590701,16.6456589 13.1116534,16.3440756 L13.1116534,16.3440756 L12.2522784,16.714681 C12.1441117,16.761431 12.019116,16.720668 11.9604493,16.6180013 L11.9604493,16.6180013 L11.1010743,15.1319987 C11.041491,15.0302487 11.0693201,14.9000104 11.1637367,14.8294271 L11.1637367,14.8294271 L11.9031577,14.2797851 C11.8591577,14.0533685 11.8333333,13.8216667 11.8333333,13.5833333 C11.8333333,13.345 11.8591577,13.1132982 11.9031577,12.8868815 L11.9031577,12.8868815 L11.1637367,12.3372396 C11.0693201,12.2666563 11.0424077,12.136418 11.1010743,12.034668 L11.1010743,12.034668 L11.9604493,10.5486653 C12.019116,10.4469153 12.1441117,10.4034454 12.2522784,10.4501953 L12.2522784,10.4501953 L13.1116534,10.8225911 C13.4590701,10.5219244 13.8603693,10.2873008 14.304036,10.1333008 L14.304036,10.1333008 L14.4114583,9.20589193 C14.4252083,9.08855859 14.5241652,9 14.6424152,9 L14.6424152,9 Z M15.5,11.75 C14.488,11.75 13.6666667,12.5704167 13.6666667,13.5833333 C13.6666667,14.5953333 14.488,15.4166667 15.5,15.4166667 C16.512,15.4166667 17.3333333,14.5953333 17.3333333,13.5833333 C17.3333333,12.5704167 16.512,11.75 15.5,11.75 Z" id="Shape"></path>
                </g>
            </g>
        </g>
    </g>
</svg>