<?xml version="1.0" encoding="UTF-8"?>
<svg width="19px" height="21px" viewBox="0 0 19 21" version="1.1" xmlns="http://www.w3.org/2000/svg" xmlns:xlink="http://www.w3.org/1999/xlink">
    <title>authentication-22</title>
    <g id="Page-1" stroke="none" stroke-width="1" fill="none" fill-rule="evenodd">
        <g id="ISAC-Event-Type-Icons-May2021" transform="translate(-385.000000, -121.000000)" fill="#333333" fill-rule="nonzero">
            <g id="01-Authentication" transform="translate(325.000000, 121.000000)">
                <g id="authentication-22" transform="translate(60.000000, -0.000000)">
                    <path d="M6.41666667,0 L6.41666667,1.83333333 L8.25,1.83333333 L8.25,0 L6.41666667,0 Z M8.25,1.83333333 L8.25,3.66666667 L6.41666667,3.66666667 L6.41666667,1.83333333 L0,1.83333333 L0,19.25 L8.944661,19.25 L8.13899717,18.4443362 L6.84277367,17.1481117 L8.13899717,15.8518882 L8.40755208,15.5833333 L2.75,15.5833333 L2.75,14.6272784 C2.75,13.0276951 4.82991667,11.9166667 7.33333333,11.9166667 C9.71758333,11.9166667 11.6966089,12.9311875 11.8808598,14.4088542 L12.0276695,14.5556638 L12.8333333,15.3613277 L14.6666667,13.5279943 L14.6666667,1.83333333 L8.25,1.83333333 Z M7.33333333,6.41666667 C8.63225,6.41666667 9.625,7.40941667 9.625,8.70833333 C9.625,10.00725 8.63225,11 7.33333333,11 C6.03441667,11 5.04166667,10.00725 5.04166667,8.70833333 C5.04166667,7.40941667 6.03441667,6.41666667 7.33333333,6.41666667 Z M16.7685549,14.0185549 L12.8333333,17.9537765 L10.7314451,15.8518883 L9.43522158,17.1481118 L12.8333333,20.5462235 L18.0647784,15.3147784 L16.7685549,14.0185549 Z" id="Shape"></path>
                </g>
            </g>
        </g>
    </g>
</svg>