<?xml version="1.0" encoding="UTF-8"?>
<svg width="19px" height="19px" viewBox="0 0 19 19" version="1.1" xmlns="http://www.w3.org/2000/svg" xmlns:xlink="http://www.w3.org/1999/xlink">
    <title>services-22</title>
    <g id="Page-1" stroke="none" stroke-width="1" fill="none" fill-rule="evenodd">
        <g id="ISAC-Event-Type-Icons-May2021" transform="translate(-389.000000, -680.000000)" fill="#333333" fill-rule="nonzero">
            <g id="15-Services" transform="translate(325.000000, 680.000000)">
                <g id="services-22" transform="translate(64.000000, -0.000000)">
                    <path d="M9.16666667,0 L9.16666667,1.04736326 C8.50217133,1.21948383 7.91000192,1.56351268 7.44791667,2.04280597 L6.54199223,1.53255208 L5.64143882,3.12955729 L6.55452472,3.64339195 C6.47419942,3.94510188 6.41666667,4.25633927 6.41666667,4.58333333 C6.41666667,4.9103274 6.47419942,5.22156479 6.55452472,5.52327472 L5.64143882,6.03710937 L6.54199223,7.63411458 L7.44791667,7.1238607 C7.91000192,7.60315417 8.50217133,7.94718283 9.16666667,8.1193035 L9.16666667,9.16666667 L11,9.16666667 L11,8.1193035 C11.6644953,7.94718283 12.2566647,7.60315417 12.71875,7.1238607 L13.6246742,7.63411458 L14.5252277,6.03710937 L13.6121416,5.52327472 C13.6924672,5.22156479 13.75,4.9103274 13.75,4.58333333 C13.75,4.25772847 13.6935993,3.94753012 13.6139318,3.64697263 L14.527018,3.13134763 L13.6264645,1.53434243 L12.7205402,2.0445964 C12.2581983,1.5643804 11.6653341,1.21970117 11,1.04736326 L11,0 L9.16666667,0 Z M10.0833333,3.20833333 C10.8423333,3.20833333 11.4583333,3.82433333 11.4583333,4.58333333 C11.4583333,5.34233333 10.8423333,5.95833333 10.0833333,5.95833333 C9.32433333,5.95833333 8.70833333,5.34233333 8.70833333,4.58333333 C8.70833333,3.82433333 9.32433333,3.20833333 10.0833333,3.20833333 Z M16.5,9.16666667 L11.9166667,13.75 L8.25,13.75 L8.25,12.8333333 L11.9166667,12.8333333 L11.9166667,10.0833333 L4.58333333,10.0833333 L0,14.6666667 L3.66666667,18.3333333 L5.5,16.5 L12.0742187,16.5 C12.5600521,16.5 13.0266922,16.3066402 13.3704432,15.9628902 L18.3333333,11 L16.5,9.16666667 Z" id="Shape"></path>
                </g>
            </g>
        </g>
    </g>
</svg>