<?xml version="1.0" encoding="UTF-8"?>
<svg width="17px" height="19px" viewBox="0 0 17 19" version="1.1" xmlns="http://www.w3.org/2000/svg" xmlns:xlink="http://www.w3.org/1999/xlink">
    <title>ports-22b</title>
    <g id="Page-1" stroke="none" stroke-width="1" fill="none" fill-rule="evenodd">
        <g id="ISAC-Event-Type-Icons-May2021" transform="translate(-559.000000, -559.000000)" fill="#333333" fill-rule="nonzero">
            <g id="12.1-Ports" transform="translate(499.000000, 559.000000)">
                <g id="ports-22b" transform="translate(60.000000, -0.000000)">
                    <path d="M9.16666667,0 L9.16666667,0.916666667 L5.5,0.916666667 L5.5,6.41666667 L7.33333333,6.41666667 L7.33333333,5.5 L10.0833333,5.5 C10.0833333,6.00626102 10.493739,6.41666667 11,6.41666667 C11.506261,6.41666667 11.9166667,6.00626102 11.9166667,5.5 L14.6666667,5.5 L14.6666667,8.25 L12.8333333,8.25 L12.8333333,10.0833333 L16.5,10.0833333 L16.5,0.916666667 L12.8333333,0.916666667 L12.8333333,0 L9.16666667,0 Z M0.916666667,1.83333333 L0.916666667,5.5 L3.66666667,3.66666667 L0.916666667,1.83333333 Z M3.66666667,8.25 L3.66666667,9.16666667 L0,9.16666667 L0,18.3333333 L11,18.3333333 L11,9.16666667 L7.33333333,9.16666667 L7.33333333,8.25 L3.66666667,8.25 Z M15.5833333,12.8333333 L12.8333333,14.6666667 L15.5833333,16.5 L15.5833333,12.8333333 Z M1.83333333,13.75 L4.58333333,13.75 C4.58333333,14.256261 4.99373898,14.6666667 5.5,14.6666667 C6.00626102,14.6666667 6.41666667,14.256261 6.41666667,13.75 L9.16666667,13.75 L9.16666667,16.5 L1.83333333,16.5 L1.83333333,13.75 Z" id="Shape"></path>
                </g>
            </g>
        </g>
    </g>
</svg>