<?xml version="1.0" encoding="UTF-8"?>
<svg width="20px" height="20px" viewBox="0 0 20 20" version="1.1" xmlns="http://www.w3.org/2000/svg" xmlns:xlink="http://www.w3.org/1999/xlink">
    <title>packages-22</title>
    <g id="Page-1" stroke="none" stroke-width="1" fill="none" fill-rule="evenodd">
        <g id="ISAC-Event-Type-Icons-May2021" transform="translate(-385.000000, -478.000000)" fill="#333333" fill-rule="nonzero">
            <g id="10-Packages" transform="translate(325.000000, 478.000000)">
                <g id="packages-22" transform="translate(60.000000, 0.000000)">
                    <path d="M15,8.452 L15,2.887 L10,0 L5,2.887 L5,8.452 L0,11.339 L0,17.111 L5,19.998 L10,17.111 L15,19.998 L20,17.111 L20,11.339 L15,8.452 Z M14,7.879 L10.607,9.838 L10.596,5.939 L13.989,3.98 L14,7.879 L14,7.879 Z M9.989,1.092 L13.382,3.051 L10.011,5.01 L6.618,3.051 L9.989,1.092 L9.989,1.092 Z M1.618,11.503 L4.989,9.544 L8.382,11.503 L5.011,13.462 L1.618,11.503 Z M5.607,18.291 L5.596,14.392 L8.989,12.433 L9,16.332 L5.607,18.291 Z M11.618,11.503 L14.989,9.544 L18.382,11.503 L15.011,13.462 L11.618,11.503 L11.618,11.503 Z M15.607,18.291 L15.596,14.392 L18.989,12.433 L19,16.332 L15.607,18.291 Z" id="Shape"></path>
                </g>
            </g>
        </g>
    </g>
</svg>