<svg id="Layer_1" data-name="Layer 1" xmlns="http://www.w3.org/2000/svg" viewBox="0 0 184 51.89"><rect x="-0.14" width="184" height="52" fill="#1e76bd"/><path d="M19.63,39.61l3.83-9.21h1.77V41.73H24.07v-9.8h0l-4.1,9.8h-.61l-4.11-9.8h0v9.8H14V30.4H15.8Z" fill="#fff"/><path d="M29.46,31.36a.71.71,0,0,1-.24.55.75.75,0,0,1-1.06,0,.71.71,0,0,1-.24-.55.69.69,0,0,1,.24-.55.75.75,0,0,1,1.06,0A.69.69,0,0,1,29.46,31.36Zm-.24,10.37H28.16V34.24h1.06Z" fill="#fff"/><path d="M37.23,36a2.27,2.27,0,0,0-.76-.71A2.16,2.16,0,0,0,35.36,35a3,3,0,0,0-1.18.2,2.57,2.57,0,0,0-.89.63,2.66,2.66,0,0,0-.56.95A3.58,3.58,0,0,0,32.54,38a3.5,3.5,0,0,0,.19,1.19,2.55,2.55,0,0,0,1.45,1.58,2.79,2.79,0,0,0,1.18.21,2.16,2.16,0,0,0,1.11-.29,2.24,2.24,0,0,0,.76-.7l.87.65a3.63,3.63,0,0,1-1.27,1,3.75,3.75,0,0,1-1.47.33,4.15,4.15,0,0,1-1.65-.28,3.55,3.55,0,0,1-1.26-.83,3.62,3.62,0,0,1-.8-1.25A4.52,4.52,0,0,1,31.38,38a4.46,4.46,0,0,1,.27-1.57,3.57,3.57,0,0,1,.8-1.26,3.53,3.53,0,0,1,1.26-.82,4.15,4.15,0,0,1,1.65-.28,3.92,3.92,0,0,1,1.47.32,3.75,3.75,0,0,1,1.27,1Z" fill="#fff"/><path d="M39.6,36.57c0-.33,0-.66,0-1s0-.79,0-1.33h1v1.39h0a2.75,2.75,0,0,1,.32-.58,2.46,2.46,0,0,1,.51-.51,2.51,2.51,0,0,1,.69-.36,2.73,2.73,0,0,1,.89-.13,3,3,0,0,1,.78.09l-.2,1A1.91,1.91,0,0,0,43,35.1a2.26,2.26,0,0,0-1.05.23,2.62,2.62,0,0,0-.72.6,2.53,2.53,0,0,0-.42.77,2.64,2.64,0,0,0-.14.8v4.23H39.6Z" fill="#fff"/><path d="M52.11,38a4,4,0,0,1-.3,1.57,3.65,3.65,0,0,1-2.08,2.07,4.23,4.23,0,0,1-1.61.3,4.18,4.18,0,0,1-1.6-.3,3.71,3.71,0,0,1-1.26-.82,3.82,3.82,0,0,1-.82-1.25,4.26,4.26,0,0,1,0-3.14,3.78,3.78,0,0,1,.82-1.24,3.74,3.74,0,0,1,1.26-.83,4.38,4.38,0,0,1,1.6-.29,4.43,4.43,0,0,1,1.61.29,3.84,3.84,0,0,1,1.26.83,3.78,3.78,0,0,1,.82,1.24A4.07,4.07,0,0,1,52.11,38ZM51,38a3.27,3.27,0,0,0-.2-1.17,2.73,2.73,0,0,0-.57-.94,2.48,2.48,0,0,0-.89-.63A2.75,2.75,0,0,0,48.12,35a2.79,2.79,0,0,0-1.18.23,2.45,2.45,0,0,0-.88.63,2.86,2.86,0,0,0-.56.94A3.28,3.28,0,0,0,45.29,38a3.2,3.2,0,0,0,.21,1.17,2.77,2.77,0,0,0,.56.94,2.6,2.6,0,0,0,.88.64,3,3,0,0,0,1.18.23,2.91,2.91,0,0,0,1.17-.23,2.75,2.75,0,0,0,1.46-1.58A3.2,3.2,0,0,0,51,38Z" fill="#fff"/><path d="M58,36a2,2,0,0,0-.65-.73,1.68,1.68,0,0,0-1-.27,2.67,2.67,0,0,0-.56.06,1.69,1.69,0,0,0-.5.2,1.18,1.18,0,0,0-.36.34.94.94,0,0,0-.14.52.83.83,0,0,0,.37.76,3.68,3.68,0,0,0,1.11.42l1.07.26a2.52,2.52,0,0,1,1.31.71,1.87,1.87,0,0,1,.52,1.33,2.15,2.15,0,0,1-.25,1,2.08,2.08,0,0,1-.66.72,2.59,2.59,0,0,1-.94.41,4.29,4.29,0,0,1-1.07.13,3.93,3.93,0,0,1-1.61-.33,2.9,2.9,0,0,1-1.27-1.13l.91-.62a2.41,2.41,0,0,0,.81.81,2.07,2.07,0,0,0,1.16.31,3.48,3.48,0,0,0,.64-.07,2,2,0,0,0,.57-.23,1.15,1.15,0,0,0,.4-.39,1,1,0,0,0,.15-.56.89.89,0,0,0-.41-.81,4.09,4.09,0,0,0-1-.39l-1-.24a4.54,4.54,0,0,1-.52-.16,2.34,2.34,0,0,1-.64-.34,1.89,1.89,0,0,1-.54-.58,1.66,1.66,0,0,1-.22-.89,2.18,2.18,0,0,1,.23-1,1.92,1.92,0,0,1,.63-.7,2.8,2.8,0,0,1,.89-.41,3.86,3.86,0,0,1,1-.13,3.57,3.57,0,0,1,1.46.3,2.1,2.1,0,0,1,1,1Z" fill="#fff"/><path d="M61.6,38.27a3.18,3.18,0,0,0,.27,1.06,2.77,2.77,0,0,0,1.44,1.42,2.58,2.58,0,0,0,1,.21,2.69,2.69,0,0,0,1.47-.39,3,3,0,0,0,.94-.91l.82.67a4,4,0,0,1-1.49,1.22,4.09,4.09,0,0,1-1.74.37,3.92,3.92,0,0,1-1.54-.3,3.49,3.49,0,0,1-1.23-.82,4,4,0,0,1-.81-1.25,4,4,0,0,1-.3-1.57,4.26,4.26,0,0,1,.29-1.57,3.89,3.89,0,0,1,.8-1.24,3.73,3.73,0,0,1,1.21-.83,3.84,3.84,0,0,1,1.49-.29,3.72,3.72,0,0,1,1.52.3,3.24,3.24,0,0,1,1.13.81,3.49,3.49,0,0,1,.7,1.18,4.37,4.37,0,0,1,.24,1.45v.48Zm5.09-.86A2.24,2.24,0,0,0,64.26,35a2.45,2.45,0,0,0-1,.2,2.79,2.79,0,0,0-.84.53,2.89,2.89,0,0,0-.58.77,2,2,0,0,0-.21.9Z" fill="#fff"/><path d="M69.88,36.57c0-.33,0-.66,0-1s0-.79,0-1.33h1v1.39h0a2.36,2.36,0,0,1,.32-.58,2.46,2.46,0,0,1,.51-.51,2.51,2.51,0,0,1,.69-.36,2.73,2.73,0,0,1,.89-.13,3,3,0,0,1,.78.09l-.21,1a1.8,1.8,0,0,0-.6-.08,2.26,2.26,0,0,0-1,.23,2.36,2.36,0,0,0-.72.6,2.53,2.53,0,0,0-.42.77,2.64,2.64,0,0,0-.14.8v4.23H69.88Z" fill="#fff"/><path d="M78.39,41.73H77.21l-3-7.49h1.25l2.41,6.3h0l2.39-6.3h1.2Z" fill="#fff"/><path d="M84.36,31.36a.71.71,0,0,1-.24.55.75.75,0,0,1-1.06,0,.71.71,0,0,1-.24-.55.69.69,0,0,1,.24-.55.75.75,0,0,1,1.06,0A.69.69,0,0,1,84.36,31.36Zm-.24,10.37H83.06V34.24h1.06Z" fill="#fff"/><path d="M92.13,36a2.27,2.27,0,0,0-.76-.71A2.18,2.18,0,0,0,90.26,35a2.93,2.93,0,0,0-1.18.2,2.48,2.48,0,0,0-.89.63,2.66,2.66,0,0,0-.56.95,3.58,3.58,0,0,0-.2,1.19,3.5,3.5,0,0,0,.2,1.19,2.7,2.7,0,0,0,.56,1,2.59,2.59,0,0,0,.89.62,2.76,2.76,0,0,0,1.18.21,2.19,2.19,0,0,0,1.11-.29,2.24,2.24,0,0,0,.76-.7l.87.65a3.63,3.63,0,0,1-1.27,1,3.75,3.75,0,0,1-1.47.33,4.23,4.23,0,0,1-1.66-.28,3.62,3.62,0,0,1-2-2.08A4.52,4.52,0,0,1,86.28,38a4.46,4.46,0,0,1,.27-1.57,3.44,3.44,0,0,1,.8-1.26,3.49,3.49,0,0,1,1.25-.82,4.23,4.23,0,0,1,1.66-.28,3.92,3.92,0,0,1,1.47.32,3.75,3.75,0,0,1,1.27,1Z" fill="#fff"/><path d="M95.13,38.27a3.18,3.18,0,0,0,.27,1.06,2.77,2.77,0,0,0,1.44,1.42,2.59,2.59,0,0,0,1,.21,2.68,2.68,0,0,0,1.46-.39,2.93,2.93,0,0,0,.94-.91l.82.67a3.92,3.92,0,0,1-3.22,1.59,3.93,3.93,0,0,1-1.55-.3,3.49,3.49,0,0,1-1.23-.82,4,4,0,0,1-.81-1.25A4.22,4.22,0,0,1,94,38a4.06,4.06,0,0,1,.29-1.57,3.76,3.76,0,0,1,2-2.07,3.84,3.84,0,0,1,1.49-.29,3.68,3.68,0,0,1,1.52.3,3.24,3.24,0,0,1,1.13.81,3.33,3.33,0,0,1,.7,1.18,4.37,4.37,0,0,1,.24,1.45v.48Zm5.1-.86A2.26,2.26,0,0,0,97.79,35a2.43,2.43,0,0,0-1,.2,2.72,2.72,0,0,0-.85.53,2.66,2.66,0,0,0-.57.77,1.93,1.93,0,0,0-.22.9Z" fill="#fff"/><path d="M107.28,36a2.06,2.06,0,0,0-.64-.73,1.73,1.73,0,0,0-1-.27,2.57,2.57,0,0,0-.55.06,1.65,1.65,0,0,0-.51.2,1.18,1.18,0,0,0-.36.34.94.94,0,0,0-.14.52.85.85,0,0,0,.37.76,3.79,3.79,0,0,0,1.11.42l1.07.26a2.48,2.48,0,0,1,1.31.71,1.82,1.82,0,0,1,.52,1.33,2,2,0,0,1-.25,1,2,2,0,0,1-.65.72,2.75,2.75,0,0,1-.94.41,4.37,4.37,0,0,1-1.08.13,4,4,0,0,1-1.61-.33,3,3,0,0,1-1.27-1.13l.91-.62a2.61,2.61,0,0,0,.81.81,2.1,2.1,0,0,0,1.16.31,3.39,3.39,0,0,0,.64-.07,1.84,1.84,0,0,0,.57-.23,1.15,1.15,0,0,0,.4-.39,1,1,0,0,0,.16-.56.88.88,0,0,0-.42-.81,3.94,3.94,0,0,0-1-.39l-1-.24a5.25,5.25,0,0,1-.52-.16,2.34,2.34,0,0,1-.64-.34,1.75,1.75,0,0,1-.53-.58,1.66,1.66,0,0,1-.23-.89,2.18,2.18,0,0,1,.23-1,2.12,2.12,0,0,1,.63-.7,2.9,2.9,0,0,1,.89-.41,3.86,3.86,0,0,1,1-.13,3.53,3.53,0,0,1,1.46.3,2.1,2.1,0,0,1,1,1Z" fill="#fff"/><path d="M116.13,41.73H115V30.4h3.5a4.47,4.47,0,0,1,2.73.75,2.65,2.65,0,0,1,1,2.27,2.83,2.83,0,0,1-.74,2,3.19,3.19,0,0,1-2.16.94l3.27,5.38h-1.41l-3.11-5.27h-1.92Zm0-6.32h2.05a4.8,4.8,0,0,0,1.3-.16,2.39,2.39,0,0,0,.86-.43,1.49,1.49,0,0,0,.47-.62,2.21,2.21,0,0,0,.14-.78,2.18,2.18,0,0,0-.14-.76,1.58,1.58,0,0,0-.47-.63,2.23,2.23,0,0,0-.86-.42,4.8,4.8,0,0,0-1.3-.16h-2.05Z" fill="#fff"/><path d="M129.51,41.73c0-.21,0-.41,0-.6s0-.4,0-.6h0a2.64,2.64,0,0,1-.45.56,3.07,3.07,0,0,1-.61.44,2.92,2.92,0,0,1-.71.28,2.78,2.78,0,0,1-.75.11,2.73,2.73,0,0,1-2.13-.76,3.12,3.12,0,0,1-.69-2.17V34.24h1.06v4.14a5.26,5.26,0,0,0,.1,1.11,1.88,1.88,0,0,0,.33.8,1.4,1.4,0,0,0,.62.5,2.55,2.55,0,0,0,1,.17,3,3,0,0,0,.44-.07,1.91,1.91,0,0,0,.78-.35,2.43,2.43,0,0,0,.73-.86,3.27,3.27,0,0,0,.32-1.6V34.24h1.06v5.84c0,.2,0,.46,0,.77s0,.6.06.88Z" fill="#fff"/><path d="M134,34.24a4,4,0,0,1,0,.6c0,.2,0,.4,0,.6h0a2.64,2.64,0,0,1,.45-.56,3.26,3.26,0,0,1,.61-.44,3.74,3.74,0,0,1,.72-.29,3.21,3.21,0,0,1,2.87.66,3.1,3.1,0,0,1,.69,2.16v4.76h-1.06V37.58a3.49,3.49,0,0,0-.43-1.91,1.77,1.77,0,0,0-1.6-.66l-.45.06a1.91,1.91,0,0,0-.78.35,2.59,2.59,0,0,0-.73.87,3.33,3.33,0,0,0-.32,1.6v3.84H133V35.89c0-.21,0-.46,0-.77s0-.6-.06-.88Z" fill="#fff"/><path d="M145.8,35.2h-2.17v4.41a2.48,2.48,0,0,0,.08.68.94.94,0,0,0,.23.41.66.66,0,0,0,.34.2,1.51,1.51,0,0,0,.44.06,2.23,2.23,0,0,0,.56-.08,2.09,2.09,0,0,0,.53-.21l.05,1a3.44,3.44,0,0,1-1.43.27,2.86,2.86,0,0,1-.63-.08,1.44,1.44,0,0,1-.6-.31,1.66,1.66,0,0,1-.45-.6,2.44,2.44,0,0,1-.18-1V35.2H141v-1h1.58V32.13h1.06v2.11h2.17Z" fill="#fff"/><path d="M148.78,31.36a.71.71,0,0,1-.24.55.75.75,0,0,1-1.06,0,.71.71,0,0,1-.24-.55.69.69,0,0,1,.24-.55.75.75,0,0,1,1.06,0A.69.69,0,0,1,148.78,31.36Zm-.24,10.37h-1.06V34.24h1.06Z" fill="#fff"/><path d="M151.09,35.9c0-.27,0-.55,0-.83s0-.55-.06-.83h1.14v1.13h0a2.53,2.53,0,0,1,1.06-1,3.12,3.12,0,0,1,1.36-.33,3.93,3.93,0,0,1,.65.06,2.23,2.23,0,0,1,1.26.7,2.44,2.44,0,0,1,.47.79,2.56,2.56,0,0,1,1-1.14,2.87,2.87,0,0,1,1.45-.41,2.73,2.73,0,0,1,2.13.76,3.1,3.1,0,0,1,.69,2.16v4.76h-1.05V37.36a3.26,3.26,0,0,0-.4-1.75,1.68,1.68,0,0,0-1.5-.6,1.84,1.84,0,0,0-1.64.84,3,3,0,0,0-.36.88,4.74,4.74,0,0,0-.11,1v4h-1.06V37.36a3.17,3.17,0,0,0-.4-1.75,1.66,1.66,0,0,0-1.49-.6l-.44.06a1.62,1.62,0,0,0-.71.35,2.5,2.5,0,0,0-.67.87,3.48,3.48,0,0,0-.3,1.6v3.84h-1Z" fill="#fff"/><path d="M165.48,38.27a3.18,3.18,0,0,0,.27,1.06,2.77,2.77,0,0,0,1.44,1.42,2.63,2.63,0,0,0,1.05.21,2.68,2.68,0,0,0,1.46-.39,2.93,2.93,0,0,0,.94-.91l.82.67A4,4,0,0,1,170,41.55a4.09,4.09,0,0,1-1.74.37,3.93,3.93,0,0,1-1.55-.3,3.59,3.59,0,0,1-1.23-.82,4,4,0,0,1-.81-1.25,4.22,4.22,0,0,1-.29-1.57,4.06,4.06,0,0,1,.29-1.57,3.73,3.73,0,0,1,.8-1.24,3.59,3.59,0,0,1,1.2-.83,3.88,3.88,0,0,1,1.49-.29,3.68,3.68,0,0,1,1.52.3,3.24,3.24,0,0,1,1.13.81,3.33,3.33,0,0,1,.7,1.18,4.37,4.37,0,0,1,.24,1.45v.48Zm5.1-.86a2.46,2.46,0,0,0-3.43-2.2,3,3,0,0,0-.85.53,2.66,2.66,0,0,0-.57.77,1.93,1.93,0,0,0-.22.9Z" fill="#fff"/><path d="M12.5,12.79h2.72L17,20.06h0l2.37-7.27h2.33l2.35,7.46h0l1.91-7.46h2.53L25.28,24.12H23.05l-2.5-7.84h0L18,24.12H15.87Z" fill="#fff"/><path d="M29.72,12.79h7.71V15.1h-5.2v2.11h4.92v2.3H32.23v2.31h5.49v2.3h-8Z" fill="#fff"/><path d="M39.69,12.79h4.23a10.64,10.64,0,0,1,1.48.11,4,4,0,0,1,1.34.41,2.59,2.59,0,0,1,1,.87,2.65,2.65,0,0,1,.37,1.49,2.36,2.36,0,0,1-.54,1.59,2.89,2.89,0,0,1-1.42.91v0a3.2,3.2,0,0,1,1,.31,2.77,2.77,0,0,1,.79.59,2.53,2.53,0,0,1,.5.84,2.94,2.94,0,0,1,.18,1,2.66,2.66,0,0,1-.39,1.49,2.87,2.87,0,0,1-1,1,4.35,4.35,0,0,1-1.37.53,7.11,7.11,0,0,1-1.51.16H39.69Zm2.5,4.53H44a2.76,2.76,0,0,0,.57-.06,2,2,0,0,0,.5-.21,1.12,1.12,0,0,0,.36-.39,1.15,1.15,0,0,0,.14-.57,1.08,1.08,0,0,0-.15-.59,1.16,1.16,0,0,0-.4-.36,2.14,2.14,0,0,0-.54-.18,3,3,0,0,0-.59-.06h-1.7Zm0,4.69h2.24a2.44,2.44,0,0,0,.59-.07,1.46,1.46,0,0,0,.53-.22,1.34,1.34,0,0,0,.4-.42,1.19,1.19,0,0,0,.15-.62,1,1,0,0,0-.2-.65,1.27,1.27,0,0,0-.51-.37,2.32,2.32,0,0,0-.65-.18,5.42,5.42,0,0,0-.66-.05H42.19Z" fill="#fff"/><path d="M50.19,12.79H54l2.62,7.39h0l2.63-7.39H63V24.12h-2.5V15.43h0l-3,8.69H55.59l-2.87-8.69h0v8.69h-2.5Z" fill="#fff"/><path d="M65.37,12.79h7.71V15.1H67.87v2.11h4.92v2.3H67.87v2.31h5.5v2.3h-8Z" fill="#fff"/><path d="M77.46,15H74.22V12.79h9V15H80v9.12h-2.5Z" fill="#fff"/><path d="M84.35,12.79h2.5V17h4.86V12.79h2.5V24.12h-2.5v-4.9H86.85v4.9h-2.5Z" fill="#fff"/><path d="M95.89,18.46A6.51,6.51,0,0,1,96.34,16a5.42,5.42,0,0,1,3.22-3.07,7.36,7.36,0,0,1,4.9,0A5.42,5.42,0,0,1,107.68,16a7,7,0,0,1,0,4.93,5.41,5.41,0,0,1-1.28,1.88A5.55,5.55,0,0,1,104.46,24a7.36,7.36,0,0,1-4.9,0,5.55,5.55,0,0,1-1.94-1.19,5.41,5.41,0,0,1-1.28-1.88A6.49,6.49,0,0,1,95.89,18.46Zm2.59,0a4.26,4.26,0,0,0,.25,1.46,3.4,3.4,0,0,0,.72,1.15,3.18,3.18,0,0,0,1.11.76,4,4,0,0,0,2.9,0,3.22,3.22,0,0,0,1.12-.76,3.54,3.54,0,0,0,.71-1.15,4.39,4.39,0,0,0,0-2.92,3.58,3.58,0,0,0-.71-1.16,3.22,3.22,0,0,0-1.12-.76,4,4,0,0,0-2.9,0,3.18,3.18,0,0,0-1.11.76A3.44,3.44,0,0,0,98.73,17,4.3,4.3,0,0,0,98.48,18.46Z" fill="#fff"/><path d="M109.81,12.79h3.75a10.38,10.38,0,0,1,2.59.31,5.92,5.92,0,0,1,2.14,1,4.77,4.77,0,0,1,1.45,1.77,5.86,5.86,0,0,1,.54,2.64,5.18,5.18,0,0,1-1.92,4.18,6,6,0,0,1-2,1.08,7.8,7.8,0,0,1-2.42.37h-4.09Zm2.5,9h1.3a6.78,6.78,0,0,0,1.61-.18,3.47,3.47,0,0,0,1.29-.58,2.79,2.79,0,0,0,.86-1.08,3.75,3.75,0,0,0,.31-1.62,3.16,3.16,0,0,0-.31-1.45,2.86,2.86,0,0,0-.84-1,3.58,3.58,0,0,0-1.24-.6,5.33,5.33,0,0,0-1.5-.2h-1.48Z" fill="#fff"/><path d="M127.41,15.56a1.69,1.69,0,0,0-.82-.57,3.06,3.06,0,0,0-1-.18,2.74,2.74,0,0,0-.56.06,2.49,2.49,0,0,0-.54.2,1.22,1.22,0,0,0-.42.36.9.9,0,0,0-.16.55.91.91,0,0,0,.38.78,3.5,3.5,0,0,0,1,.46l1.26.39a5.44,5.44,0,0,1,1.26.54,3,3,0,0,1,1,1,2.82,2.82,0,0,1,.39,1.58,3.58,3.58,0,0,1-.36,1.65,3.3,3.3,0,0,1-.95,1.17,4.06,4.06,0,0,1-1.4.68,6,6,0,0,1-1.67.23,5.92,5.92,0,0,1-2-.34A5,5,0,0,1,121,23L122.73,21a2.57,2.57,0,0,0,1,.79,2.75,2.75,0,0,0,1.21.28,2.62,2.62,0,0,0,.62-.07,2.17,2.17,0,0,0,.56-.21,1.19,1.19,0,0,0,.4-.37.94.94,0,0,0,.15-.53,1,1,0,0,0-.39-.81,3.9,3.9,0,0,0-1-.5L124,19.19a5.65,5.65,0,0,1-1.28-.56,3,3,0,0,1-1-.93,2.58,2.58,0,0,1-.4-1.52,3.43,3.43,0,0,1,.36-1.6,3.59,3.59,0,0,1,1-1.15,4.07,4.07,0,0,1,1.38-.69,5.58,5.58,0,0,1,1.62-.24,6.12,6.12,0,0,1,1.86.28,4.21,4.21,0,0,1,1.62.91Z" fill="#fff"/></svg>