<svg xmlns="http://www.w3.org/2000/svg" width="24" height="26" viewBox="0 0 24 26">
  <path fill="#333" d="M0,0 L0,23.8333333 L7.58333333,23.8333333 L7.58333333,21.6666667 L2.16666667,21.6666667 L2.16666667,2.16666667 L21.6666667,2.16666667 L21.6666667,21.6666667 L16.25,21.6666667 L16.25,23.8333333 L23.8333333,23.8333333 L23.8333333,0 L0,0 Z M11.9166667,4.33333333 C7.75260417,4.33333333 4.33333333,7.75260417 4.33333333,11.9166667 C4.33333333,14.9296875 6.15299533,17.4433599 8.66666667,18.7213542 L8.66666667,26 L10.8333333,26 L10.8333333,17.3671875 L10.15625,17.0963542 C8.05306017,16.2753912 6.5,14.2610683 6.5,11.9166667 C6.5,8.9332685 8.9332685,6.5 11.9166667,6.5 C14.9000648,6.5 17.3333333,8.9332685 17.3333333,11.9166667 C17.3333333,14.3880208 15.7760417,16.3430995 13.7109375,17.0625 L13,17.3333333 L13,26 L15.1666667,26 L15.1666667,18.7552083 C17.6930336,17.5491539 19.5,14.9973958 19.5,11.9166667 C19.5,7.75260417 16.0807292,4.33333333 11.9166667,4.33333333 Z"/>
</svg>
