<svg xmlns="http://www.w3.org/2000/svg" width="25" height="26" viewBox="0 0 25 26">
  <path fill="#333" d="M2.73684211,0 C1.24107196,0 0,1.24107196 0,2.73684211 L0,21.8947368 C0,23.3905073 1.24107196,24.6315789 2.73684211,24.6315789 L8.21052632,24.6315789 L8.21052632,26 L10.9473684,26 L10.9473684,12.3157895 L8.21052632,12.3157895 L8.21052632,15.9346214 C7.36124507,14.9723066 6.84210526,13.7086793 6.84210526,12.3157895 C6.84210526,9.27738213 9.27738213,6.84210526 12.3157895,6.84210526 C15.3541974,6.84210526 17.7894737,9.27738213 17.7894737,12.3157895 C17.7894737,13.7086793 17.2703344,14.9723066 16.4210526,15.9346214 L16.4210526,12.3157895 L13.6842105,12.3157895 L13.6842105,26 L16.4210526,26 L16.4210526,24.6315789 L21.8947368,24.6315789 C23.3905073,24.6315789 24.6315789,23.3905073 24.6315789,21.8947368 L24.6315789,2.73684211 C24.6315789,1.24107196 23.3905073,0 21.8947368,0 L2.73684211,0 Z M2.73684211,2.73684211 L21.8947368,2.73684211 L21.8947368,21.8947368 L16.4210526,21.8947368 L16.4210526,19.4091286 C18.8729293,17.9857778 20.5263158,15.3408662 20.5263158,12.3157895 C20.5263158,7.79777577 16.8338026,4.10526316 12.3157895,4.10526316 C7.79777577,4.10526316 4.10526316,7.79777577 4.10526316,12.3157895 C4.10526316,15.3408662 5.75864968,17.9857778 8.21052632,19.4091286 L8.21052632,21.8947368 L2.73684211,21.8947368 L2.73684211,2.73684211 Z"/>
</svg>
