<svg xmlns="http://www.w3.org/2000/svg" width="24" height="24" viewBox="0 0 24 24">
  <path fill="#333" d="M12,0.350852273 L8.29261364,7.86363636 L0,9.06960233 L6,14.918324 L4.58309662,23.1747156 L12,19.2776993 L19.4169033,23.1747156 L18,14.918324 L24,9.06960233 L15.7073869,7.86576702 L12,0.350852273 Z M12,4.0475852 L14.2414778,8.58806818 L14.6207389,9.35937505 L15.4730116,9.48295455 L20.4822447,10.2095175 L16.855824,13.7443182 L16.2400571,14.3451702 L16.3849429,15.1931818 L17.2414778,20.1832389 L12.7606538,17.826704 L12,17.4282669 L11.2393462,17.8288356 L6.75639207,20.1853695 L7.61292611,15.1953124 L7.75781247,14.3473007 L7.14204545,13.7464487 L3.51562495,10.211648 L8.52698858,9.48295455 L9.37926131,9.35937505 L9.75852273,8.58806818 L12,4.0475852 Z M10.9090909,9.09090909 L10.9090909,11.2727273 L8.72727273,11.2727273 L8.72727273,13.4545455 L10.9090909,13.4545455 L10.9090909,15.6363636 L13.0909091,15.6363636 L13.0909091,13.4545455 L15.2727273,13.4545455 L15.2727273,11.2727273 L13.0909091,11.2727273 L13.0909091,9.09090909 L10.9090909,9.09090909 Z"/>
</svg>
