<?xml version="1.0" encoding="UTF-8"?>
<svg width="222.31mm" height="259.21mm" version="1.1" viewBox="0 0 222.31 259.21" xmlns="http://www.w3.org/2000/svg" xmlns:cc="http://creativecommons.org/ns#" xmlns:dc="http://purl.org/dc/elements/1.1/" xmlns:rdf="http://www.w3.org/1999/02/22-rdf-syntax-ns#">
 <metadata>
  <rdf:RDF>
   <cc:Work rdf:about="">
    <dc:format>image/svg+xml</dc:format>
    <dc:type rdf:resource="http://purl.org/dc/dcmitype/StillImage"/>
    <dc:title/>
   </cc:Work>
  </rdf:RDF>
 </metadata>
 <g transform="translate(114.17 51.122)">
  <path d="m-14.136 207.85c-43.111-2.0921-80.393-16.642-94.171-36.751-2.9142-4.2534-4.723-8.5946-5.4509-13.082-0.55165-3.4012-0.54621-38.442 6e-3 -35.399 1.2493 6.892 4.69 13.029 10.716 19.115 15.569 15.722 45.047 26.69 80.301 29.877 10.571 0.95569 27.507 1.0305 37.703 0.16652 24.106-2.0427 44.667-7.3112 61.516-15.762 5.7434-2.8809 9.2118-4.9879 13.495-8.1981 10.23-7.667 16.048-15.937 17.726-25.198 0.55138-3.0418 0.55725 32.002 6e-3 35.384-4.0056 24.574-40.896 44.632-90.494 49.203-9.5591 0.88103-21.44 1.1251-31.353 0.64402zm0-57.414c-18.094-0.87394-36.118-4.0845-51.225-9.1246-8.793-2.9336-18.923-7.5539-25.194-11.491-13.399-8.412-21.478-18.586-23.202-29.218-0.55165-3.4012-0.54621-38.442 6e-3 -35.399 1.2493 6.892 4.69 13.029 10.716 19.115 15.569 15.722 45.047 26.69 80.301 29.877 10.571 0.9557 27.507 1.0305 37.703 0.16653 24.106-2.0427 44.667-7.3112 61.516-15.762 5.7434-2.8809 9.2118-4.9879 13.495-8.1981 10.23-7.667 16.048-15.937 17.726-25.198 0.55138-3.0418 0.55725 32.002 6e-3 35.384-1.7346 10.642-9.8236 20.833-23.203 29.232-3.8449 2.4139-12.566 6.7527-17.417 8.6651-23.187 9.1407-51.911 13.367-81.227 11.951zm0-57.416c-43.111-2.0921-80.393-16.642-94.171-36.751-2.9142-4.2534-4.723-8.5946-5.4509-13.082-0.31785-1.9597-0.38222-5.7666-0.35367-20.917 0.0236-12.5 0.10989-17.704 0.26555-16.007 1.1154 12.156 11.184 24.076 28.143 33.318 18.377 10.015 43.276 16.244 71.038 17.771 7.0306 0.38666 23.733 0.15948 29.898-0.40667 24.335-2.2346 43.993-7.2515 60.722-15.496 14.348-7.0714 24.229-15.77 28.988-25.519 2.4473-5.014 2.7535-6.416 2.7476-12.578-5e-3 -4.8391-0.0495-5.3072-0.72165-7.5406-4.0188-13.353-17.14-25.034-38.053-33.875-4.7335-2.0011-14.026-5.0842-20.213-6.7062-2.7649-0.72489-4.855-1.3265-4.6447-1.3368 0.74473-0.03665 9.7352 2.4166 14.17 3.8665 17.621 5.7613 30.494 13.062 39.44 22.368 5.4438 5.6627 8.677 11.4 10.033 17.804 0.5771 2.7245 0.58616 41.709 0.0105 45.24-4.0056 24.574-40.896 44.632-90.494 49.203-9.5591 0.88104-21.44 1.1251-31.353 0.64402zm2.3812-58.337c-0.50933-0.056-2.4143-0.23278-4.2333-0.3929s-5.3589-0.63297-7.8664-1.0508c-30.042-5.0057-48.291-19.906-43.073-35.168 2.6459-7.739 10.806-14.583 23.29-19.535 8.5774-3.4023 18.423-5.5616 29.898-6.5573 6.1583-0.53434 19.132-0.39593 24.739 0.26392 19.665 2.3145 35.453 8.4036 44.065 16.995 11.87 11.841 7.7568 25.769-10.488 35.517-6.9554 3.7163-16.703 6.8249-26.565 8.4714-7.0415 1.1757-10.066 1.4047-19.579 1.4828-5.0932 0.0418-9.6771 0.0302-10.186-0.0258zm-102.31-33.711c0-0.80036 0.0496-1.1278 0.11022-0.7276 0.0606 0.40018 0.0606 1.055 0 1.4552s-0.11022 0.0728-0.11022-0.72761zm0.23687-2.249c5e-3 -0.43657 0.0647-0.58313 0.13178-0.3257 0.0671 0.25743 0.0627 0.61462-0.01 0.79375-0.0725 0.17913-0.12736-0.0315-0.12197-0.46805zm0.22709-1.2431c-0.0277-0.88313 1.3925-4.8834 2.5645-7.2236 3.2995-6.588 9.7297-13.474 17.456-18.695 5.8321-3.9402 13.178-7.756 20.446-10.621 4.5424-1.7906 13.474-4.7758 15.081-5.0404l0.92604-0.15249-0.92604 0.29305c-6.5598 2.0759-14.062 4.6924-16.906 5.8957-15.024 6.3589-25.748 13.94-32.58 23.033-1.9699 2.6217-4.5465 7.7299-5.4028 10.711-0.35526 1.2369-0.65227 2.0467-0.66001 1.7996zm57.635-42.168c1.6708-0.52455 10.053-2.4472 11.431-2.6219 0.64157-0.08136-1.0957 0.3768-3.8606 1.0181-2.7649 0.64132-5.7586 1.3583-6.6528 1.5933-1.9536 0.51343-2.5411 0.52017-0.91779 0.01053zm95.941-2.1199c-1.4552-0.34654-2.11-0.56604-1.4552-0.48778 1.4587 0.17432 5.3651 1.1172 4.6302 1.1176-0.29104 1.55e-4 -1.7198-0.28325-3.175-0.62978zm-82.55-0.90299c0.43656-0.11109 1.0914-0.20198 1.4552-0.20198 0.59002 0 0.57573 0.02181-0.1323 0.20198-0.43656 0.11109-1.0914 0.20198-1.4552 0.20198-0.59003 0-0.57574-0.02181 0.13229-0.20198zm77.788 0c-0.70803-0.18016-0.72232-0.20198-0.13229-0.20198 0.3638 0 1.0186 0.09089 1.4552 0.20198 0.70803 0.18016 0.72232 0.20198 0.1323 0.20198-0.36381 0-1.0186-0.09089-1.4552-0.20198zm-74.877-0.52917c0.43657-0.11109 1.1509-0.20237 1.5875-0.20285 0.66737-7.41e-4 0.62525 0.03398-0.26458 0.21803-1.3403 0.27722-2.4232 0.2648-1.3229-0.01518zm71.834 0c-0.89277-0.18792-0.89752-0.19505-0.13229-0.19845 0.43656-0.0019 1.1509 0.08736 1.5875 0.19845 0.7043 0.17922 0.71921 0.20158 0.13229 0.19845-0.3638-0.0019-1.0782-0.09124-1.5875-0.19845zm-67.469-0.67816c1.0914-0.19083 2.3416-0.34019 2.7781-0.33191 0.43657 0.0083-0.15875 0.17045-1.3229 0.3604-1.1642 0.18994-2.4143 0.3393-2.7781 0.33191-0.3638-0.0074 0.23151-0.16957 1.3229-0.3604zm64.029 0.149c-0.70262-0.14789-0.76645-0.19965-0.26459-0.2145 0.3638-0.01077 1.1377 0.07893 1.7198 0.19933 0.88222 0.18248 0.92625 0.21818 0.26459 0.2145-0.43657-0.0024-1.2105-0.09212-1.7198-0.19933zm-2.4443-0.45171c0.32912-0.06329 0.80537-0.06088 1.0583 0.0053 0.25296 0.06622-0.0163 0.118-0.5984 0.11507-0.58208-0.0029-0.78905-0.05712-0.45994-0.12041zm-56.822-0.35554c0.65484-0.11652 1.6073-0.20477 2.1167-0.19612 0.75722 0.01287 0.68487 0.0533-0.39688 0.22179-1.8173 0.28306-3.3281 0.2605-1.7198-0.02568zm53.181 0.01351c-1.0825-0.1683-1.1065-0.18693-0.26458-0.20523 0.50932-0.01107 1.4618 0.07521 2.1167 0.19173 1.0635 0.18924 1.0918 0.21115 0.26459 0.20523-0.50933-0.0036-1.4618-0.08992-2.1167-0.19173zm-49.407-0.45444c0.40218-0.06082 0.99749-0.05919 1.3229 0.0036 0.32542 0.0628-4e-3 0.11256-0.73125 0.11057-0.7276-2e-3 -0.99385-0.05337-0.59167-0.11418zm46.302 0c0.40219-0.06082 0.9975-0.05919 1.3229 0.0036 0.32542 0.0628-4e-3 0.11256-0.73124 0.11057-0.72761-2e-3 -0.99386-0.05337-0.59168-0.11418zm-43.66-0.26423c0.40019-0.06062 1.055-0.06062 1.4552 0 0.40019 0.06062 0.0728 0.11022-0.7276 0.11022-0.80037 0-1.1278-0.0496-0.72761-0.11022zm40.746 0c0.40018-0.06062 1.055-0.06062 1.4552 0 0.40018 0.06062 0.0728 0.11022-0.72761 0.11022-0.80036 0-1.1278-0.0496-0.7276-0.11022zm-37.703-0.26647c0.47295-0.05869 1.2468-0.05869 1.7198 0 0.47295 0.05869 0.086 0.10671-0.85989 0.10671s-1.3328-0.04802-0.8599-0.10671zm34.396 0c0.47294-0.05869 1.2468-0.05869 1.7198 0s0.086 0.10671-0.8599 0.10671c-0.94588 0-1.3328-0.04802-0.85989-0.10671zm-30.685-0.26726c0.62231-0.05589 1.5748-0.05511 2.1167 0.0017 0.54186 0.05685 0.0327 0.10258-1.1315 0.10162s-1.6075-0.04748-0.9852-0.10337zm26.723 0c0.62231-0.05589 1.5748-0.05511 2.1167 0.0017 0.54185 0.05685 0.0327 0.10258-1.1315 0.10162-1.1642-9.61e-4 -1.6075-0.04748-0.98519-0.10337zm-21.161-0.26756c1.2075-0.04914 3.1125-0.04886 4.2333 6.08e-4 1.1209 0.04947 0.13295 0.08968-2.1954 0.08934-2.3283-3.35e-4 -3.2454-0.04081-2.038-0.08995zm13.494 0c1.2075-0.04914 3.1125-0.04886 4.2333 6.08e-4 1.1209 0.04947 0.13295 0.08968-2.1954 0.08934-2.3283-3.35e-4 -3.2454-0.04081-2.038-0.08995z" stroke-width=".26458"/>
 </g>
</svg>
