<svg xmlns="http://www.w3.org/2000/svg" width="26" height="26" viewBox="0 0 26 26">
  <path fill="#333" d="M12.6635294,0 C5.70109066,0 0,5.70109066 0,12.6635294 C0,19.6259682 5.70109066,25.3270588 12.6635294,25.3270588 C19.6259682,25.3270588 25.3270588,19.6259682 25.3270588,12.6635294 C25.3270588,5.70109066 19.6259682,0 12.6635294,0 Z M12.6635294,1.10117647 C19.025326,1.10117647 24.2258824,6.30173287 24.2258824,12.6635294 C24.2258824,19.025326 19.025326,24.2258824 12.6635294,24.2258824 C6.30173287,24.2258824 1.10117647,19.025326 1.10117647,12.6635294 C1.10117647,6.30173287 6.30173287,1.10117647 12.6635294,1.10117647 Z M12.6549265,2.13568012 C12.5089004,2.13795856 12.3697606,2.19815398 12.2681179,2.30302338 C12.1664753,2.40789277 12.1106563,2.54884528 12.1129412,2.6948713 L12.1129412,3.82830882 C12.110133,4.02687072 12.214456,4.21156303 12.3859629,4.31166347 C12.5574698,4.41176392 12.769589,4.41176392 12.9410959,4.31166347 C13.1126028,4.21156303 13.2169258,4.02687072 13.2141176,3.82830882 L13.2141176,2.6948713 C13.2164493,2.54586201 13.1582837,2.40227078 13.0529054,2.29689241 C12.947527,2.19151403 12.8039358,2.13334846 12.6549265,2.13568012 Z M7.64909,3.469136 C7.45502011,3.47985932 7.28097896,3.59210167 7.19115486,3.76446681 C7.10133076,3.93683196 7.10903087,4.14378456 7.2114153,4.30899818 L7.80286765,5.29511057 C7.90278681,5.46652271 8.08719587,5.57092619 8.28558841,5.5684037 C8.48398095,5.56588121 8.66567592,5.45682285 8.7612046,5.28292566 C8.85673328,5.10902847 8.85132234,4.89718534 8.74704058,4.72839175 L8.15558824,3.74227941 C8.05154618,3.56323652 7.85585167,3.45770276 7.64909,3.469136 L7.64909,3.469136 Z M17.6618382,3.469136 C17.4607625,3.46378546 17.2727686,3.56850137 17.1714706,3.74227941 L16.5800182,4.72839175 C16.4757365,4.89718534 16.4703255,5.10902847 16.5658542,5.28292566 C16.6613829,5.45682285 16.8430779,5.56588121 17.0414704,5.5684037 C17.2398629,5.57092619 17.424272,5.46652271 17.5241912,5.29511057 L18.1156435,4.30899818 C18.219207,4.14136768 18.2253063,3.93117577 18.1316376,3.75782198 C18.0379688,3.58446819 17.8588101,3.47437734 17.6618382,3.469136 Z M4.05198529,7.07161765 C3.80831156,7.08333528 3.60139458,7.25398986 3.54351352,7.49097925 C3.48563246,7.72796864 3.59058655,7.974793 3.80142465,8.09751824 L4.78753649,8.68897059 C4.95651209,8.79821967 5.17162333,8.80660089 5.34858696,8.71083038 C5.52555059,8.61505987 5.63618464,8.43038936 5.63714757,8.22917504 C5.638098,8.02796073 5.52922496,7.84224656 5.35318001,7.74479766 L4.367068,7.15334586 C4.27267653,7.09497305 4.16284915,7.0664853 4.05198529,7.07161765 L4.05198529,7.07161765 Z M20.9374082,7.15764706 C20.8647159,7.15565533 20.7923491,7.16808192 20.7244853,7.19420942 L11.9215259,10.5869947 C11.8170708,10.6273807 11.7274132,10.6986565 11.6645129,10.7913141 C10.9742763,11.158698 10.4611765,11.823639 10.4611765,12.6635294 C10.4611765,13.8802215 11.4468373,14.8658824 12.6635294,14.8658824 C13.0439259,14.8658824 13.3562283,14.6902117 13.6657718,14.5249906 C13.8044542,14.530314 13.9400321,14.4830731 14.045377,14.3927206 L21.2826012,8.12440237 C21.4543478,7.97572768 21.5171703,7.73684588 21.4407837,7.52291564 C21.364397,7.3089854 21.1644803,7.16391817 20.9374082,7.15764706 Z M18.17909,9.3556988 L13.3894024,13.504467 C13.3742275,13.5137849 13.3595135,13.5238334 13.3453124,13.5345771 C13.1580215,13.6792166 12.9333672,13.7647059 12.6635294,13.7647059 C12.0082215,13.7647059 11.5623529,13.3188373 11.5623529,12.6635294 C11.5623529,12.1443759 11.854424,11.7738377 12.2946782,11.6279506 C12.3236038,11.6181111 12.3516602,11.6058813 12.3785571,11.5913877 L18.17909,9.3556988 Z M2.75294118,12.0548712 C2.55437928,12.052063 2.36968697,12.1563861 2.26958653,12.3278929 C2.16948608,12.4993998 2.16948608,12.711519 2.26958653,12.8830259 C2.36968697,13.0545328 2.55437928,13.1588558 2.75294118,13.1560477 L3.88745406,13.1560477 C4.08601595,13.1588558 4.27070827,13.0545328 4.37080871,12.8830259 C4.47090915,12.711519 4.47090915,12.4993998 4.37080871,12.3278929 C4.27070827,12.1563861 4.08601595,12.052063 3.88745406,12.0548712 L2.75294118,12.0548712 Z M21.4396047,12.0548712 C21.2410428,12.052063 21.0563505,12.1563861 20.9562501,12.3278929 C20.8561496,12.4993998 20.8561496,12.711519 20.9562501,12.8830259 C21.0563505,13.0545328 21.2410428,13.1588558 21.4396047,13.1560477 L22.5741176,13.1560477 C22.7726795,13.1588558 22.9573719,13.0545328 23.0574723,12.8830259 C23.1575727,12.711519 23.1575727,12.4993998 23.0574723,12.3278929 C22.9573719,12.1563861 22.7726795,12.052063 22.5741176,12.0548712 L21.4396047,12.0548712 Z M5.08541353,16.4391453 C4.98035736,16.4374103 4.87699787,16.4657688 4.78753649,16.520873 L3.80142465,17.1134006 C3.63001208,17.2133195 3.52560818,17.3977287 3.52813053,17.5961215 C3.53065289,17.7945143 3.63971141,17.9762096 3.81360889,18.0717383 C3.98750637,18.167267 4.1993498,18.1618558 4.36814341,18.0575735 L5.35425531,17.4650459 C5.56743981,17.3403783 5.67154735,17.089022 5.60894405,16.8501277 C5.54634075,16.6112334 5.33234043,16.4432387 5.08541353,16.4391453 Z M20.2255147,16.4391453 C19.9814652,16.4499952 19.7737398,16.6203417 19.7153101,16.8575416 C19.6568803,17.0947416 19.7617166,17.3420818 19.9728035,17.4650459 L20.9589153,18.0575735 C21.1277089,18.1618553 21.339552,18.1672662 21.5134492,18.0717375 C21.6873464,17.9762089 21.7964048,17.7945139 21.7989273,17.5961214 C21.8014497,17.3977288 21.6970463,17.2133198 21.5256341,17.1134006 L20.5395223,16.520873 C20.4454374,16.4627104 20.3360168,16.4342311 20.2255147,16.4391453 Z"/>
</svg>
