<svg xmlns="http://www.w3.org/2000/svg" width="5" height="18" viewBox="0 0 5 18">
  <path fill="#333" d="M2.4,0 C1.0796876,0 0,1.0796876 0,2.4 C0,3.7203124 1.0796876,4.8 2.4,4.8 C3.7203124,4.8 4.8,3.7203124 4.8,2.4 C4.8,1.0796876 3.7203124,0 2.4,0 Z M2.4,6.4 C1.0796876,6.4 0,7.4796876 0,8.8 C0,10.1203124 1.0796876,11.2 2.4,11.2 C3.7203124,11.2 4.8,10.1203124 4.8,8.8 C4.8,7.4796876 3.7203124,6.4 2.4,6.4 Z M2.4,12.8 C1.0796876,12.8 0,13.8796876 0,15.2 C0,16.5203124 1.0796876,17.6 2.4,17.6 C3.7203124,17.6 4.8,16.5203124 4.8,15.2 C4.8,13.8796876 3.7203124,12.8 2.4,12.8 Z"/>
</svg>
