<svg xmlns="http://www.w3.org/2000/svg" width="34" height="30" viewBox="0 0 34 30">
  <g fill="none" fill-rule="evenodd">
    <path fill="#333" fill-rule="nonzero" d="M0,0 L0,21 L16,21 L16,0 L0,0 Z M2,2 L14,2 L14,19 L2,19 L2,2 Z M4,4 L4,6 L12,6 L12,4 L4,4 Z M4,8 L4,10 L12,10 L12,8 L4,8 Z M8,16 C7.449219,16 7,16.449219 7,17 C7,17.550781 7.449219,18 8,18 C8.550781,18 9,17.550781 9,17 C9,16.449219 8.550781,16 8,16 Z"/>
    <path fill="#333" fill-rule="nonzero" d="M1.77635684e-15,0 L1.77635684e-15,21 L16,21 L16,0 L1.77635684e-15,0 Z M2,2 L14,2 L14,19 L2,19 L2,2 Z M4,4 L4,6 L12,6 L12,4 L4,4 Z M4,8 L4,10 L12,10 L12,8 L4,8 Z M8,16 C7.449219,16 7,16.449219 7,17 C7,17.550781 7.449219,18 8,18 C8.550781,18 9,17.550781 9,17 C9,16.449219 8.550781,16 8,16 Z" transform="translate(18)"/>
    <g transform="translate(6 21)">
      <line x2="23" y1="4.5" y2="4.5" stroke="#333" stroke-linecap="square" stroke-width="2"/>
      <line x1="11" x2="11" y1="2.5" y2=".5" stroke="#333" stroke-linecap="square" stroke-width="2"/>
      <circle cx="11" cy="5" r="3" fill="#FFF" stroke="#000"/>
    </g>
  </g>
</svg>
