<svg xmlns="http://www.w3.org/2000/svg" width="26" height="26" viewBox="0 0 26 26">
  <path fill="#333" d="M12.935,0.534857143 C12.7460939,0.557839312 12.5835939,0.685285714 12.5125,0.869142857 L9.2625,9.15942857 L0.60125,9.77785714 C0.39406276,9.79875027 0.219375,9.94291085 0.154375,10.1476606 C0.09140612,10.3503217 0.15234388,10.5738749 0.30875,10.7138571 L6.97125,16.4468571 L4.85875,25.1215714 C4.80593776,25.3325892 4.88515612,25.5561429 5.05578112,25.6856788 C5.22843776,25.8131251 5.45796888,25.8214823 5.63875,25.7065714 L13,20.9597143 L20.36125,25.7065714 C20.5420311,25.8214823 20.7715628,25.8131251 20.9442189,25.6856788 C21.1148439,25.5561429 21.1940628,25.3325892 21.14125,25.1215714 L19.02875,16.4468571 L25.69125,10.7138571 C25.8476561,10.5738749 25.9085939,10.3503217 25.845625,10.1476606 C25.780625,9.94291085 25.6059378,9.79875027 25.39875,9.77785714 L16.7375,9.15942857 L13.4875,0.869142857 C13.4001561,0.639321696 13.1726561,0.501428571 12.935,0.534857143 Z M13,2.52385714 L15.87625,9.87814286 C15.9514061,10.0703571 16.1301561,10.2019823 16.33125,10.2124286 L24.0175,10.7472857 L18.1025,15.8451429 C17.948125,15.9809463 17.8851561,16.1961429 17.94,16.3967143 L19.825,24.102 L13.27625,19.8732857 C13.1076561,19.7646429 12.8923439,19.7646429 12.72375,19.8732857 L6.175,24.102 L8.06,16.3967143 C8.11484388,16.1961429 8.051875,15.9809463 7.8975,15.8451429 L1.9825,10.7472857 L9.66875,10.2124286 C9.86984388,10.2019823 10.0485939,10.0703571 10.12375,9.87814286 L13,2.52385714 Z"/>
</svg>
