<svg xmlns="http://www.w3.org/2000/svg" width="21" height="20" viewBox="0 0 21 20">
  <path fill="#333" d="M14.825,0 C14.45,0 14.05625,0.2203124 13.7625,0.6 L10.45,5.25 C9.9734376,5.1375 9.4906252,5.0875 9,5.0875 C7.3156252,5.0875 5.7281252,5.7468752 4.5375,6.9375 C4.4625,7.0125 4.425,7.10625 4.425,7.2125 C4.425,7.31875 4.4625,7.425 4.5375,7.5 L12.9,15.8625 C12.9781252,15.9406252 13.0718752,15.975 13.175,15.975 C13.2781252,15.975 13.3843752,15.9281252 13.4625,15.85 C15.0359376,14.2781252 15.6609376,12.0093752 15.125,9.8625 L19.8,6.675 C20.15,6.4140624 20.3734376,6.05625 20.4,5.7 C20.4203124,5.4390624 20.325,5.1890624 20.15,5.0125 L15.45,0.25 C15.2890624,0.0859376 15.0640624,0 14.825,0 Z M7.0125,11.1 L0.4875,19.35 C0.36093748,19.5093752 0.36875,19.74375 0.5125,19.8875 C0.5906252,19.9656252 0.6968752,20 0.8,20 C0.8875,20 0.9765624,19.9703124 1.05,19.9125 L9.2875,13.3875 L7.0125,11.1 Z"/>
</svg>
