<svg fill="#000000" xmlns="http://www.w3.org/2000/svg" viewBox="0 0 24 24" width="24px" height="24px"><path d="M 5 3 C 3.9069372 3 3 3.9069372 3 5 L 3 19 C 3 20.093063 3.9069372 21 5 21 L 19 21 C 20.093063 21 21 20.093063 21 19 L 21 5 C 21 3.9069372 20.093063 3 19 3 L 5 3 z M 5 5 L 19 5 L 19 19 L 5 19 L 5 5 z M 12 8 C 8 8 6 12 6 12 C 6 12 8 16 12 16 C 16 16 18 12 18 12 C 18 12 16 8 12 8 z M 12 10 C 13.104 10 14 10.896 14 12 C 14 13.104 13.104 14 12 14 C 10.896 14 10 13.104 10 12 C 10 10.896 10.896 10 12 10 z"/></svg>