<svg xmlns="http://www.w3.org/2000/svg" width="27" height="26" viewBox="0 0 27 26">
  <path fill="#333" d="M10.2534783,0 C4.65423928,0 0,4.06760899 0,9.18293493 C0,11.6390219 1.09793464,13.8691304 2.83956522,15.5148912 L2.78478261,15.7842393 C2.39217391,16.9346741 1.42663029,17.5852174 0.853695944,17.7929349 C0.520434783,17.9116306 0.244239277,18.0919568 0.0913043478,18.4069565 C-0.0593475339,18.7196738 0.0319568139,19.1533697 0.260217683,19.3793481 C0.794347826,19.9157607 1.48826087,19.8632612 1.99500029,19.8678261 C3.90097811,19.8906525 6.14706507,18.8908696 7.50749985,18.2106525 L7.52347826,18.2038045 L7.98913043,17.9344564 L7.81108725,17.8796738 L7.83163058,17.8842393 C8.58945667,18.06 9.38380449,18.1147826 10.1644564,18.1147826 C15.0880438,18.1147826 19.3245655,15.1725001 20.2604348,10.9382609 L20.2604348,10.9359784 C20.3859784,10.3721739 20.4521739,9.78554362 20.4521739,9.18293493 C20.4521739,4.07217391 15.8527172,0 10.2534783,0 Z M10.2534783,1.16869565 C15.2889133,1.16869565 19.2834783,4.77521739 19.2834783,9.18293493 C19.2834783,9.70108725 19.2264132,10.2032612 19.1191304,10.6848912 C18.3202177,14.3005433 14.6246741,16.946087 10.1644564,16.946087 C9.44315203,16.946087 8.73326116,16.8913043 8.09869565,16.7452174 L7.84304348,16.6698915 L6.97793464,17.1674999 C5.68597841,17.8134783 3.45815232,18.7173913 2.00869565,18.6991304 C1.81010855,18.6991304 1.79184768,18.6603262 1.6526087,18.6443478 C2.48347826,18.2380438 3.44217391,17.500761 3.89869565,16.1448912 L3.90782609,16.1152174 L4.11782609,15.1291304 L3.85989145,14.9008696 C2.18673942,13.4377175 1.16869565,11.4084786 1.16869565,9.18293493 C1.16869565,4.7797829 5.21804377,1.16869565 10.2534783,1.16869565 Z M5.25913043,5.25913043 L5.25913043,6.42782609 L15.1930435,6.42782609 L15.1930435,5.25913043 L5.25913043,5.25913043 Z M5.25913043,8.18086957 L5.25913043,9.34956522 L15.1930435,9.34956522 L15.1930435,8.18086957 L5.25913043,8.18086957 Z M21.4953259,10.6323916 C21.4656522,10.8195652 21.4451088,11.0067394 21.4040216,11.1916306 C21.3583694,11.3925001 21.2990219,11.5888042 21.2396738,11.7873913 C23.9308696,12.8259784 25.7021739,14.9191304 25.7021739,17.2451088 C25.7021739,18.9136959 24.8347826,20.4727172 23.2552174,21.6391304 L22.9379346,21.8742393 L23.036087,22.2577175 C23.3510872,23.4652174 24.4558699,24.0883694 25.2205433,24.5038045 C24.0084786,24.6681523 21.3743478,24.3942393 20.0504348,22.8283694 L19.8290219,22.5635868 L19.4911958,22.6320654 C18.9593481,22.7370651 18.3430435,22.7895652 17.6034783,22.7895652 C13.9695652,22.7895652 11.0181523,21.3811958 9.87,19.2743478 C9.39521739,19.2652174 8.9523916,19.2332612 8.53695652,19.1830435 C9.6211958,22.0545655 13.1067394,23.9582609 17.6034783,23.9582609 C18.276848,23.9582609 18.8634783,23.9171742 19.390761,23.8372828 C20.6804348,25.1429349 22.7827172,25.7090219 24.4855436,25.7090219 C24.5973913,25.7090219 24.709239,25.7067394 24.8165217,25.7021739 C25.8048912,25.6565217 26.4485871,25.4282609 26.733913,25.0242393 C26.8594567,24.8416306 26.9028264,24.6270651 26.8526087,24.4170651 C26.7544564,23.9993481 26.3709781,23.793913 25.8391304,23.5085871 C25.3164132,23.2255436 24.6293481,22.8534783 24.3074999,22.2988042 C25.9441307,20.9474999 26.8708696,19.1305433 26.8708696,17.2451088 C26.8708696,14.3781523 24.7274999,11.8193481 21.4953259,10.6323916 Z M5.25913043,11.1026087 L5.25913043,12.2713043 L12.2713043,12.2713043 L12.2713043,11.1026087 L5.25913043,11.1026087 Z M19.8769565,14.6086957 C19.5847826,15.0195652 19.2629349,15.4121739 18.9091304,15.7773913 L21.6208696,15.7773913 L21.6208696,14.6086957 L19.8769565,14.6086957 Z M16.7064132,17.5304348 C15.9006525,18.0143478 15.0172828,18.409239 14.0791304,18.6991304 L21.6208696,18.6991304 L21.6208696,17.5304348 L16.7064132,17.5304348 Z"/>
</svg>
