<svg xmlns="http://www.w3.org/2000/svg" width="27" height="27" viewBox="0 0 27 27">
  <path fill="#333" d="M12.9158654,0.194711538 L0,5.28966346 L0,19.2439904 L15.5769231,26.9026442 L27,19.2439904 L27,5.28966346 L12.9158654,0.194711538 Z M12.9483173,2.43389423 L24.5985577,6.62019231 L21.3209135,8.37259615 L9.50841346,3.796875 L12.9483173,2.43389423 Z M8.04807692,4.34855769 L20.0877404,9.02163462 L16.1935096,11.0661058 L3.56971154,6.13341346 L8.04807692,4.34855769 Z M2.14182692,6.68509615 L15.5769231,11.9423077 L15.5769231,24.4038462 L15.4146635,24.5012019 L2.07692308,17.9459135 L2.07692308,6.71754808 L2.14182692,6.68509615 Z M22.8461538,9.86538462 C23.0246394,9.85321488 23.1301087,9.97896635 23.1382212,10.2223558 C23.1503909,10.546875 22.9516231,10.952524 22.6838942,11.1310096 L20.6069712,12.4939904 C20.2824519,12.7049279 20.0025543,12.571064 19.9903846,12.2019231 C19.9782149,11.8327822 20.2134918,11.3581731 20.5420673,11.1634615 L22.6514423,9.93028846 C22.7204024,9.88972408 22.7853062,9.86944085 22.8461538,9.86538462 Z"/>
</svg>
