<svg xmlns="http://www.w3.org/2000/svg" width="19" height="20" viewBox="0 0 19 20">
  <path fill="#333" d="M12.5,0 C11.1192881,0 10,1.11928813 10,2.5 C10.0009113,2.96618575 10.1321541,3.42283002 10.378906,3.8183594 L9.052734,6.1425781 C8.70972266,6.04845757 8.35568975,6.00050876 8,6 C7.40927024,6.00191792 6.82629824,6.13465412 6.2929688,6.3886719 L4.7636719,4.5546875 C4.9184113,4.22456346 4.99907218,3.86458922 5,3.5 C5,2.11928813 3.88071187,1 2.5,1 C1.11928813,1 0,2.11928813 0,3.5 C0,4.88071187 1.11928813,6 2.5,6 C2.75929679,5.99948327 3.01693483,5.95863016 3.2636719,5.8789062 L4.7558594,7.6679688 C4.26604102,8.34704372 4.00166821,9.16270554 4,10 C4.00166825,10.8372944 4.26604106,11.6529561 4.7558594,12.332031 L3.2636719,14.123047 C3.01703994,14.0426601 2.75939942,14.0011477 2.5,14 C1.11928813,14 0,15.1192881 0,16.5 C0,17.8807119 1.11928813,19 2.5,19 C3.88071187,19 5,17.8807119 5,16.5 C4.99907225,16.1354106 4.91841137,15.7754362 4.7636719,15.445312 L6.2910156,13.611328 C6.82494052,13.8656272 7.40861075,13.9983705 8,14 C8.50722981,13.9990301 9.00964681,13.9015958 9.480469,13.712891 L11.339844,16.246094 C11.1180442,16.6268116 11.0008042,17.0593863 11,17.5 C11,18.8807119 12.1192881,20 13.5,20 C14.8807119,20 16,18.8807119 16,17.5 C16,16.1192881 14.8807119,15 13.5,15 C13.3159635,15.0006407 13.1325605,15.0216011 12.953125,15.0625 L11.095703,12.529297 C11.5106279,12.0199363 11.7937052,11.4162168 11.919922,10.771484 L14.273438,10.632812 C14.6994799,11.4709788 15.5597688,11.9992267 16.5,12 C17.1630412,12 17.798926,11.7366079 18.267767,11.267767 C18.7366079,10.798926 19,10.1630412 19,9.5 C19,8.11928813 17.8807119,7 16.5,7 C15.4531197,7.00103429 14.5177504,7.65423395 14.15625,8.636719 L11.806641,8.773438 C11.6067635,8.15257937 11.2580953,7.59001653 10.791016,7.1347656 L12.035156,4.9550781 C12.1883629,4.98452341 12.3439898,4.99956298 12.5,5 C13.1630412,5 13.798926,4.7366079 14.267767,4.26776695 C14.7366079,3.79892601 15,3.16304122 15,2.5 C15,1.11928813 13.8807119,0 12.5,0 Z"/>
</svg>
