<?xml version="1.0" encoding="UTF-8"?>
<svg width="218.93mm" height="129.38mm" version="1.1" viewBox="0 0 218.93 129.38" xmlns="http://www.w3.org/2000/svg" xmlns:cc="http://creativecommons.org/ns#" xmlns:dc="http://purl.org/dc/elements/1.1/" xmlns:rdf="http://www.w3.org/1999/02/22-rdf-syntax-ns#">
 <metadata>
  <rdf:RDF>
   <cc:Work rdf:about="">
    <dc:format>image/svg+xml</dc:format>
    <dc:type rdf:resource="http://purl.org/dc/dcmitype/StillImage"/>
    <dc:title/>
   </cc:Work>
  </rdf:RDF>
 </metadata>
 <g transform="translate(98.359 -8.2777)">
  <path d="m-73.619 136.67c7.7e-4 -0.54571 0.23444-2.3614 0.51926-4.0349 1.0781-6.3348 1.2286-6.9205 2.4196-9.4192 0.78842-1.6541 1.4627-4.1311 2.1691-7.9684 0.23613-1.2827 0.85328-3.1576 1.5052-4.5728 0.66083-1.4346 1.2635-3.2727 1.4992-4.5729 0.84263-4.6467 1.1918-5.9277 2.2297-8.1809 0.74769-1.6231 1.2293-3.1979 1.5826-5.1746 0.59117-3.3081 1.4178-6.2132 2.0883-7.3393 0.73748-1.2386 1.2661-3.158 1.8583-6.7469 0.42317-2.5647 0.77408-3.7825 1.5629-5.424 1.3315-2.7707 1.5034-3.3574 2.1318-7.276 0.65986-4.115 0.85177-4.7727 1.8436-6.3183 0.92453-1.4408 1.4767-3.4396 1.8724-6.7786 0.37326-3.1493 0.951-5.4054 1.5922-6.2177 1.3077-1.6566 1.623-2.6758 2.1179-6.8462 0.49815-4.1979 0.85585-5.4723 2.0098-7.1606 0.90664-1.3264 1.6884-4.0311 1.6884-5.8416 0-2.096 0.6688-5.4288 1.3212-6.5841 1.4605-2.5861 1.8552-3.7456 2.3718-6.9668 0.29716-1.853 0.54029-3.7282 0.54029-4.1672v-0.79813h159.27l-0.27655 0.72761c-0.15211 0.40018-0.61473 1.3229-1.0281 2.0505-0.90995 1.6018-1.2391 2.7842-1.8758 6.7387-0.40965 2.5444-0.69181 3.4386-1.7468 5.5362-1.0092 2.0064-1.2793 2.833-1.3648 4.1754-0.0893 1.4017-0.18466 1.6737-0.58709 1.6737-0.5847 0-0.61779 0.10002-1.4268 4.3118-0.44242 2.3033-0.91337 3.8915-1.4883 5.019-1.1972 2.3479-1.4751 3.2385-2.1035 6.7416-0.4197 2.34-0.84812 3.7355-1.7305 5.6372-0.90453 1.9494-1.3492 3.4205-1.9446 6.4328-0.55067 2.7863-1.0362 4.4504-1.6942 5.807-1.1823 2.4375-1.367 3.0505-2.1533 7.1465-0.49526 2.58-0.86972 3.7844-1.563 5.0271-1.0797 1.9352-1.3902 3.0078-2.041 7.05-0.40667 2.5258-0.69425 3.4435-1.7155 5.4739-1.1004 2.1879-1.3024 2.8858-1.9589 6.7703-0.74265 4.3941-0.85853 4.7666-2.0113 6.4652-0.88963 1.3109-1.3632 3.0502-1.6995 6.241-0.34179 3.2436-1.0623 5.8191-1.9727 7.0513-1.0475 1.4178-1.4222 2.7828-1.8577 6.768-0.39085 3.5764-0.4511 3.7961-1.7472 6.3709-1.128 2.2408-1.4238 3.1493-1.852 5.6885-0.28028 1.662-0.51028 3.3492-0.51112 3.7494l-0.0015 0.7276h-155.84l1e-3 -0.99218zm148.77-9.8846c1.8258-2.0497 3.0374-4.4794 3.5248-7.0684 0.76328-4.0545 1.4357-6.4117 2.3311-8.1722 0.67237-1.3219 1.1328-2.8791 1.7436-5.8972 0.66534-3.2876 1.0616-4.5733 1.9979-6.4823 0.93868-1.9138 1.2502-2.9266 1.587-5.1594 0.49948-3.3115 0.98516-4.9672 1.9791-6.7469 0.93601-1.6759 1.4376-3.4791 1.9869-7.1438 0.44397-2.9617 1.0081-4.6544 1.9502-5.8521 0.73837-0.93869 1.2983-3.0484 1.729-6.5145 0.41515-3.3408 0.96603-5.216 1.887-6.4234 1.0552-1.3834 1.367-2.4983 1.8114-6.4776 0.41226-3.6913 0.47821-3.9366 1.7428-6.4823 0.72289-1.4552 1.4531-3.2631 1.6227-4.0175 0.29127-1.2956 0.26572-1.457-0.46066-2.9104l-0.76904-1.5387-66.41-0.0824c-67.361-0.0836-69.891-0.0535-71.069 0.84532-0.8766 0.66835-1.5568 2.0464-2.1007 4.2556-0.31658 1.286-0.97123 3.1637-1.4548 4.1727-0.86401 1.8029-1.2942 3.4044-2.1154 7.8744-0.26038 1.4174-0.80687 3.0618-1.478 4.4474-0.58745 1.2128-1.224 3.0514-1.4197 4.101-0.19519 1.0465-0.53403 2.8874-0.75298 4.0909-0.25203 1.3854-0.83859 3.1328-1.5986 4.7625-0.9431 2.0222-1.2912 3.1699-1.6235 5.3523-0.64643 4.2455-1.129 6.1059-1.877 7.2362-1.0065 1.521-1.613 3.521-1.9529 6.4403-0.41205 3.5387-0.95259 5.5382-1.8984 7.0221-1.0853 1.7027-1.492 3.1871-1.9532 7.1283-0.42464 3.6285-0.84409 5.1283-1.8371 6.5688-1.0449 1.5158-1.4452 2.7637-1.7168 5.3528-0.14151 1.3488-0.33456 3.1788-0.42899 4.0666-0.2116 1.9893 0.17783 3.2906 1.2563 4.198l0.79639 0.67012h133.53zm-102.65-11.9c-1.0647-0.68196-1.2258-1.1947-1.0168-3.2371 0.28079-2.7441 0.95547-5.2357 2.0189-7.4557 0.78202-1.6325 1.1672-2.9698 1.6841-5.8467 0.70989-3.9509 0.95589-4.8019 2.2225-7.688 0.43715-0.99612 0.98755-2.9422 1.2231-4.3247 0.59338-3.4825 1.5901-7.1543 2.3502-8.6575 0.3516-0.69538 0.95511-2.7526 1.3411-4.5716 1.0554-4.9735 1.7068-7.3299 2.5173-9.1077 0.40322-0.88436 1.1196-2.5211 1.592-3.6372 0.4724-1.1161 1.1172-2.2719 1.4329-2.5685 1.4342-1.3473 1.4316-1.3472 37.56-1.3514l33.556-4e-3 1.5901 1.5901-0.10602 6.018c-0.11725 6.655-0.29832 7.5822-1.9245 9.8544-1.0127 1.415-1.3364 2.3747-1.6954 5.0271-0.36133 2.6693-0.92237 4.4488-1.7528 5.5596-1.2043 1.6108-1.4347 2.2826-1.8379 5.3584-0.43826 3.3433-0.99564 5.2021-2.2039 7.35-0.62093 1.1038-0.97269 2.3331-1.4949 5.2244-0.78221 4.3306-1.0939 5.3573-2.3696 7.8047-0.50571 0.97022-0.99788 2.182-1.0937 2.6928-0.09734 0.51885-0.53399 1.2805-0.98937 1.7257l-0.81513 0.79695-35.47-4e-3c-35.318-4e-3 -35.474-7e-3 -36.318-0.54756zm66.209-3.5045c2.2454-0.81726 2.3912-1.0215 3.4306-4.807 0.51943-1.8918 1.4241-4.3981 2.0104-5.5695 0.81845-1.6354 1.2359-2.987 1.7976-5.8208 0.71658-3.615 1.01-4.4126 2.2536-6.1248 0.59501-0.81923 1.091-2.8866 1.7557-7.3182 0.18901-1.2601 0.63558-2.5133 1.4614-4.101 0.77242-1.4851 1.3202-2.9819 1.5631-4.2708 1.3002-6.9001 1.4369-7.442 2.1853-8.6633 0.42415-0.69219 0.90064-1.6332 1.0589-2.0912 0.44037-1.2746-0.54476-2.0728-3.0238-2.4498-3.0087-0.45758-57.061-0.37974-59.467 0.0856-2.359 0.45621-2.9103 1.0422-3.1675 3.3665-0.34381 3.1068-1.1625 6.2156-2.144 8.1415-0.66399 1.3029-1.1359 2.7674-1.4838 4.6049-0.95651 5.052-1.5944 7.456-2.2244 8.3829-0.91364 1.3442-1.3499 2.765-1.8195 5.9262-0.61667 4.1508-0.88798 5.156-1.864 6.9061-1.068 1.9148-1.5904 3.7127-1.9991 6.8792-0.16903 1.3097-0.48333 3.0843-0.69845 3.9436-0.36485 1.4574-0.35882 1.5945 0.0898 2.042 0.26448 0.26385 0.95712 0.71809 1.5392 1.0094 1.0411 0.52103 1.5181 0.52873 29.236 0.47151 26.57-0.0549 28.254-0.0858 29.51-0.5428zm62.522-79.46c2.0439-0.40572 2.2516-0.50784 2.8257-1.3893 0.48759-0.74868 0.68075-1.578 0.90665-3.8929 0.15788-1.6179 0.47561-3.5765 0.70605-4.3525 0.50105-1.6872 0.23146-2.9595-0.84047-3.9666l-0.68721-0.64561-134.04-0.1354-0.92123 0.94846c-0.50668 0.52165-1.1862 1.5046-1.5101 2.1843-0.32387 0.67974-0.92615 1.9042-1.3384 2.721-0.93683 1.8563-1.5853 4.007-1.5853 5.2578 0 0.5271 0.30831 1.577 0.68513 2.3332l0.68512 1.3749 66.453 2e-4c60.772 1.9e-4 66.641-0.0372 68.659-0.4377zm-198.51 62.464c-1.3332-2.0346-1.3542-3.7878-0.0684-5.6961l0.60631-0.89986 18.591-0.139 0.55515 0.77963c0.30533 0.4288 0.73345 1.285 0.95138 1.9027 0.43867 1.2433 0.24863 2.2576-0.72562 3.8728l-0.51866 0.8599h-18.946zm0.13262-18.352c-0.30401-0.42695-0.73106-1.2816-0.94899-1.8993-0.45566-1.2915-0.23812-2.3341 0.83566-4.0051l0.63756-0.99219h22.181l0.55275 0.77627c0.30401 0.42694 0.73106 1.2816 0.94899 1.8993 0.45565 1.2915 0.23812 2.3341-0.83567 4.0051l-0.63755 0.99218h-22.181zm0.19276-18.208c-1.4514-1.6553-1.7014-3.5874-0.71297-5.5083l0.67139-1.3047 30.228-0.1366 0.83825 1.7027c0.77403 1.5723 0.81381 1.7802 0.51915 2.7141-0.17551 0.55628-0.606 1.4579-0.95665 2.0036l-0.63756 0.99219h-14.772c-13.737 0-14.8-0.0324-15.178-0.46302zm-0.16996-18.735c-0.29277-0.37221-0.73059-1.1959-0.97291-1.8304-0.49364-1.2926-0.28071-2.394 0.78095-4.0394l0.55359-0.85797 37.285 0.1284 0.60306 0.89491c1.2861 1.9085 1.2262 3.6052-0.19761 5.6049l-0.55275 0.77627h-36.967z" stroke-width=".26458"/>
 </g>
</svg>
