<svg xmlns="http://www.w3.org/2000/svg" width="17" height="17" viewBox="0 0 17 17">
  <path fill="#333" d="M1.7,0 C0.76075,0 0,0.76075 0,1.7 L0,11.9 C0,12.83925 0.76075,13.6 1.7,13.6 L11.9,13.6 C12.83925,13.6 13.6,12.83925 13.6,11.9 L13.6,1.7 C13.6,0.76075 12.83925,0 11.9,0 L1.7,0 Z M1.7,1.7 L11.9,1.7 L11.9,11.9 L1.7,11.9 L1.7,1.7 Z M15.3,3.4 L15.3,15.3 L3.4,15.3 L3.4,17 L15.3,17 C16.23925,17 17,16.23925 17,15.3 L17,3.4 L15.3,3.4 Z M9.59902365,3.64902348 L5.95,7.2980473 L4.00097652,5.34902348 L2.79902348,6.55097652 L5.95,9.7019527 L10.8009763,4.85097652 L9.59902365,3.64902348 Z"/>
</svg>
