<svg xmlns="http://www.w3.org/2000/svg" width="24" height="24" viewBox="0 0 24 24">
  <path fill="#333" d="M17,0 C13.134,0 10,3.134 10,7 C10,7.890826 10.173144,8.739732 10.476562,9.523438 L4,16 C1.8026661,16 0,17.802666 0,20 C0,22.197334 1.8026661,24 4,24 C6.1973339,24 8,22.197334 8,20 L14.476562,13.523438 C15.260268,13.826856 16.109174,14 17,14 C20.866,14 24,10.866 24,7 C24,6.109 23.826438,5.2605625 23.523438,4.4765625 L20,8 L16,8 L16,4 L19.523438,0.4765625 C18.739437,0.1735625 17.891,0 17,0 Z M4,18 C5.1166661,18 6,18.883334 6,20 C6,21.116666 5.1166661,22 4,22 C2.8833339,22 2,21.116666 2,20 C2,18.883334 2.8833339,18 4,18 Z"/>
</svg>
