<svg xmlns="http://www.w3.org/2000/svg" width="24" height="24" viewBox="0 0 24 24">
  <path fill="#333" d="M17.1290323,0.45 C15.2600809,0.502620991 12.9592744,0.800201497 11.6564516,2.10483871 L11.3370968,2.40967742 C9.2213712,4.53991959 9.23770173,7.89133053 11.366129,10.0306452 L13.6887097,12.3532258 C14.7211692,13.3893146 16.0766129,13.9645161 17.5064516,13.9645161 C18.9199598,13.9645161 20.2608873,13.3893146 21.2806452,12.3677419 L21.5854839,12.0629032 C23.2058467,10.4443548 23.2203628,7.10201636 23.2258489,5.67580645 C23.2276209,5.42540346 23.1713712,5.22943572 23.0370968,5.09516129 C22.9282258,4.98629032 22.7721777,4.93548387 22.616129,4.93548387 C22.3675404,4.93548387 22.1752015,5.08064516 22.0790323,5.16774194 L19.0596774,8.2016129 C18.9961692,8.21250023 18.8491935,8.23064516 18.566129,8.23064516 C17.55,8.23064516 16.1310486,8.03286302 15.7790323,7.88225806 C15.5449598,7.37056475 15.3635082,5.12963721 15.5177419,4.65967742 C15.9895161,4.18790323 18.5625002,1.60040346 18.5806452,1.58225806 C18.6622983,1.48971763 18.9290323,1.16854839 18.7693548,0.812903226 C18.7076615,0.6768144 18.540726,0.451814493 18.1016129,0.45 L17.8983871,0.45 C17.6534273,0.45 17.3957662,0.442741935 17.1290323,0.45 Z M9.92903226,9.72580645 L1.07419355,17.7822581 C0.136088826,18.7221777 -0.694959794,20.8741935 1.07419355,22.6451613 C1.88891117,23.4598789 2.74173399,23.6758065 3.42580645,23.6758065 C3.6018144,23.6758065 3.75604862,23.6558467 3.90483871,23.6322581 C4.79032258,23.4997985 5.52883076,23.040726 5.93709677,22.6306452 L13.9790323,13.7758065 L13.2387097,13.2096774 L10.4951613,10.466129 L9.92903226,9.72580645 Z"/>
</svg>
