<svg xmlns="http://www.w3.org/2000/svg" width="27" height="27" viewBox="0 0 27 27">
  <path fill="#333" d="M14.8265217,0 C14.608614,0.041820793 14.4369295,0.206902456 14.3863043,0.422608696 L14.1397826,1.42630435 C13.3187773,1.67942949 12.5858155,2.10644008 11.973913,2.67652174 L10.9878261,2.39478261 C10.7391034,2.31774442 10.4705705,2.41899471 10.3363043,2.64130435 L9.49108696,4.12043478 C9.36342419,4.34714688 9.40744593,4.62888601 9.59673913,4.80717391 L10.3363043,5.51152174 C10.2416575,5.92092419 10.1426087,6.32372269 10.1426087,6.76173913 C10.1426087,7.19975558 10.2416575,7.60255463 10.3363043,8.01195652 L9.59673913,8.71630435 C9.40744593,8.89459225 9.36342419,9.17633138 9.49108696,9.40304348 L10.3363043,10.8821739 C10.4705705,11.1044836 10.7391034,11.2057338 10.9878261,11.1286957 L11.973913,10.8469565 C12.5858155,11.4170382 13.3187773,11.8440488 14.1397826,12.0971739 L14.3863043,13.1008696 C14.4501357,13.3495923 14.6746469,13.5234783 14.9321739,13.5234783 L16.6226087,13.5234783 C16.8801357,13.5234783 17.1046469,13.3495923 17.1684783,13.1008696 L17.415,12.0971739 C18.2360053,11.8440488 18.9689677,11.4170382 19.5808696,10.8469565 L20.5669565,11.1286957 C20.8156792,11.2057338 21.0842121,11.1044836 21.2184783,10.8821739 L22.0636957,9.40304348 C22.191359,9.17633138 22.1473372,8.89459225 21.9580435,8.71630435 L21.2184783,8.01195652 C21.3131251,7.60255463 21.4121739,7.19975558 21.4121739,6.76173913 C21.4121739,6.32372269 21.3131251,5.92092419 21.2184783,5.51152174 L21.9580435,4.80717391 C22.1473372,4.62888601 22.191359,4.34714688 22.0636957,4.12043478 L21.2184783,2.64130435 C21.0842121,2.41899471 20.8156792,2.31774442 20.5669565,2.39478261 L19.5808696,2.67652174 C18.9689677,2.10644008 18.2360053,1.67942949 17.415,1.42630435 L17.1684783,0.422608696 C17.1046469,0.17388601 16.8801357,0 16.6226087,0 L14.9321739,0 C14.9145652,0 14.8969565,0 14.8793478,0 C14.8617391,0 14.8441304,0 14.8265217,0 Z M15.3723913,1.12695652 L16.1823913,1.12695652 L16.3408696,1.76086957 L16.3408696,1.81369565 C16.3342662,2.08222854 16.5191575,2.31774442 16.781087,2.37717391 C17.6791304,2.58187486 18.4627174,3.0441034 19.0702174,3.69782609 C19.2507068,3.89592419 19.5434512,3.93994593 19.7745652,3.80347826 L19.8273913,3.76826087 L20.4613043,3.59217391 L20.8663043,4.31413043 L20.4436957,4.71913043 L20.3380435,4.77195652 C20.1157338,4.90622269 20.0144836,5.17475558 20.0915217,5.42347826 C20.221386,5.84388601 20.2852174,6.29730964 20.2852174,6.76173913 C20.2852174,7.22616862 20.221386,7.67959225 20.0915217,8.1 C20.0144836,8.34872269 20.1157338,8.61725558 20.3380435,8.75152174 L20.4436957,8.80434783 L20.8663043,9.20934783 L20.4613043,9.93130435 L19.8273913,9.75521739 L19.7745652,9.72 C19.5434512,9.58353289 19.2507068,9.62755463 19.0702174,9.82565217 C18.4627174,10.4793749 17.6791304,10.9416034 16.781087,11.1463043 C16.5191575,11.2057338 16.3342662,11.4412503 16.3408696,11.7097826 L16.3408696,11.7626087 L16.1823913,12.3965217 L15.3723913,12.3965217 L15.213913,11.7626087 L15.213913,11.7097826 C15.2205164,11.4412503 15.0356251,11.2057338 14.7736957,11.1463043 C13.8756522,10.9416034 13.0920652,10.4793749 12.4845652,9.82565217 C12.3040764,9.62755463 12.0113314,9.58353289 11.7802174,9.72 L11.7273913,9.75521739 L11.0934783,9.93130435 L10.6884783,9.22695652 L11.1815217,8.76913043 L11.2167391,8.75152174 C11.2167391,8.74491834 11.2167391,8.74051645 11.2167391,8.73391304 C11.4324459,8.60184783 11.5314947,8.34211985 11.4632609,8.1 C11.3333966,7.67959225 11.2695652,7.22616862 11.2695652,6.76173913 C11.2695652,6.29730964 11.3333966,5.84388601 11.4632609,5.42347826 C11.5314947,5.18135898 11.4324459,4.92163043 11.2167391,4.78956522 C11.2167391,4.78296182 11.2167391,4.77855992 11.2167391,4.77195652 L11.1815217,4.75434783 L10.6884783,4.29652174 L11.0934783,3.59217391 L11.7273913,3.76826087 L11.7802174,3.80347826 C12.0113314,3.93994593 12.3040764,3.89592419 12.4845652,3.69782609 C13.0920652,3.0441034 13.8756522,2.58187486 14.7736957,2.37717391 C15.0356251,2.31774442 15.2205164,2.08222854 15.213913,1.81369565 L15.213913,1.76086957 L15.3723913,1.12695652 Z M15.7773913,3.94434783 C14.2278261,3.94434783 12.96,5.21217391 12.96,6.76173913 C12.96,8.31130435 14.2278261,9.57913043 15.7773913,9.57913043 C17.3269565,9.57913043 18.5947826,8.31130435 18.5947826,6.76173913 C18.5947826,5.21217391 17.3269565,3.94434783 15.7773913,3.94434783 Z M15.7773913,5.07130435 C16.7172556,5.07130435 17.4678261,5.82187486 17.4678261,6.76173913 C17.4678261,7.7016034 16.7172556,8.45217391 15.7773913,8.45217391 C14.837527,8.45217391 14.0869565,7.7016034 14.0869565,6.76173913 C14.0869565,5.82187486 14.837527,5.07130435 15.7773913,5.07130435 Z M5.81086957,10.1426087 C5.59296182,10.1844295 5.42127731,10.3495112 5.37065217,10.5652174 L5.12413043,11.568913 C4.30312514,11.8220382 3.57016333,12.2490488 2.95826087,12.8191304 L1.97217391,12.5373913 C1.72345123,12.4603531 1.45491834,12.5616034 1.32065217,12.783913 L0.475434783,14.2630435 C0.347772021,14.4897556 0.39179376,14.7714947 0.581086957,14.9497826 L1.32065217,15.6541304 C1.22600529,16.0635329 1.12695652,16.4663314 1.12695652,16.9043478 C1.12695652,17.3423643 1.22600529,17.7451633 1.32065217,18.1545652 L0.581086957,18.858913 C0.39179376,19.0372009 0.347772021,19.3189401 0.475434783,19.5456522 L1.32065217,21.0247826 C1.45491834,21.2470923 1.72345123,21.3483425 1.97217391,21.2713043 L2.95826087,20.9895652 C3.57016333,21.5596469 4.30312514,21.9866575 5.12413043,22.2397826 L5.37065217,23.2434783 C5.43448355,23.4922009 5.65899471,23.666087 5.91652174,23.666087 L7.60695652,23.666087 C7.86448355,23.666087 8.08899471,23.4922009 8.15282609,23.2434783 L8.39934783,22.2397826 C9.22035312,21.9866575 9.9533155,21.5596469 10.5652174,20.9895652 L11.5513043,21.2713043 C11.800027,21.3483425 12.0685599,21.2470923 12.2028261,21.0247826 L13.0480435,19.5456522 C13.1757068,19.3189401 13.1316851,19.0372009 12.9423913,18.858913 L12.2028261,18.1545652 C12.297473,17.7451633 12.3965217,17.3423643 12.3965217,16.9043478 C12.3965217,16.4663314 12.297473,16.0635329 12.2028261,15.6541304 L12.9423913,14.9497826 C13.1316851,14.7714947 13.1757068,14.4897556 13.0480435,14.2630435 L12.2028261,12.783913 C12.0685599,12.5616034 11.800027,12.4603531 11.5513043,12.5373913 L10.5652174,12.8191304 C9.9533155,12.2490488 9.22035312,11.8220382 8.39934783,11.568913 L8.15282609,10.5652174 C8.08899471,10.3164947 7.86448355,10.1426087 7.60695652,10.1426087 L5.91652174,10.1426087 C5.89891304,10.1426087 5.88130435,10.1426087 5.86369565,10.1426087 C5.84608696,10.1426087 5.82847826,10.1426087 5.81086957,10.1426087 Z M6.35673913,11.2695652 L7.16673913,11.2695652 L7.32521739,11.9034783 L7.32521739,11.9563043 C7.31861399,12.2248372 7.50350529,12.4603531 7.76543478,12.5197826 C8.66347826,12.7244836 9.44926616,13.1867121 10.0545652,13.8404348 C10.2350546,14.0385329 10.5277991,14.0825546 10.758913,13.946087 L10.8117391,13.9108696 L11.4456522,13.7347826 L11.8506522,14.4567391 L11.4280435,14.8617391 L11.3223913,14.9145652 C11.1000817,15.0488314 10.9988314,15.3173643 11.0758696,15.566087 C11.2057338,15.9864947 11.2695652,16.4399183 11.2695652,16.9043478 C11.2695652,17.3687773 11.2057338,17.8222009 11.0758696,18.2426087 C10.9988314,18.4913314 11.1000817,18.7598643 11.3223913,18.8941304 L11.4280435,18.9469565 L11.8506522,19.3519565 L11.4456522,20.073913 L10.8117391,19.8978261 L10.758913,19.8626087 C10.5277991,19.7261416 10.2350546,19.7701633 10.0545652,19.9682609 C9.44706522,20.6219836 8.66347826,21.0842121 7.76543478,21.288913 C7.50350529,21.3483425 7.31861399,21.583859 7.32521739,21.8523913 L7.32521739,21.9052174 L7.16673913,22.5391304 L6.35673913,22.5391304 L6.19826087,21.9052174 L6.19826087,21.8523913 C6.20486427,21.583859 6.01997297,21.3483425 5.75804348,21.288913 C4.86,21.0842121 4.07641304,20.6219836 3.46891304,19.9682609 C3.28842419,19.7701633 2.99567921,19.7261416 2.76456522,19.8626087 L2.71173913,19.8978261 L2.07782609,20.073913 L1.67282609,19.3695652 L2.16586957,18.9117391 L2.20108696,18.8941304 C2.20108696,18.887527 2.20108696,18.8831251 2.20108696,18.8765217 C2.41679376,18.7444565 2.51584253,18.4847285 2.4476087,18.2426087 C2.31774442,17.8222009 2.25391304,17.3687773 2.25391304,16.9043478 C2.25391304,16.4399183 2.31774442,15.9864947 2.4476087,15.566087 C2.51584253,15.3239677 2.41679376,15.0642391 2.20108696,14.9321739 C2.20108696,14.9255705 2.20108696,14.9211686 2.20108696,14.9145652 L2.16586957,14.8969565 L1.67282609,14.4391304 L2.07782609,13.7347826 L2.71173913,13.9108696 L2.76456522,13.946087 C2.99567921,14.0825546 3.28842419,14.0385329 3.46891304,13.8404348 C4.07641304,13.1867121 4.86,12.7244836 5.75804348,12.5197826 C6.01997297,12.4603531 6.20486427,12.2248372 6.19826087,11.9563043 L6.19826087,11.9034783 L6.35673913,11.2695652 Z M18.7708696,12.96 C18.5529618,13.0018208 18.3812773,13.1669025 18.3306522,13.3826087 L18.0841304,14.3863043 C17.2631251,14.6394295 16.5301633,15.0664401 15.9182609,15.6365217 L14.9321739,15.3547826 C14.6834512,15.2777444 14.4149183,15.3789947 14.2806522,15.6013043 L13.4354348,17.0804348 C13.307772,17.3071469 13.3517938,17.588886 13.541087,17.7671739 L14.2806522,18.4715217 C14.1860053,18.8809242 14.0869565,19.2837227 14.0869565,19.7217391 C14.0869565,20.1597556 14.1860053,20.5625546 14.2806522,20.9719565 L13.541087,21.6763043 C13.3517938,21.8545923 13.307772,22.1363314 13.4354348,22.3630435 L14.2806522,23.8421739 C14.4149183,24.0644836 14.6834512,24.1657338 14.9321739,24.0886957 L15.9182609,23.8069565 C16.5301633,24.3770382 17.2631251,24.8040488 18.0841304,25.0571739 L18.3306522,26.0608696 C18.3944836,26.3095923 18.6189947,26.4834783 18.8765217,26.4834783 L20.5669565,26.4834783 C20.8244836,26.4834783 21.0489947,26.3095923 21.1128261,26.0608696 L21.3593478,25.0571739 C22.1803531,24.8040488 22.9133155,24.3770382 23.5252174,23.8069565 L24.5113043,24.0886957 C24.760027,24.1657338 25.0285599,24.0644836 25.1628261,23.8421739 L26.0080435,22.3630435 C26.1357068,22.1363314 26.0916851,21.8545923 25.9023913,21.6763043 L25.1628261,20.9719565 C25.257473,20.5625546 25.3565217,20.1597556 25.3565217,19.7217391 C25.3565217,19.2837227 25.257473,18.8809242 25.1628261,18.4715217 L25.9023913,17.7671739 C26.0916851,17.588886 26.1357068,17.3071469 26.0080435,17.0804348 L25.1628261,15.6013043 C25.0285599,15.3789947 24.760027,15.2777444 24.5113043,15.3547826 L23.5252174,15.6365217 C22.9133155,15.0664401 22.1803531,14.6394295 21.3593478,14.3863043 L21.1128261,13.3826087 C21.0489947,13.133886 20.8244836,12.96 20.5669565,12.96 L18.8765217,12.96 C18.858913,12.96 18.8413043,12.96 18.8236957,12.96 C18.806087,12.96 18.7884783,12.96 18.7708696,12.96 Z M6.76173913,14.0869565 C5.21217391,14.0869565 3.94434783,15.3547826 3.94434783,16.9043478 C3.94434783,18.453913 5.21217391,19.7217391 6.76173913,19.7217391 C8.31130435,19.7217391 9.57913043,18.453913 9.57913043,16.9043478 C9.57913043,15.3547826 8.31130435,14.0869565 6.76173913,14.0869565 Z M19.3167391,14.0869565 L20.1267391,14.0869565 L20.2852174,14.7208696 L20.2852174,14.7736957 C20.278614,15.0422285 20.4635053,15.2777444 20.7254348,15.3371739 C21.6234783,15.5418749 22.4092662,16.0041034 23.0145652,16.6578261 C23.1950546,16.8559242 23.4877991,16.8999459 23.718913,16.7634783 L23.7717391,16.7282609 L24.4056522,16.5521739 L24.8106522,17.2741304 L24.3880435,17.6791304 L24.2823913,17.7319565 C24.0600817,17.8662227 23.9588314,18.1347556 24.0358696,18.3834783 C24.1657338,18.803886 24.2295652,19.2573096 24.2295652,19.7217391 C24.2295652,20.1861686 24.1657338,20.6395923 24.0358696,21.06 C23.9588314,21.3087227 24.0600817,21.5772556 24.2823913,21.7115217 L24.3880435,21.7643478 L24.8106522,22.1693478 L24.4056522,22.8913043 L23.7717391,22.7152174 L23.718913,22.68 C23.4877991,22.5435329 23.1950546,22.5875546 23.0145652,22.7856522 C22.4070652,23.4393749 21.6234783,23.9016034 20.7254348,24.1063043 C20.4635053,24.1657338 20.278614,24.4012503 20.2852174,24.6697826 L20.2852174,24.7226087 L20.1267391,25.3565217 L19.3167391,25.3565217 L19.1582609,24.7226087 L19.1582609,24.6697826 C19.1648643,24.4012503 18.979973,24.1657338 18.7180435,24.1063043 C17.82,23.9016034 17.036413,23.4393749 16.428913,22.7856522 C16.2484242,22.5875546 15.9556792,22.5435329 15.7245652,22.68 L15.6717391,22.7152174 L15.0378261,22.8913043 L14.6328261,22.1869565 L15.1258696,21.7291304 L15.161087,21.7115217 C15.161087,21.7049183 15.161087,21.7005164 15.161087,21.693913 C15.3767938,21.5618478 15.4758425,21.3021198 15.4076087,21.06 C15.2777444,20.6395923 15.213913,20.1861686 15.213913,19.7217391 C15.213913,19.2573096 15.2777444,18.803886 15.4076087,18.3834783 C15.4758425,18.141359 15.3767938,17.8816304 15.161087,17.7495652 C15.161087,17.7429618 15.161087,17.7385599 15.161087,17.7319565 L15.1258696,17.7143478 L14.6328261,17.2565217 L15.0378261,16.5521739 L15.6717391,16.7282609 L15.7245652,16.7634783 C15.9556792,16.8999459 16.2484242,16.8559242 16.428913,16.6578261 C17.036413,16.0041034 17.82,15.5418749 18.7180435,15.3371739 C18.979973,15.2777444 19.1648643,15.0422285 19.1582609,14.7736957 L19.1582609,14.7208696 L19.3167391,14.0869565 Z M6.76173913,15.213913 C7.7016034,15.213913 8.45217391,15.9644836 8.45217391,16.9043478 C8.45217391,17.8442121 7.7016034,18.5947826 6.76173913,18.5947826 C5.82187486,18.5947826 5.07130435,17.8442121 5.07130435,16.9043478 C5.07130435,15.9644836 5.82187486,15.213913 6.76173913,15.213913 Z M19.7217391,16.9043478 C18.1721739,16.9043478 16.9043478,18.1721739 16.9043478,19.7217391 C16.9043478,21.2713043 18.1721739,22.5391304 19.7217391,22.5391304 C21.2713043,22.5391304 22.5391304,21.2713043 22.5391304,19.7217391 C22.5391304,18.1721739 21.2713043,16.9043478 19.7217391,16.9043478 Z M19.7217391,18.0313043 C20.6616034,18.0313043 21.4121739,18.7818749 21.4121739,19.7217391 C21.4121739,20.6616034 20.6616034,21.4121739 19.7217391,21.4121739 C18.7818749,21.4121739 18.0313043,20.6616034 18.0313043,19.7217391 C18.0313043,18.7818749 18.7818749,18.0313043 19.7217391,18.0313043 Z"/>
</svg>
