<svg xmlns="http://www.w3.org/2000/svg" width="24" height="24" viewBox="0 0 24 24">
  <path fill="#333" d="M5.33333333,0 L5.33333333,24 L24,24 L24,0 L5.33333333,0 Z M0,1.33333333 L0,22.6666667 L2.66666667,22.6666667 L2.66666667,1.33333333 L0,1.33333333 Z M14.6666667,4 C18.0053333,4 20,6.712 20,9.33333333 C20,11.7546667 18.4778547,13.121188 17.367188,14.117188 C16.4938547,14.9025213 16,15.376 16,16 L13.3333333,16 C13.3333333,14.156 14.5819373,13.0341453 15.5859373,12.132812 C16.668604,11.160812 17.3333333,10.5053333 17.3333333,9.33333333 C17.3333333,8.30266667 16.6093333,6.66666667 14.6666667,6.66666667 C12.8026667,6.66666667 12,8.69066667 12,9.33333333 L9.33333333,9.33333333 C9.33333333,7.41866667 11.116,4 14.6666667,4 Z M13.3333333,17.3333333 L16,17.3333333 L16,20 L13.3333333,20 L13.3333333,17.3333333 Z"/>
</svg>
