<svg xmlns="http://www.w3.org/2000/svg" width="25" height="25" viewBox="0 0 25 25">
  <g fill="#333">
    <path d="M12.5,0 C9.05520375,0 5.94038262,1.41420625 3.67675775,3.67675775 L1.25,1.25 L1.25,7.5 L7.5,7.5 L5.4418945,5.4418945 C7.24928363,3.63210588 9.73188413,2.5 12.5,2.5 C18.0383325,2.5 22.5,6.96166737 22.5,12.5 L25,12.5 C25,5.61083262 19.3891675,0 12.5,0 Z M0,12.5 C0,19.3891675 5.61083262,25 12.5,25 C15.9447962,25 19.0596175,23.5857938 21.3232425,21.3232425 L23.75,23.75 L23.75,17.5 L17.5,17.5 L19.558105,19.558105 C17.7507162,21.3678938 15.2681162,22.5 12.5,22.5 C6.96166738,22.5 2.5,18.0383325 2.5,12.5 L0,12.5 Z"/>
    <path d="M15,12.9545455 L7.5,0.477272727 L0,12.9545455 L15,12.9545455 Z M8.18181818,11.5909091 L6.81818182,11.5909091 L6.81818182,10.2272727 L8.18181818,10.2272727 L8.18181818,11.5909091 Z M8.18181818,8.86363645 L6.81818182,8.86363645 L6.81818182,4.45454545 L8.18181818,4.45454545 L8.18181818,8.86363645 Z" transform="translate(5 4)"/>
  </g>
</svg>
