<svg xmlns="http://www.w3.org/2000/svg" width="25" height="22" viewBox="0 0 25 22">
  <path fill="#333" d="M0,0 L0,9.77777778 L9.77777778,9.77777778 L9.77777778,0 L0,0 Z M3.66666667,3.66666667 L6.11111111,3.66666667 L6.11111111,6.11111111 L3.66666667,6.11111111 L3.66666667,3.66666667 Z M3.66666667,15.6666667 L6.11111111,15.6666667 L6.11111111,18.1111111 L3.66666667,18.1111111 L3.66666667,15.6666667 Z M12.2222222,3.66666667 L12.2222222,6.11111111 L13.4444444,6.11111111 L17.1111111,6.11111111 L18.3333333,6.11111111 L18.3333333,3.66666667 L17.1111111,3.66666667 L13.4444444,3.66666667 L12.2222222,3.66666667 Z M20.7777778,3.66666667 L20.7777778,6.11111111 L22,6.11111111 L23.2222222,6.11111111 L24.4444444,6.11111111 L24.4444444,3.66666667 L23.2222222,3.66666667 L22,3.66666667 L20.7777778,3.66666667 Z M0,12.2222222 L0,22 L9.77777778,22 L9.77777778,12.2222222 L0,12.2222222 Z M12.2222222,15.8888889 L12.2222222,18.3333333 L13.4444444,18.3333333 L17.1111111,18.3333333 L18.3333333,18.3333333 L18.3333333,15.8888889 L17.1111111,15.8888889 L13.4444444,15.8888889 L12.2222222,15.8888889 Z M20.7777778,15.8888889 L20.7777778,18.3333333 L22,18.3333333 L23.2222222,18.3333333 L24.4444444,18.3333333 L24.4444444,15.8888889 L23.2222222,15.8888889 L22,15.8888889 L20.7777778,15.8888889 Z"/>
</svg>
