<svg xmlns="http://www.w3.org/2000/svg" width="28" height="18" viewBox="0 0 28 18">
  <path fill="#333" d="M16.24,0.2975 C13.3196874,0.2975 10.8478126,2.04531264 9.66,4.515 C9.02781264,4.07968736 8.295,3.7625 7.4725,3.7625 C5.38562528,3.7625 3.72093736,5.41406264 3.605,7.4725 C1.51812528,8.225 0,10.1718753 0,12.5125 C0,15.49625 2.42375,17.92 5.4075,17.92 L23.0125,17.92 C25.76,17.92 28,15.68 28,12.9325 C28,10.3840626 26.0443753,8.35843736 23.5725,8.0675 C23.58125,7.93187528 23.6075,7.805 23.6075,7.665 C23.6075,3.605 20.3,0.2975 16.24,0.2975 Z M16.24,1.4175 C19.69625,1.4175 22.4875,4.21093736 22.4875,7.665 C22.4875,7.92093736 22.4678126,8.1725 22.435,8.435 L22.3475,9.065 L23.0125,9.065 C25.1540626,9.065 26.88,10.7909374 26.88,12.9325 C26.88,15.0740626 25.1540626,16.8 23.0125,16.8 L5.4075,16.8 C3.0275,16.8 1.12,14.8903126 1.12,12.5125 C1.12,10.5328126 2.45437528,8.86593736 4.27,8.365 L4.69,8.26 L4.6725,7.805 C4.67031264,7.72625 4.6725,7.68687528 4.6725,7.6825 C4.6725,6.12718736 5.91718736,4.8825 7.4725,4.8825 C8.25125,4.8825 8.96,5.19531264 9.4675,5.705 L10.08,6.335 L10.3775,5.5125 C11.2590626,3.1325 13.5471874,1.4175 16.24,1.4175 Z"/>
</svg>
