<svg xmlns="http://www.w3.org/2000/svg" width="20" height="20" viewBox="0 0 20 20">
  <g fill="none" fill-rule="evenodd">
    <circle cx="10" cy="10" r="9" stroke="#FF801F" stroke-width="2"/>
    <path fill="#FF801F" fill-rule="nonzero" stroke="#FF801F" d="M6,5.51513672 L6.83056641,6.27758789 C5.93056641,7.17758789 5,8.6 5,10 C5,12.75 7.25,15 10,15 C12.75,15 15,12.75 15,10 C15,7.25 13.2626343,5 11.0114746,5 L10.8952637,5.95996094 C12.4271851,6.27758789 14,7.8 14,10 C14,12.2 12.2,14 10,14 C7.8,14 6,12.2 6,10 C6,8.9 6.68359375,7.32451172 7.43359375,6.62451172 L8.1418457,7.39770508 L8.5,5 L6,5.51513672 Z" transform="matrix(-1 0 0 1 20 0)"/>
  </g>
</svg>
