<?xml version="1.0" encoding="UTF-8"?>
<svg width="18px" height="19px" viewBox="0 0 18 19" version="1.1" xmlns="http://www.w3.org/2000/svg" xmlns:xlink="http://www.w3.org/1999/xlink">
    <!-- Generator: Sketch 51.3 (57544) - http://www.bohemiancoding.com/sketch -->
    <title>DocumentReference-16x16</title>
    <desc>Created with Sketch.</desc>
    <defs></defs>
    <g id="Page-1" stroke="none" stroke-width="1" fill="none" fill-rule="evenodd">
        <g id="HDM-ICONS-sheet-1.2-Refined" transform="translate(-490.000000, -439.000000)">
            <g id="HDM-Data-Types-gray" transform="translate(339.000000, 119.000000)">
                <g id="DocumentReference-16x16" transform="translate(151.000000, 320.000000)">
                    <path d="M15.5,5.04031242 L9.82460947,0.5 L2,0.5 C1.15713097,0.5 0.51,1.02129995 0.509999847,1.60039062 L0.5,14.4 C0.5,14.9787 1.14713097,15.5 1.99,15.5 L14,15.5 C14.8453126,15.5 15.5,14.9762501 15.5,14.4 L15.5,5.04031242 Z" id="Path" stroke="#000000"></path>
                    <polygon id="Path" fill="#000000" points="10 5.6 10 1.2 15.5 5.6"></polygon>
                    <path d="M2.5,5.5 L8.5,5.5" id="Line-5" stroke="#979797" stroke-linecap="square"></path>
                    <path d="M2.5,7.5 L12.5,7.5" id="Line-5-Copy" stroke="#979797" stroke-linecap="square"></path>
                    <path d="M2.5,9.5 L12.5,9.5" id="Line-5-Copy-2" stroke="#979797" stroke-linecap="square"></path>
                    <path d="M2.5,11.5 L11.5,11.5" id="Line-5-Copy-3" stroke="#979797" stroke-linecap="square"></path>
                    <path d="M2.5,13.5 L9.5,13.5" id="Line-5-Copy-4" stroke="#979797" stroke-linecap="square"></path>
                    <rect id="Rectangle-4" stroke="#000000" stroke-width="0.5" fill="#FFFFFF" x="11.25" y="11.25" width="6.5" height="7.5"></rect>
                    <polygon id="Path" fill="#000000" transform="translate(14.000000, 14.400000) scale(-1, 1) rotate(-45.000000) translate(-14.000000, -14.400000) " points="12 12 12 16.8 16 14.4"></polygon>
                </g>
            </g>
        </g>
    </g>
</svg>