<?xml version="1.0" encoding="UTF-8"?>
<svg width="21px" height="20px" viewBox="0 0 21 20" version="1.1" xmlns="http://www.w3.org/2000/svg" xmlns:xlink="http://www.w3.org/1999/xlink">
    <!-- Generator: Sketch 51.3 (57544) - http://www.bohemiancoding.com/sketch -->
    <title>DocumentReferenceList-16x16</title>
    <desc>Created with Sketch.</desc>
    <defs></defs>
    <g id="Page-1" stroke="none" stroke-width="1" fill="none" fill-rule="evenodd">
        <g id="HDM-ICONS-sheet-1.2-Refined" transform="translate(-489.000000, -459.000000)">
            <g id="HDM-Data-Types-gray" transform="translate(339.000000, 119.000000)">
                <g id="DocumentReferenceList-16x16" transform="translate(150.000000, 340.000000)">
                    <g id="Set-3">
                        <path d="M11.5,4.03220241 L7.31712872,0.5 L1.5,0.5 C0.96086438,0.5 0.5075,0.986946926 0.5075,1.6 L0.507499854,1.60038265 L0.5,11.4 C0.5,12.0130531 0.95336438,12.5 1.4925,12.5 L10.5,12.5 C11.041387,12.5 11.5,12.0108128 11.5,11.4 L11.5,4.03220241 Z" id="Path" stroke="#000000" fill="#FFFFFF"></path>
                        <polygon id="Path" fill="#000000" points="7 0.2 11.5 4.6 7 4.6"></polygon>
                        <path d="M2.5,5.5 L5.8,5.5" id="Line-5" stroke="#979797" stroke-linecap="square"></path>
                        <path d="M2.5,7.5 L9.5,7.5" id="Line-5-Copy" stroke="#979797" stroke-linecap="square"></path>
                        <path d="M2.5,9.5 L9.5,9.5" id="Line-5-Copy-2" stroke="#979797" stroke-linecap="square"></path>
                    </g>
                    <g id="Set-2" transform="translate(3.000000, 2.000000)">
                        <path d="M11.5,4.03220241 L7.31712872,0.5 L1.5,0.5 C0.96086438,0.5 0.5075,0.986946926 0.5075,1.6 L0.507499854,1.60038265 L0.5,11.4 C0.5,12.0130531 0.95336438,12.5 1.4925,12.5 L10.5,12.5 C11.041387,12.5 11.5,12.0108128 11.5,11.4 L11.5,4.03220241 Z" id="Path" stroke="#000000" fill="#FFFFFF"></path>
                        <polygon id="Path" fill="#000000" points="7 0.2 11.5 4.6 7 4.6"></polygon>
                        <path d="M2.5,5.5 L5.8,5.5" id="Line-5" stroke="#979797" stroke-linecap="square"></path>
                        <path d="M2.5,7.5 L9.5,7.5" id="Line-5-Copy" stroke="#979797" stroke-linecap="square"></path>
                        <path d="M2.5,9.5 L9.5,9.5" id="Line-5-Copy-2" stroke="#979797" stroke-linecap="square"></path>
                    </g>
                    <g id="Set-1" transform="translate(6.000000, 4.000000)">
                        <path d="M11.5,4.03220241 L7.31712872,0.5 L1.5,0.5 C0.96086438,0.5 0.5075,0.986946926 0.5075,1.6 L0.507499854,1.60038265 L0.5,11.4 C0.5,12.0130531 0.95336438,12.5 1.4925,12.5 L10.5,12.5 C11.041387,12.5 11.5,12.0108128 11.5,11.4 L11.5,4.03220241 Z" id="Path" stroke="#000000" fill="#FFFFFF"></path>
                        <polygon id="Path" fill="#000000" points="7 0.2 11.5 4.6 7 4.6"></polygon>
                        <path d="M2.5,5.5 L5.8,5.5" id="Line-5" stroke="#979797" stroke-linecap="square"></path>
                        <path d="M2.5,7.5 L9.5,7.5" id="Line-5-Copy" stroke="#979797" stroke-linecap="square"></path>
                        <path d="M2.5,9.5 L9.5,9.5" id="Line-5-Copy-2" stroke="#979797" stroke-linecap="square"></path>
                    </g>
                    <rect id="Rectangle-4-Copy-2" stroke="#000000" stroke-width="0.5" fill="#FFFFFF" x="14.25" y="12.25" width="6.5" height="7.5"></rect>
                    <polygon id="Path-Copy-17" fill="#000000" transform="translate(17.000000, 15.400000) scale(-1, 1) rotate(-45.000000) translate(-17.000000, -15.400000) " points="15 13 15 17.8 19 15.4"></polygon>
                </g>
            </g>
        </g>
    </g>
</svg>