<?xml version="1.0" encoding="UTF-8"?>
<svg width="16px" height="16px" viewBox="0 0 16 16" version="1.1" xmlns="http://www.w3.org/2000/svg" xmlns:xlink="http://www.w3.org/1999/xlink">
    <!-- Generator: Sketch 51.3 (57544) - http://www.bohemiancoding.com/sketch -->
    <title>Document-16x16</title>
    <desc>Created with Sketch.</desc>
    <defs></defs>
    <g id="Page-1" stroke="none" stroke-width="1" fill="none" fill-rule="evenodd">
        <g id="HDM-ICONS-sheet-1.2-Refined" transform="translate(-490.000000, -399.000000)">
            <g id="HDM-Data-Types-gray" transform="translate(339.000000, 119.000000)">
                <g id="Document-16x16" transform="translate(151.000000, 280.000000)">
                    <path d="M15.5,5.04031242 L9.82460947,0.5 L2,0.5 C1.15713097,0.5 0.51,1.02129995 0.509999847,1.60039062 L0.5,14.4 C0.5,14.9787 1.14713097,15.5 1.99,15.5 L14,15.5 C14.8453126,15.5 15.5,14.9762501 15.5,14.4 L15.5,5.04031242 Z" id="Path" stroke="#000000"></path>
                    <polygon id="Path" fill="#000000" points="10 5.6 10 1.2 15.5 5.6"></polygon>
                    <path d="M2.5,5.5 L8.5,5.5" id="Line-5" stroke="#979797" stroke-linecap="square"></path>
                    <path d="M2.5,7.5 L12.5,7.5" id="Line-5-Copy" stroke="#979797" stroke-linecap="square"></path>
                    <path d="M2.5,9.5 L12.5,9.5" id="Line-5-Copy-2" stroke="#979797" stroke-linecap="square"></path>
                    <path d="M2.5,11.5 L11.5,11.5" id="Line-5-Copy-3" stroke="#979797" stroke-linecap="square"></path>
                    <path d="M2.5,13.5 L9.5,13.5" id="Line-5-Copy-4" stroke="#979797" stroke-linecap="square"></path>
                </g>
            </g>
        </g>
    </g>
</svg>