<svg xmlns="http://www.w3.org/2000/svg" width="20" height="16" viewBox="0 0 20 16">
  <path fill-rule="evenodd" d="M2,0 L18,0 C19.1045695,-2.02906125e-16 20,0.8954305 20,2 L20,14 C20,15.1045695 19.1045695,16 18,16 L2,16 C0.8954305,16 1.3527075e-16,15.1045695 0,14 L0,2 C-1.3527075e-16,0.8954305 0.8954305,2.02906125e-16 2,0 Z M6.86865234,13 L6.86865234,3.72607422 L6.671875,3.72607422 L3.06640625,5.05273438 L3.06640625,6.35400391 L5.33251953,5.57958984 L5.33251953,13 L6.86865234,13 Z M14.0388803,3.71337891 L13.8611459,3.71337891 C13.3025494,3.71337891 12.8021475,3.77791277 12.3599252,3.90698242 C11.9177029,4.03605208 11.527326,4.21695847 11.1887826,4.44970703 C10.8502393,4.68245559 10.5603659,4.95963381 10.3191537,5.28125 C10.0779416,5.60286619 9.88116619,5.95515759 9.72882168,6.33813477 C9.57647717,6.72111194 9.4653943,7.12947374 9.39556973,7.56323242 C9.32574516,7.9969911 9.2908334,8.44238053 9.2908334,8.89941406 L9.2908334,9.50244141 C9.2908334,9.98486569 9.35854106,10.4440082 9.4939584,10.8798828 C9.62937574,11.3157574 9.82932492,11.7008447 10.0938119,12.0351562 C10.3582989,12.3694678 10.6830841,12.6350088 11.0681771,12.8317871 C11.4532702,13.0285654 11.8976017,13.1269531 12.401185,13.1269531 C12.8751457,13.1269531 13.2983185,13.0454924 13.6707162,12.8825684 C14.0431139,12.7196444 14.3573198,12.4964207 14.6133432,12.2128906 C14.8693666,11.9293606 15.0640261,11.5961119 15.1973275,11.2131348 C15.330629,10.8301576 15.3972787,10.4165061 15.3972787,9.97216797 C15.3972787,9.57437952 15.3443821,9.18929223 15.2385873,8.81689453 C15.1327925,8.44449684 14.9719868,8.11442201 14.7561654,7.82666016 C14.540344,7.5388983 14.2663396,7.30932703 13.9341439,7.13793945 C13.6019483,6.96655188 13.2115713,6.88085938 12.7630014,6.88085938 C12.3779083,6.88085938 12.024559,6.94645117 11.7029428,7.07763672 C11.3813266,7.20882227 11.1020325,7.39925005 10.8650521,7.64892578 C10.9073701,7.28499167 10.9962364,6.94116373 11.1316537,6.61743164 C11.2670711,6.29369955 11.4585568,6.01123167 11.7061166,5.77001953 C11.9536764,5.52880739 12.2604768,5.3383796 12.6265268,5.19873047 C12.9925768,5.05908133 13.4273869,4.98925781 13.9309701,4.98925781 L14.0388803,4.98925781 L14.0388803,3.71337891 Z M12.382142,8.125 C12.6275859,8.125 12.8434041,8.17578074 13.0296029,8.27734375 C13.2158018,8.37890676 13.3713178,8.51538 13.4961557,8.68676758 C13.6209935,8.85815515 13.7151495,9.05810433 13.7786264,9.28662109 C13.8421032,9.51513786 13.8738412,9.75846225 13.8738412,10.0166016 C13.8738412,10.291668 13.8399874,10.5434559 13.7722787,10.7719727 C13.70457,11.0004894 13.6061824,11.1972648 13.4771127,11.3623047 C13.348043,11.5273446 13.1914691,11.6553544 13.0073861,11.7463379 C12.8233032,11.8373214 12.6148906,11.8828125 12.382142,11.8828125 C12.1705524,11.8828125 11.9716612,11.8352056 11.7854623,11.7399902 C11.5992635,11.6447749 11.4363419,11.5040699 11.2966928,11.3178711 C11.1570436,11.1316722 11.0459608,10.8978692 10.9634408,10.6164551 C10.8809209,10.3350409 10.8396615,10.0102557 10.8396615,9.64208984 L10.8396615,9.16601562 C10.8989066,9.0221347 10.9782515,8.88671938 11.0776986,8.75976562 C11.1771457,8.63281187 11.2935183,8.52278692 11.4268197,8.4296875 C11.5601212,8.33658808 11.7082317,8.26253283 11.8711557,8.20751953 C12.0340797,8.15250624 12.2044067,8.125 12.382142,8.125 Z"/>
</svg>
