<svg xmlns="http://www.w3.org/2000/svg" width="20" height="16" viewBox="0 0 20 16">
  <path fill-rule="evenodd" d="M2,0 L18,0 C19.1045695,-2.02906125e-16 20,0.8954305 20,2 L20,14 C20,15.1045695 19.1045695,16 18,16 L2,16 C0.8954305,16 1.3527075e-16,15.1045695 0,14 L0,2 C-1.3527075e-16,0.8954305 0.8954305,2.02906125e-16 2,0 Z M6.86145056,4.42773438 L6.69738806,4.42773438 C6.18176048,4.42773438 5.71985104,4.48730409 5.31164588,4.60644531 C4.90344071,4.72558653 4.54309275,4.89257705 4.23059119,5.10742188 C3.91808963,5.3222667 3.65051418,5.57812352 3.42785681,5.875 C3.20519945,6.17187648 3.02356064,6.49706854 2.88293494,6.85058594 C2.74230923,7.20410333 2.6397712,7.58105269 2.57531775,7.98144531 C2.5108643,8.38183794 2.47863806,8.79296664 2.47863806,9.21484375 L2.47863806,9.77148438 C2.47863806,10.2167991 2.54113744,10.640623 2.66613806,11.0429688 C2.79113869,11.4453145 2.97570715,11.8007797 3.219849,12.109375 C3.46399085,12.4179703 3.76379254,12.663085 4.11926306,12.8447266 C4.47473359,13.0263681 4.88488574,13.1171875 5.34973181,13.1171875 C5.787234,13.1171875 6.17785509,13.0419929 6.52160681,12.8916016 C6.86535853,12.7412102 7.15539469,12.5351576 7.391724,12.2734375 C7.62805331,12.0117174 7.80773901,11.7041033 7.9307865,11.3505859 C8.05383399,10.9970685 8.11535681,10.6152364 8.11535681,10.2050781 C8.11535681,9.83788879 8.06652918,9.48242359 7.96887244,9.13867188 C7.8712157,8.79492016 7.72277968,8.4902357 7.52355994,8.22460938 C7.32434019,7.95898305 7.07141303,7.7470711 6.76477088,7.58886719 C6.45812872,7.43066327 6.09778076,7.3515625 5.68371619,7.3515625 C5.32824566,7.3515625 5.00207705,7.41210877 4.70520056,7.53320312 C4.40832408,7.65429748 4.15051416,7.83007697 3.93176306,8.06054688 C3.97082576,7.7246077 4.05285619,7.40722806 4.17785681,7.10839844 C4.30285744,6.80956882 4.47961348,6.54882924 4.70813025,6.32617188 C4.93664702,6.10351451 5.21984731,5.92773502 5.55773963,5.79882812 C5.89563194,5.66992123 6.29699511,5.60546875 6.76184119,5.60546875 L6.86145056,5.60546875 L6.86145056,4.42773438 Z M5.33215369,8.5 C5.55871732,8.5 5.75793408,8.54687453 5.92980994,8.640625 C6.1016858,8.73437547 6.24523905,8.86035077 6.360474,9.01855469 C6.47570895,9.1767586 6.56262214,9.36132707 6.62121619,9.57226562 C6.67981023,9.78320418 6.70910681,10.0078113 6.70910681,10.2460938 C6.70910681,10.5000013 6.67785713,10.7324208 6.61535681,10.9433594 C6.5528565,11.1542979 6.4620371,11.3359367 6.34289588,11.4882812 C6.22375465,11.6406258 6.07922485,11.7587886 5.90930213,11.8427734 C5.7393794,11.9267582 5.54699851,11.96875 5.33215369,11.96875 C5.13684021,11.96875 4.9532483,11.9248051 4.78137244,11.8369141 C4.60949658,11.749023 4.45910746,11.6191415 4.33020056,11.4472656 C4.20129367,11.2753898 4.09875563,11.0595716 4.02258338,10.7998047 C3.94641112,10.5400378 3.90832556,10.2402361 3.90832556,9.90039062 L3.90832556,9.4609375 C3.96301334,9.32812434 4.03625479,9.20312559 4.12805213,9.0859375 C4.21984946,8.96874941 4.32727026,8.86718793 4.45031775,8.78125 C4.57336524,8.69531207 4.71008262,8.62695338 4.860474,8.57617188 C5.01086538,8.52539037 5.16809037,8.5 5.33215369,8.5 Z M13.8970532,9.95898438 L13.8970532,4.46875 L12.4263501,4.46875 L8.74666259,10.234375 L8.78767821,11.1015625 L12.4732251,11.1015625 L12.4732251,13 L13.8970532,13 L13.8970532,11.1015625 L14.9576001,11.1015625 L14.9576001,9.95898438 L13.8970532,9.95898438 Z M10.2408032,9.95898438 L12.3677563,6.58398438 L12.4732251,6.39648438 L12.4732251,9.95898438 L10.2408032,9.95898438 Z M15.9521871,12.0292969 C15.9521871,12.1796883 15.9783913,12.3186843 16.0308004,12.4462891 C16.0832095,12.5738939 16.1584041,12.6844071 16.2563863,12.777832 C16.3543686,12.871257 16.4717177,12.9441729 16.6084371,12.996582 C16.7451565,13.0489911 16.8978243,13.0751953 17.0664449,13.0751953 C17.2350656,13.0751953 17.3888726,13.0489911 17.5278707,12.996582 C17.6668688,12.9441729 17.7853572,12.871257 17.8833395,12.777832 C17.9813217,12.6844071 18.0565163,12.5738939 18.1089254,12.4462891 C18.1613345,12.3186843 18.1875387,12.1796883 18.1875387,12.0292969 C18.1875387,11.8789055 18.1613345,11.7387702 18.1089254,11.6088867 C18.0565163,11.4790033 17.9813217,11.3673507 17.8833395,11.2739258 C17.7853572,11.1805008 17.6668688,11.1064456 17.5278707,11.0517578 C17.3888726,10.99707 17.2350656,10.9697266 17.0664449,10.9697266 C16.8978243,10.9697266 16.7451565,10.99707 16.6084371,11.0517578 C16.4717177,11.1064456 16.3543686,11.1805008 16.2563863,11.2739258 C16.1584041,11.3673507 16.0832095,11.4790033 16.0308004,11.6088867 C15.9783913,11.7387702 15.9521871,11.8789055 15.9521871,12.0292969 Z"/>
</svg>
