<svg xmlns="http://www.w3.org/2000/svg" width="20" height="16" viewBox="0 0 20 16">
  <path fill-rule="evenodd" d="M2,0 L18,0 C19.1045695,-2.02906125e-16 20,0.8954305 20,2 L20,14 C20,15.1045695 19.1045695,16 18,16 L2,16 C0.8954305,16 1.3527075e-16,15.1045695 0,14 L0,2 C-1.3527075e-16,0.8954305 0.8954305,2.02906125e-16 2,0 Z M6.640625,5.14208984 L6.49023438,5.14208984 C6.01757576,5.14208984 5.59415877,5.19669542 5.2199707,5.3059082 C4.84578263,5.41512099 4.51546367,5.56819563 4.22900391,5.76513672 C3.94254414,5.96207781 3.69726665,6.19661322 3.49316406,6.46875 C3.28906148,6.74088678 3.12255924,7.0389795 2.99365234,7.36303711 C2.86474545,7.68709472 2.77075225,8.03263163 2.71166992,8.3996582 C2.6525876,8.76668478 2.62304688,9.14355275 2.62304688,9.53027344 L2.62304688,10.0405273 C2.62304688,10.4487325 2.68033797,10.8372377 2.79492188,11.2060547 C2.90950578,11.5748716 3.07869354,11.9007147 3.30249023,12.1835938 C3.52628693,12.4664728 3.80110514,12.6911613 4.12695312,12.857666 C4.45280111,13.0241708 4.82877391,13.1074219 5.25488281,13.1074219 C5.65592648,13.1074219 6.01399582,13.0384935 6.32910156,12.9006348 C6.6442073,12.762776 6.91007379,12.5738944 7.12670898,12.3339844 C7.34334418,12.0940743 7.50805608,11.8120947 7.62084961,11.4880371 C7.73364314,11.1639795 7.79003906,10.8139667 7.79003906,10.4379883 C7.79003906,10.1013981 7.7452804,9.77555496 7.65576172,9.46044922 C7.56624304,9.14534348 7.43017669,8.86604939 7.24755859,8.62255859 C7.06494049,8.37906779 6.8330906,8.18481518 6.55200195,8.03979492 C6.27091331,7.89477467 5.94059435,7.82226562 5.56103516,7.82226562 C5.23518717,7.82226562 4.93619928,7.87776637 4.6640625,7.98876953 C4.39192572,8.09977269 4.15559996,8.26090389 3.95507812,8.47216797 C3.9908856,8.16422372 4.06608016,7.87329239 4.18066406,7.59936523 C4.29524797,7.32543808 4.45727434,7.0864268 4.66674805,6.88232422 C4.87622175,6.67822164 5.13582202,6.51709043 5.44555664,6.39892578 C5.75529126,6.28076113 6.1232075,6.22167969 6.54931641,6.22167969 L6.640625,6.22167969 L6.640625,5.14208984 Z M5.23876953,8.875 C5.44645286,8.875 5.62906822,8.91796832 5.78662109,9.00390625 C5.94417396,9.08984418 6.07576445,9.20532154 6.18139648,9.3503418 C6.28702852,9.49536205 6.36669895,9.66454981 6.42041016,9.85791016 C6.47412136,10.0512705 6.50097656,10.2571604 6.50097656,10.4755859 C6.50097656,10.7083345 6.47233102,10.9213858 6.41503906,11.1147461 C6.35774711,11.3081064 6.27449599,11.4746087 6.1652832,11.6142578 C6.05607042,11.7539069 5.92358476,11.8622229 5.76782227,11.939209 C5.61205977,12.016195 5.43571062,12.0546875 5.23876953,12.0546875 C5.05973218,12.0546875 4.89143959,12.0144047 4.73388672,11.9338379 C4.57633385,11.8532711 4.43847715,11.734213 4.3203125,11.5766602 C4.20214785,11.4191073 4.10815465,11.221274 4.03833008,10.9831543 C3.96850551,10.7450346 3.93359375,10.4702164 3.93359375,10.1586914 L3.93359375,9.75585938 C3.98372421,9.63411397 4.05086221,9.51953179 4.13500977,9.41210938 C4.21915732,9.30468696 4.31762639,9.21158894 4.43041992,9.1328125 C4.54321345,9.05403606 4.66853772,8.99137393 4.80639648,8.94482422 C4.94425525,8.89827451 5.08837815,8.875 5.23876953,8.875 Z M13.0899274,10.2124023 L13.0899274,5.1796875 L11.7417829,5.1796875 L8.36873601,10.4648438 L8.40633366,11.2597656 L11.7847516,11.2597656 L11.7847516,13 L13.0899274,13 L13.0899274,11.2597656 L14.0620954,11.2597656 L14.0620954,10.2124023 L13.0899274,10.2124023 Z M9.73836491,10.2124023 L11.6880719,7.11865234 L11.7847516,6.94677734 L11.7847516,10.2124023 L9.73836491,10.2124023 Z M2,3 L2,4 L8,4 L8,3 L2,3 Z M2,1 L2,2 L12,2 L12,1 L2,1 Z"/>
</svg>
