<svg xmlns="http://www.w3.org/2000/svg" width="20" height="16" viewBox="0 0 20 16">
  <path fill-rule="evenodd" d="M2,0 L18,0 C19.1045695,-2.02906125e-16 20,0.8954305 20,2 L20,14 C20,15.1045695 19.1045695,16 18,16 L2,16 C0.8954305,16 1.3527075e-16,15.1045695 0,14 L0,2 C-1.3527075e-16,0.8954305 0.8954305,2.02906125e-16 2,0 Z M6.53304043,5.14208984 L6.38264981,5.14208984 C5.90999119,5.14208984 5.4865742,5.19669542 5.11238613,5.3059082 C4.73819807,5.41512099 4.4078791,5.56819563 4.12141934,5.76513672 C3.83495957,5.96207781 3.58968208,6.19661322 3.38557949,6.46875 C3.18147691,6.74088678 3.01497467,7.0389795 2.88606778,7.36303711 C2.75716088,7.68709472 2.66316768,8.03263163 2.60408535,8.3996582 C2.54500303,8.76668478 2.51546231,9.14355275 2.51546231,9.53027344 L2.51546231,10.0405273 C2.51546231,10.4487325 2.5727534,10.8372377 2.68733731,11.2060547 C2.80192121,11.5748716 2.97110897,11.9007147 3.19490567,12.1835938 C3.41870236,12.4664728 3.69352057,12.6911613 4.01936856,12.857666 C4.34521654,13.0241708 4.72118934,13.1074219 5.14729824,13.1074219 C5.54834192,13.1074219 5.90641125,13.0384935 6.22151699,12.9006348 C6.53662274,12.762776 6.80248922,12.5738944 7.01912442,12.3339844 C7.23575961,12.0940743 7.40047151,11.8120947 7.51326504,11.4880371 C7.62605857,11.1639795 7.68245449,10.8139667 7.68245449,10.4379883 C7.68245449,10.1013981 7.63769583,9.77555496 7.54817715,9.46044922 C7.45865847,9.14534348 7.32259213,8.86604939 7.13997403,8.62255859 C6.95735592,8.37906779 6.72550603,8.18481518 6.44441738,8.03979492 C6.16332874,7.89477467 5.83300978,7.82226562 5.45345059,7.82226562 C5.1276026,7.82226562 4.82861471,7.87776637 4.55647793,7.98876953 C4.28434115,8.09977269 4.04801539,8.26090389 3.84749356,8.47216797 C3.88330103,8.16422372 3.95849559,7.87329239 4.07307949,7.59936523 C4.1876634,7.32543808 4.34968977,7.0864268 4.55916348,6.88232422 C4.76863718,6.67822164 5.02823745,6.51709043 5.33797207,6.39892578 C5.64770669,6.28076113 6.01562294,6.22167969 6.44173184,6.22167969 L6.53304043,6.22167969 L6.53304043,5.14208984 Z M5.13118496,8.875 C5.33886829,8.875 5.52148365,8.91796832 5.67903653,9.00390625 C5.8365894,9.08984418 5.96817988,9.20532154 6.07381192,9.3503418 C6.17944395,9.49536205 6.25911438,9.66454981 6.31282559,9.85791016 C6.36653679,10.0512705 6.39339199,10.2571604 6.39339199,10.4755859 C6.39339199,10.7083345 6.36474645,10.9213858 6.30745449,11.1147461 C6.25016254,11.3081064 6.16691142,11.4746087 6.05769863,11.6142578 C5.94848585,11.7539069 5.81600019,11.8622229 5.6602377,11.939209 C5.5044752,12.016195 5.32812605,12.0546875 5.13118496,12.0546875 C4.95214761,12.0546875 4.78385502,12.0144047 4.62630215,11.9338379 C4.46874928,11.8532711 4.33089258,11.734213 4.21272793,11.5766602 C4.09456328,11.4191073 4.00057008,11.221274 3.93074551,10.9831543 C3.86092094,10.7450346 3.82600918,10.4702164 3.82600918,10.1586914 L3.82600918,9.75585938 C3.87613964,9.63411397 3.94327764,9.51953179 4.0274252,9.41210938 C4.11157275,9.30468696 4.21004182,9.21158894 4.32283535,9.1328125 C4.43562889,9.05403606 4.56095315,8.99137393 4.69881192,8.94482422 C4.83667068,8.89827451 4.98079359,8.875 5.13118496,8.875 Z M12.9823428,10.2124023 L12.9823428,5.1796875 L11.6341983,5.1796875 L8.26115144,10.4648438 L8.29874909,11.2597656 L11.6771671,11.2597656 L11.6771671,13 L12.9823428,13 L12.9823428,11.2597656 L13.9545108,11.2597656 L13.9545108,10.2124023 L12.9823428,10.2124023 Z M9.63078034,10.2124023 L11.5804874,7.11865234 L11.6771671,6.94677734 L11.6771671,10.2124023 L9.63078034,10.2124023 Z M14.9379929,12.0292969 C14.9379929,12.1796883 14.9641971,12.3186843 15.0166062,12.4462891 C15.0690153,12.5738939 15.1442099,12.6844071 15.2421921,12.777832 C15.3401744,12.871257 15.4575235,12.9441729 15.5942429,12.996582 C15.7309623,13.0489911 15.8836301,13.0751953 16.0522507,13.0751953 C16.2208714,13.0751953 16.3746784,13.0489911 16.5136765,12.996582 C16.6526746,12.9441729 16.771163,12.871257 16.8691453,12.777832 C16.9671275,12.6844071 17.0423221,12.5738939 17.0947312,12.4462891 C17.1471403,12.3186843 17.1733445,12.1796883 17.1733445,12.0292969 C17.1733445,11.8789055 17.1471403,11.7387702 17.0947312,11.6088867 C17.0423221,11.4790033 16.9671275,11.3673507 16.8691453,11.2739258 C16.771163,11.1805008 16.6526746,11.1064456 16.5136765,11.0517578 C16.3746784,10.99707 16.2208714,10.9697266 16.0522507,10.9697266 C15.8836301,10.9697266 15.7309623,10.99707 15.5942429,11.0517578 C15.4575235,11.1064456 15.3401744,11.1805008 15.2421921,11.2739258 C15.1442099,11.3673507 15.0690153,11.4790033 15.0166062,11.6088867 C14.9641971,11.7387702 14.9379929,11.8789055 14.9379929,12.0292969 Z M2,3 L2,4 L8,4 L8,3 L2,3 Z M2,1 L2,2 L12,2 L12,1 L2,1 Z"/>
</svg>
