<svg xmlns="http://www.w3.org/2000/svg" width="20" height="16" viewBox="0 0 20 16">
  <path fill-rule="evenodd" d="M2,0 L18,0 C19.1045695,-2.02906125e-16 20,0.8954305 20,2 L20,14 C20,15.1045695 19.1045695,16 18,16 L2,16 C0.8954305,16 1.3527075e-16,15.1045695 0,14 L0,2 C-1.3527075e-16,0.8954305 0.8954305,2.02906125e-16 2,0 Z M7.09863281,8.53808594 C6.4970673,8.53808594 6.0373551,8.79158275 5.71948242,9.29858398 C5.40160974,9.80558522 5.24267578,10.4886025 5.24267578,11.3476562 C5.24267578,12.2089887 5.40160974,12.8931453 5.71948242,13.4001465 C6.0373551,13.9071477 6.4970673,14.1606445 7.09863281,14.1606445 C7.70247698,14.1606445 8.16275883,13.9071477 8.47949219,13.4001465 C8.79622554,12.8931453 8.95458984,12.2089887 8.95458984,11.3476562 C8.95458984,10.4886025 8.79622554,9.80558522 8.47949219,9.29858398 C8.16275883,8.79158275 7.70247698,8.53808594 7.09863281,8.53808594 Z M6.06298828,12.4824219 C5.99462856,12.1907537 5.95589197,11.9594735 5.94677734,11.7885742 C5.93766271,11.6176749 5.93310547,11.4581713 5.93310547,11.3100586 C5.93310547,10.6606413 6.03222557,10.1245952 6.23046875,9.7019043 C6.42871193,9.27921338 6.71809706,9.06787109 7.09863281,9.06787109 C7.24446688,9.06787109 7.38517185,9.10489872 7.52075195,9.17895508 C7.65633206,9.25301144 7.78222598,9.39599503 7.8984375,9.60791016 L6.06298828,12.4824219 Z M8.12744141,10.2402344 C8.22086635,10.5774756 8.26757812,10.9283836 8.26757812,11.2929688 C8.26757812,11.883141 8.1764332,12.4203264 7.99414062,12.904541 C7.81184805,13.3887557 7.50423394,13.6308594 7.07128906,13.6308594 C6.91406171,13.6308594 6.77164777,13.5892745 6.64404297,13.5061035 C6.51643816,13.4229325 6.40364632,13.2981779 6.30566406,13.1318359 L8.12744141,10.2402344 Z M11.1420898,13.4702148 L9.84326172,13.4702148 L9.84326172,14 L13.0527344,14 L13.0527344,13.4702148 L11.777832,13.4702148 L11.777832,8.6953125 L11.1420898,8.6953125 C10.775226,9.03255377 10.3422877,9.30712785 9.84326172,9.51904297 L9.84326172,10.0932617 C10.1577164,9.98160751 10.404947,9.87223361 10.5849609,9.76513672 C10.7649749,9.65803983 10.9506826,9.52815832 11.1420898,9.37548828 L11.1420898,13.4702148 Z M15.5,8.53808594 C14.8984345,8.53808594 14.4387223,8.79158275 14.1208496,9.29858398 C13.8029769,9.80558522 13.644043,10.4886025 13.644043,11.3476562 C13.644043,12.2089887 13.8029769,12.8931453 14.1208496,13.4001465 C14.4387223,13.9071477 14.8984345,14.1606445 15.5,14.1606445 C16.1038442,14.1606445 16.564126,13.9071477 16.8808594,13.4001465 C17.1975927,12.8931453 17.355957,12.2089887 17.355957,11.3476562 C17.355957,10.4886025 17.1975927,9.80558522 16.8808594,9.29858398 C16.564126,8.79158275 16.1038442,8.53808594 15.5,8.53808594 Z M14.4643555,12.4824219 C14.3959958,12.1907537 14.3572592,11.9594735 14.3481445,11.7885742 C14.3390299,11.6176749 14.3344727,11.4581713 14.3344727,11.3100586 C14.3344727,10.6606413 14.4335928,10.1245952 14.6318359,9.7019043 C14.8300791,9.27921338 15.1194642,9.06787109 15.5,9.06787109 C15.6458341,9.06787109 15.786539,9.10489872 15.9221191,9.17895508 C16.0576992,9.25301144 16.1835932,9.39599503 16.2998047,9.60791016 L14.4643555,12.4824219 Z M16.5288086,10.2402344 C16.6222335,10.5774756 16.6689453,10.9283836 16.6689453,11.2929688 C16.6689453,11.883141 16.5778004,12.4203264 16.3955078,12.904541 C16.2132152,13.3887557 15.9056011,13.6308594 15.4726562,13.6308594 C15.3154289,13.6308594 15.173015,13.5892745 15.0454102,13.5061035 C14.9178054,13.4229325 14.8050135,13.2981779 14.7070312,13.1318359 L16.5288086,10.2402344 Z M2,1 L2,8 L9,8 L9,1 L2,1 Z M4.76191204,4.79595222 L3,4.28759727 L3.31772184,3.3113247 L5.0623036,3.98720571 L4.97565219,2 L6.00969237,2 L5.92304096,4.02186628 L7.63873892,3.35753879 L7.950684,4.35114164 L6.15988815,4.85949659 L7.31524031,6.39611496 L6.47761,7.00845161 L5.43779305,5.3447445 L4.40952963,6.95646076 L3.56612256,6.36723116 L4.76191204,4.79595222 Z"/>
</svg>
