<svg xmlns="http://www.w3.org/2000/svg" width="20" height="16" viewBox="0 0 20 16">
  <path fill-rule="evenodd" d="M2,0 L18,0 C19.1045695,-2.02906125e-16 20,0.8954305 20,2 L20,14 C20,15.1045695 19.1045695,16 18,16 L2,16 C0.8954305,16 1.3527075e-16,15.1045695 0,14 L0,2 C-1.3527075e-16,0.8954305 0.8954305,2.02906125e-16 2,0 Z M13.3253968,2.92857143 L7.1031746,2.92857143 L7.1031746,1.64285714 L5.54761905,1.64285714 L5.54761905,2.92857143 L4.76984127,2.92857143 C3.90650794,2.92857143 3.22206349,3.50714286 3.22206349,4.21428571 L3.21428571,12.2142857 C3.21428571,12.9214286 3.90650794,13.5 4.76984127,13.5 L15.6587302,13.5 C16.5142857,13.5 17.2142857,12.9214286 17.2142857,12.2142857 L17.2142857,4.21428571 C17.2142857,3.50714286 16.5142857,2.92857143 15.6587302,2.92857143 L14.8809524,2.92857143 L14.8809524,1.64285714 L13.3253968,1.64285714 L13.3253968,2.92857143 Z M4.5,12.2142857 L4.5,5.14285714 L15.5,5.14285714 L15.5,12.2142857 L4.5,12.2142857 Z M6,8 L8,8 L8,7 L6,7 L6,8 Z M6,9 L8,9 L8,8 L6,8 L6,9 Z"/>
</svg>
