<svg xmlns="http://www.w3.org/2000/svg" width="20" height="16" viewBox="0 0 20 16">
  <path fill-rule="evenodd" d="M2,0 L18,0 C19.1045695,-2.02906125e-16 20,0.8954305 20,2 L20,14 C20,15.1045695 19.1045695,16 18,16 L2,16 C0.8954305,16 1.3527075e-16,15.1045695 0,14 L0,2 C-1.3527075e-16,0.8954305 0.8954305,2.02906125e-16 2,0 Z M7.08480751,3.71337891 L6.90707313,3.71337891 C6.34847659,3.71337891 5.84807469,3.77791277 5.40585243,3.90698242 C4.96363016,4.03605208 4.57325321,4.21695847 4.23470985,4.44970703 C3.89616649,4.68245559 3.60629309,4.95963381 3.36508094,5.28125 C3.1238688,5.60286619 2.92709342,5.95515759 2.77474891,6.33813477 C2.6224044,6.72111194 2.51132153,7.12947374 2.44149696,7.56323242 C2.37167239,7.9969911 2.33676063,8.44238053 2.33676063,8.89941406 L2.33676063,9.50244141 C2.33676063,9.98486569 2.40446829,10.4440082 2.53988563,10.8798828 C2.67530298,11.3157574 2.87525215,11.7008447 3.13973915,12.0351562 C3.40422615,12.3694678 3.72901131,12.6350088 4.11410438,12.8317871 C4.49919745,13.0285654 4.94352895,13.1269531 5.44711219,13.1269531 C5.9210729,13.1269531 6.34424575,13.0454924 6.71664344,12.8825684 C7.08904114,12.7196444 7.40324698,12.4964207 7.6592704,12.2128906 C7.91529381,11.9293606 8.10995332,11.5961119 8.24325477,11.2131348 C8.37655622,10.8301576 8.44320594,10.4165061 8.44320594,9.97216797 C8.44320594,9.57437952 8.39030934,9.18929223 8.28451454,8.81689453 C8.17871974,8.44449684 8.01791405,8.11442201 7.80209266,7.82666016 C7.58627127,7.5388983 7.31226685,7.30932703 6.98007118,7.13793945 C6.64787551,6.96655188 6.25749855,6.88085938 5.8089286,6.88085938 C5.42383553,6.88085938 5.0704862,6.94645117 4.74887001,7.07763672 C4.42725381,7.20882227 4.14795973,7.39925005 3.91097938,7.64892578 C3.9532973,7.28499167 4.0421636,6.94116373 4.17758094,6.61743164 C4.31299829,6.29369955 4.504484,6.01123167 4.75204383,5.77001953 C4.99960367,5.52880739 5.30640398,5.3383796 5.67245399,5.19873047 C6.038504,5.05908133 6.4733141,4.98925781 6.97689735,4.98925781 L7.08480751,4.98925781 L7.08480751,3.71337891 Z M5.42806923,8.125 C5.67351316,8.125 5.88933131,8.17578074 6.07553016,8.27734375 C6.26172901,8.37890676 6.41724503,8.51538 6.5420829,8.68676758 C6.66692076,8.85815515 6.76107672,9.05810433 6.8245536,9.28662109 C6.88803048,9.51513786 6.91976844,9.75846225 6.91976844,10.0166016 C6.91976844,10.291668 6.88591462,10.5434559 6.81820594,10.7719727 C6.75049727,11.0004894 6.65210958,11.1972648 6.52303993,11.3623047 C6.39397027,11.5273446 6.23739632,11.6553544 6.05331337,11.7463379 C5.86923041,11.8373214 5.66081778,11.8828125 5.42806923,11.8828125 C5.21647963,11.8828125 5.01758839,11.8352056 4.83138954,11.7399902 C4.64519069,11.6447749 4.48226914,11.5040699 4.34262001,11.3178711 C4.20297087,11.1316722 4.091888,10.8978692 4.00936805,10.6164551 C3.92684811,10.3350409 3.88558876,10.0102557 3.88558876,9.64208984 L3.88558876,9.16601562 C3.94483384,9.0221347 4.02417875,8.88671938 4.12362587,8.75976562 C4.22307298,8.63281187 4.33944551,8.52278692 4.47274696,8.4296875 C4.60604841,8.33658808 4.75415891,8.26253283 4.9170829,8.20751953 C5.08000689,8.15250624 5.25033396,8.125 5.42806923,8.125 Z M14.7067104,9.70556641 L14.7067104,3.7578125 L13.1134487,3.7578125 L9.12712055,10.0039062 L9.17155414,10.9433594 L13.1642299,10.9433594 L13.1642299,13 L14.7067104,13 L14.7067104,10.9433594 L15.8556362,10.9433594 L15.8556362,9.70556641 L14.7067104,9.70556641 Z M10.7457729,9.70556641 L13.0499721,6.04931641 L13.1642299,5.84619141 L13.1642299,9.70556641 L10.7457729,9.70556641 Z"/>
</svg>
