<svg xmlns="http://www.w3.org/2000/svg" width="20" height="16" viewBox="0 0 20 16">
  <path fill-rule="evenodd" d="M2,0 L18,0 C19.1045695,-2.02906125e-16 20,0.8954305 20,2 L20,14 C20,15.1045695 19.1045695,16 18,16 L2,16 C0.8954305,16 1.3527075e-16,15.1045695 0,14 L0,2 C-1.3527075e-16,0.8954305 0.8954305,2.02906125e-16 2,0 Z M9.56689453,11.0957031 L9.85888672,13 L11.7568359,13 L9.99853516,3.7578125 L8.27832031,3.7578125 L3.33984375,13 L5.39013672,13 L6.34228516,11.0957031 L9.56689453,11.0957031 Z M7.10400391,9.55322266 L8.81152344,6.11279297 L9.33203125,9.55322266 L7.10400391,9.55322266 Z"/>
</svg>
