<svg xmlns="http://www.w3.org/2000/svg" width="20" height="16" viewBox="0 0 20 16">
  <path fill-rule="evenodd" d="M2,0 L18,0 C19.1045695,-2.02906125e-16 20,0.8954305 20,2 L20,14 C20,15.1045695 19.1045695,16 18,16 L2,16 C0.8954305,16 1.3527075e-16,15.1045695 0,14 L0,2 C-1.3527075e-16,0.8954305 0.8954305,2.02906125e-16 2,0 Z M4.06506064,8.08398438 L4.06506064,9.20898438 L4.90881064,9.20898438 C5.15099935,9.20898438 5.36877061,9.23632785 5.56213095,9.29101562 C5.75549129,9.3457034 5.9205287,9.43066349 6.05724814,9.54589844 C6.19396757,9.66113339 6.29943527,9.80663975 6.37365439,9.98242188 C6.44787351,10.158204 6.48498251,10.3671863 6.48498251,10.609375 C6.48498251,11.0546897 6.35803066,11.3945301 6.10412314,11.6289062 C5.85021562,11.8632824 5.50256284,11.9804688 5.06115439,11.9804688 C4.85021583,11.9804688 4.6588115,11.9501956 4.48693564,11.8896484 C4.31505978,11.8291013 4.16857687,11.7431646 4.04748251,11.6318359 C3.92638816,11.5205073 3.83263909,11.3867195 3.76623251,11.2304688 C3.69982593,11.074218 3.66662314,10.9023447 3.66662314,10.7148438 L2.24279501,10.7148438 C2.24279501,11.109377 2.31896613,11.4570297 2.47131064,11.7578125 C2.62365515,12.0585953 2.82873122,12.3095693 3.08654501,12.5107422 C3.3443588,12.7119151 3.64220739,12.8632807 3.9800997,12.9648438 C4.31799201,13.0664068 4.67248066,13.1171875 5.04357626,13.1171875 C5.44982829,13.1171875 5.8277542,13.061524 6.17736532,12.9501953 C6.52697645,12.8388666 6.8297078,12.6767589 7.08556845,12.4638672 C7.3414291,12.2509755 7.54162241,11.9882828 7.68615439,11.6757812 C7.83068636,11.3632797 7.90295126,11.0078145 7.90295126,10.609375 C7.90295126,10.3984364 7.87658434,10.1933604 7.8238497,9.99414062 C7.77111506,9.79492088 7.68810808,9.60839931 7.57482626,9.43457031 C7.46154445,9.26074132 7.31408498,9.10449288 7.13244345,8.96582031 C6.95080192,8.82714774 6.72912445,8.71289107 6.46740439,8.62304688 C6.68615548,8.52539014 6.87755982,8.40527415 7.04162314,8.26269531 C7.20568646,8.12011647 7.34240384,7.96777425 7.45177939,7.80566406 C7.56115493,7.64355388 7.64318536,7.47461025 7.69787314,7.29882812 C7.75256091,7.123046 7.77990439,6.94921961 7.77990439,6.77734375 C7.77990439,6.37890426 7.7134988,6.02832183 7.58068564,5.72558594 C7.44787247,5.42285005 7.2613509,5.16992289 7.02111532,4.96679688 C6.78087975,4.76367086 6.49279669,4.61035208 6.15685751,4.50683594 C5.82091833,4.40331979 5.44982829,4.3515625 5.04357626,4.3515625 C4.64904304,4.3515625 4.28478887,4.41015566 3.95080282,4.52734375 C3.61681678,4.64453184 3.32971028,4.80761614 3.0894747,5.01660156 C2.84923912,5.22558698 2.661741,5.47265482 2.5269747,5.7578125 C2.3922084,6.04297018 2.32482626,6.35351395 2.32482626,6.68945312 L3.74865439,6.68945312 C3.74865439,6.50585846 3.78185718,6.34082104 3.84826376,6.19433594 C3.91467034,6.04785083 4.0064663,5.92285208 4.12365439,5.81933594 C4.24084247,5.71581979 4.37951296,5.63574247 4.53967001,5.57910156 C4.69982706,5.52246065 4.87365345,5.49414062 5.06115439,5.49414062 C5.49865657,5.49414062 5.82384864,5.60644419 6.03674032,5.83105469 C6.24963201,6.05566519 6.35607626,6.37109172 6.35607626,6.77734375 C6.35607626,6.97265723 6.32677968,7.15038982 6.26818564,7.31054688 C6.20959159,7.47070393 6.11974874,7.60742131 5.99865439,7.72070312 C5.87756003,7.83398494 5.72717091,7.92285124 5.54748251,7.98730469 C5.36779411,8.05175813 5.15490562,8.08398438 4.90881064,8.08398438 L4.06506064,8.08398438 Z M14.8037883,13 L14.8037883,11.8632812 L10.8428508,11.8632812 L12.7471477,9.82421875 C12.9971489,9.56249869 13.2276154,9.30175911 13.4385539,9.04199219 C13.6494925,8.78222526 13.8311313,8.52343879 13.9834758,8.265625 C14.1358203,8.00781121 14.2549597,7.74902474 14.3408977,7.48925781 C14.4268356,7.22949089 14.4698039,6.9667982 14.4698039,6.70117188 C14.4698039,6.34570135 14.4102342,6.02246239 14.291093,5.73144531 C14.1719518,5.44042823 13.9981254,5.19336039 13.7696086,4.99023438 C13.5410918,4.78710836 13.2608212,4.62988337 12.9287883,4.51855469 C12.5967554,4.40722601 12.2178529,4.3515625 11.7920695,4.3515625 C11.3311297,4.3515625 10.9209776,4.42285085 10.5616008,4.56542969 C10.202224,4.70800853 9.89949264,4.90234252 9.65339766,5.1484375 C9.40730268,5.39453248 9.22078111,5.68261554 9.09382735,6.01269531 C8.96687359,6.34277509 8.90339766,6.69531062 8.90339766,7.0703125 L10.3272258,7.0703125 C10.3272258,6.8398426 10.3574989,6.62793065 10.4180461,6.43457031 C10.4785933,6.24120997 10.5684361,6.07519601 10.6875773,5.93652344 C10.8067186,5.79785087 10.9571077,5.68945352 11.1387492,5.61132812 C11.3203908,5.53320273 11.5342558,5.49414062 11.7803508,5.49414062 C11.9834768,5.49414062 12.1631625,5.52831997 12.3194133,5.59667969 C12.4756641,5.6650394 12.6074987,5.75976502 12.7149211,5.88085938 C12.8223435,6.00195373 12.9043739,6.14550698 12.9610148,6.31152344 C13.0176558,6.47753989 13.0459758,6.65820215 13.0459758,6.85351562 C13.0459758,6.9980476 13.0274213,7.1425774 12.9903117,7.28710938 C12.9532022,7.43164135 12.8887497,7.58691323 12.7969523,7.75292969 C12.705155,7.91894614 12.5821094,8.10253806 12.4278117,8.30371094 C12.2735141,8.50488382 12.0791801,8.73437371 11.8448039,8.9921875 L9.06746016,12.0214844 L9.06746016,13 L14.8037883,13 Z M15.9521871,12.0292969 C15.9521871,12.1796883 15.9783913,12.3186843 16.0308004,12.4462891 C16.0832095,12.5738939 16.1584041,12.6844071 16.2563863,12.777832 C16.3543686,12.871257 16.4717177,12.9441729 16.6084371,12.996582 C16.7451565,13.0489911 16.8978243,13.0751953 17.0664449,13.0751953 C17.2350656,13.0751953 17.3888726,13.0489911 17.5278707,12.996582 C17.6668688,12.9441729 17.7853572,12.871257 17.8833395,12.777832 C17.9813217,12.6844071 18.0565163,12.5738939 18.1089254,12.4462891 C18.1613345,12.3186843 18.1875387,12.1796883 18.1875387,12.0292969 C18.1875387,11.8789055 18.1613345,11.7387702 18.1089254,11.6088867 C18.0565163,11.4790033 17.9813217,11.3673507 17.8833395,11.2739258 C17.7853572,11.1805008 17.6668688,11.1064456 17.5278707,11.0517578 C17.3888726,10.99707 17.2350656,10.9697266 17.0664449,10.9697266 C16.8978243,10.9697266 16.7451565,10.99707 16.6084371,11.0517578 C16.4717177,11.1064456 16.3543686,11.1805008 16.2563863,11.2739258 C16.1584041,11.3673507 16.0832095,11.4790033 16.0308004,11.6088867 C15.9783913,11.7387702 15.9521871,11.8789055 15.9521871,12.0292969 Z"/>
</svg>
