<svg xmlns="http://www.w3.org/2000/svg" width="20" height="16" viewBox="0 0 20 16">
  <path fill-rule="evenodd" d="M2,0 L18,0 C19.1045695,-2.02906125e-16 20,0.8954305 20,2 L20,14 C20,15.1045695 19.1045695,16 18,16 L2,16 C0.8954305,16 1.3527075e-16,15.1045695 0,14 L0,2 C-1.3527075e-16,0.8954305 0.8954305,2.02906125e-16 2,0 Z M4.09472656,8.49365234 L4.09472656,9.52490234 L4.86816406,9.52490234 C5.09017038,9.52490234 5.28979404,9.5499672 5.46704102,9.60009766 C5.644288,9.65022812 5.79557229,9.7281082 5.92089844,9.83374023 C6.04622458,9.93937227 6.14290331,10.0727531 6.2109375,10.2338867 C6.27897169,10.3950203 6.31298828,10.5865874 6.31298828,10.8085938 C6.31298828,11.2167989 6.19661575,11.5283192 5.96386719,11.7431641 C5.73111863,11.9580089 5.41243692,12.0654297 5.0078125,12.0654297 C4.81445216,12.0654297 4.63899818,12.0376793 4.48144531,11.9821777 C4.32389244,11.9266762 4.18961644,11.8479009 4.07861328,11.7458496 C3.96761012,11.6437983 3.88167348,11.5211596 3.82080078,11.3779297 C3.75992808,11.2346998 3.72949219,11.0771493 3.72949219,10.9052734 L2.42431641,10.9052734 C2.42431641,11.2669289 2.49413993,11.5856106 2.63378906,11.8613281 C2.7734382,12.1370456 2.9614246,12.3671052 3.19775391,12.5515137 C3.43408321,12.7359221 3.70711108,12.874674 4.0168457,12.9677734 C4.32658032,13.0608729 4.65152825,13.1074219 4.99169922,13.1074219 C5.36409691,13.1074219 5.710529,13.056397 6.03100586,12.9543457 C6.35148272,12.8522944 6.62898646,12.7036956 6.86352539,12.5085449 C7.09806432,12.3133942 7.28157486,12.0725926 7.4140625,11.7861328 C7.54655014,11.499673 7.61279297,11.17383 7.61279297,10.8085938 C7.61279297,10.6152334 7.58862329,10.427247 7.5402832,10.2446289 C7.49194312,10.0620108 7.41585338,9.8910327 7.31201172,9.73168945 C7.20817005,9.57234621 7.07299888,9.42911847 6.90649414,9.30200195 C6.7399894,9.17488543 6.53678505,9.07015015 6.296875,8.98779297 C6.49739684,8.89827429 6.67285081,8.78816797 6.82324219,8.6574707 C6.97363356,8.52677344 7.09895783,8.38712639 7.19921875,8.23852539 C7.29947967,8.08992439 7.37467423,7.9350594 7.42480469,7.77392578 C7.47493515,7.61279216 7.5,7.45345131 7.5,7.29589844 C7.5,6.93066224 7.43912821,6.60929501 7.31738281,6.33178711 C7.19563741,6.05427921 7.0246593,5.82242932 6.80444336,5.63623047 C6.58422741,5.45003162 6.32015128,5.30948941 6.01220703,5.21459961 C5.70426278,5.11970981 5.36409691,5.07226562 4.99169922,5.07226562 C4.63004376,5.07226562 4.29614411,5.12597603 3.98999023,5.23339844 C3.68383636,5.34082085 3.4206554,5.4903148 3.20043945,5.68188477 C2.98022351,5.87345473 2.80835023,6.09993359 2.68481445,6.36132812 C2.56127868,6.62272266 2.49951172,6.90738778 2.49951172,7.21533203 L3.8046875,7.21533203 C3.8046875,7.04703692 3.83512339,6.89575262 3.89599609,6.76147461 C3.95686879,6.62719659 4.04101509,6.51261441 4.1484375,6.41772461 C4.25585991,6.32283481 4.38297453,6.2494306 4.52978516,6.19750977 C4.67659579,6.14558893 4.83593664,6.11962891 5.0078125,6.11962891 C5.40885617,6.11962891 5.70694889,6.22257384 5.90209961,6.4284668 C6.09725032,6.63435975 6.19482422,6.92350074 6.19482422,7.29589844 C6.19482422,7.47493579 6.16796902,7.63785734 6.11425781,7.78466797 C6.06054661,7.9314786 5.97819066,8.05680287 5.8671875,8.16064453 C5.75618434,8.2644862 5.61832765,8.34594697 5.45361328,8.4050293 C5.28889892,8.46411162 5.09375113,8.49365234 4.86816406,8.49365234 L4.09472656,8.49365234 Z M13.9242745,13 L13.9242745,11.9580078 L10.2934151,11.9580078 L12.0390206,10.0888672 C12.2681884,9.84895713 12.4794493,9.60994585 12.6728097,9.37182617 C12.86617,9.13370649 13.0326723,8.89648556 13.1723214,8.66015625 C13.3119705,8.42382694 13.4211817,8.18660601 13.4999581,7.94848633 C13.5787346,7.71036665 13.6181222,7.46956502 13.6181222,7.22607422 C13.6181222,6.90022624 13.5635166,6.60392386 13.4543038,6.3371582 C13.345091,6.07039255 13.1857502,5.84391369 12.9762765,5.65771484 C12.7668028,5.471516 12.509888,5.32739309 12.2055245,5.2253418 C11.901161,5.12329051 11.5538338,5.07226562 11.1635323,5.07226562 C10.7410042,5.07226562 10.3650314,5.13761328 10.0356026,5.26831055 C9.70617392,5.39900781 9.42867018,5.57714731 9.20308312,5.80273438 C8.97749605,6.02832144 8.80651795,6.29239758 8.69014367,6.5949707 C8.57376939,6.89754383 8.51558312,7.22070141 8.51558312,7.56445312 L9.8207589,7.56445312 C9.8207589,7.35318905 9.84850927,7.15893643 9.90401085,6.98168945 C9.95951243,6.80444247 10.0418684,6.65226301 10.1510812,6.52514648 C10.260294,6.39802996 10.3981506,6.29866572 10.5646554,6.22705078 C10.7311601,6.15543584 10.9272031,6.11962891 11.1527901,6.11962891 C11.338989,6.11962891 11.5037009,6.15095997 11.6469308,6.21362305 C11.7901607,6.27628612 11.9110091,6.36311793 12.0094796,6.47412109 C12.1079501,6.58512425 12.1831447,6.71671473 12.2350655,6.86889648 C12.2869864,7.02107823 12.3129464,7.1866853 12.3129464,7.36572266 C12.3129464,7.4982103 12.2959381,7.63069595 12.261921,7.76318359 C12.2279039,7.89567124 12.1688225,8.0380038 12.0846749,8.19018555 C12.0005274,8.3423673 11.8877355,8.51065989 11.746296,8.69506836 C11.6048565,8.87947683 11.426717,9.08984257 11.2118722,9.32617188 L8.66597374,12.1030273 L8.66597374,13 L13.9242745,13 Z M2,3 L2,4 L8,4 L8,3 L2,3 Z M2,1 L2,2 L12,2 L12,1 L2,1 Z"/>
</svg>
