<svg xmlns="http://www.w3.org/2000/svg" width="20" height="16" viewBox="0 0 20 16">
  <path fill-rule="evenodd" d="M2,0 L18,0 C19.1045695,-2.02906125e-16 20,0.8954305 20,2 L20,14 C20,15.1045695 19.1045695,16 18,16 L2,16 C0.8954305,16 1.3527075e-16,15.1045695 0,14 L0,2 C-1.3527075e-16,0.8954305 0.8954305,2.02906125e-16 2,0 Z M4.69824219,5.97753906 C3.92480082,5.97753906 3.33374228,6.30346354 2.92504883,6.95532227 C2.51635538,7.60718099 2.31201172,8.48534604 2.31201172,9.58984375 C2.31201172,10.6972712 2.51635538,11.576901 2.92504883,12.2287598 C3.33374228,12.8806185 3.92480082,13.206543 4.69824219,13.206543 C5.47461326,13.206543 6.06640421,12.8806185 6.47363281,12.2287598 C6.88086141,11.576901 7.08447266,10.6972712 7.08447266,9.58984375 C7.08447266,8.48534604 6.88086141,7.60718099 6.47363281,6.95532227 C6.06640421,6.30346354 5.47461326,5.97753906 4.69824219,5.97753906 Z M3.36669922,11.0488281 C3.27880815,10.6738263 3.22900396,10.3764659 3.21728516,10.1567383 C3.20556635,9.93701062 3.19970703,9.73193455 3.19970703,9.54150391 C3.19970703,8.70653879 3.32714716,8.0173367 3.58203125,7.47387695 C3.83691534,6.9304172 4.20898193,6.65869141 4.69824219,6.65869141 C4.88574313,6.65869141 5.06664952,6.70629835 5.2409668,6.80151367 C5.41528407,6.89672899 5.57714769,7.08056504 5.7265625,7.35302734 L3.36669922,11.0488281 Z M6.02099609,8.16601562 C6.14111388,8.59961154 6.20117188,9.05077891 6.20117188,9.51953125 C6.20117188,10.2783241 6.08398555,10.968991 5.84960938,11.5915527 C5.6152332,12.2141144 5.21972935,12.5253906 4.66308594,12.5253906 C4.46093649,12.5253906 4.27783285,12.4719244 4.11376953,12.3649902 C3.94970621,12.2580561 3.80468813,12.0976573 3.67871094,11.8837891 L6.02099609,8.16601562 Z M9.53697266,12.3188477 L7.86705078,12.3188477 L7.86705078,13 L11.9935156,13 L11.9935156,12.3188477 L10.3543555,12.3188477 L10.3543555,6.1796875 L9.53697266,6.1796875 C9.06529061,6.61328342 8.50865555,6.96630723 7.86705078,7.23876953 L7.86705078,7.97705078 C8.27134968,7.83349538 8.58921759,7.69287178 8.82066406,7.55517578 C9.05211053,7.41747978 9.29087768,7.25048926 9.53697266,7.05419922 L9.53697266,12.3188477 Z M14.78,5.97753906 C14.0065586,5.97753906 13.4155001,6.30346354 13.0068066,6.95532227 C12.5981132,7.60718099 12.3937695,8.48534604 12.3937695,9.58984375 C12.3937695,10.6972712 12.5981132,11.576901 13.0068066,12.2287598 C13.4155001,12.8806185 14.0065586,13.206543 14.78,13.206543 C15.5563711,13.206543 16.148162,12.8806185 16.5553906,12.2287598 C16.9626192,11.576901 17.1662305,10.6972712 17.1662305,9.58984375 C17.1662305,8.48534604 16.9626192,7.60718099 16.5553906,6.95532227 C16.148162,6.30346354 15.5563711,5.97753906 14.78,5.97753906 Z M13.448457,11.0488281 C13.360566,10.6738263 13.3107618,10.3764659 13.299043,10.1567383 C13.2873242,9.93701062 13.2814648,9.73193455 13.2814648,9.54150391 C13.2814648,8.70653879 13.408905,8.0173367 13.6637891,7.47387695 C13.9186731,6.9304172 14.2907397,6.65869141 14.78,6.65869141 C14.9675009,6.65869141 15.1484073,6.70629835 15.3227246,6.80151367 C15.4970419,6.89672899 15.6589055,7.08056504 15.8083203,7.35302734 L13.448457,11.0488281 Z M16.1027539,8.16601562 C16.2228717,8.59961154 16.2829297,9.05077891 16.2829297,9.51953125 C16.2829297,10.2783241 16.1657434,10.968991 15.9313672,11.5915527 C15.696991,12.2141144 15.3014872,12.5253906 14.7448437,12.5253906 C14.5426943,12.5253906 14.3595907,12.4719244 14.1955273,12.3649902 C14.031464,12.2580561 13.8864459,12.0976573 13.7604687,11.8837891 L16.1027539,8.16601562 Z"/>
</svg>
