<svg xmlns="http://www.w3.org/2000/svg" width="20" height="16" viewBox="0 0 20 16">
  <path fill-rule="evenodd" d="M2,0 L18,0 C19.1045695,-2.02906125e-16 20,0.8954305 20,2 L20,14 C20,15.1045695 19.1045695,16 18,16 L2,16 C0.8954305,16 1.3527075e-16,15.1045695 0,14 L0,2 C-1.3527075e-16,0.8954305 0.8954305,2.02906125e-16 2,0 Z M4.47558594,7.67431641 L4.47558594,8.89306641 L5.38964844,8.89306641 C5.65201954,8.89306641 5.88793841,8.92268851 6.09741211,8.98193359 C6.30688581,9.04117868 6.48567634,9.13321878 6.63378906,9.25805664 C6.78190178,9.3828945 6.89615845,9.54052639 6.9765625,9.73095703 C7.05696655,9.92138767 7.09716797,10.1477851 7.09716797,10.4101562 C7.09716797,10.8925805 6.95963679,11.2607409 6.68457031,11.5146484 C6.40950383,11.768556 6.03288,11.8955078 5.5546875,11.8955078 C5.32617073,11.8955078 5.11881604,11.8627119 4.93261719,11.7971191 C4.74641834,11.7315264 4.58772852,11.6384283 4.45654297,11.5178223 C4.32535742,11.3972162 4.22379593,11.2522795 4.15185547,11.0830078 C4.079915,10.9137361 4.04394531,10.7275401 4.04394531,10.5244141 L2.50146484,10.5244141 C2.50146484,10.9518251 2.58398355,11.3284489 2.74902344,11.6542969 C2.91406333,11.9801449 3.13622907,12.2520334 3.41552734,12.4699707 C3.69482562,12.687908 4.01749491,12.8518875 4.38354492,12.9619141 C4.74959493,13.0719407 5.13362429,13.1269531 5.53564453,13.1269531 C5.9757509,13.1269531 6.38517063,13.066651 6.76391602,12.9460449 C7.1426614,12.8254389 7.47062036,12.6498221 7.74780273,12.4191895 C8.02498511,12.1885568 8.2418612,11.903973 8.3984375,11.5654297 C8.5550138,11.2268863 8.63330078,10.841799 8.63330078,10.4101562 C8.63330078,10.1816395 8.60473661,9.95947374 8.54760742,9.74365234 C8.49047823,9.52783095 8.400554,9.32576592 8.27783203,9.13745117 C8.15511006,8.94913643 7.99536231,8.77986729 7.79858398,8.62963867 C7.60180566,8.47941006 7.36165506,8.355632 7.078125,8.25830078 C7.31510535,8.15250598 7.52246005,8.02238033 7.70019531,7.86791992 C7.87793058,7.71345951 8.02604107,7.5484221 8.14453125,7.37280273 C8.26302143,7.19718337 8.35188772,7.01416111 8.41113281,6.82373047 C8.4703779,6.63329983 8.5,6.44498791 8.5,6.25878906 C8.5,5.82714628 8.42806062,5.44734865 8.28417969,5.11938477 C8.14029876,4.79142089 7.93823372,4.51741646 7.67797852,4.29736328 C7.41772331,4.0773101 7.10563333,3.91121475 6.74169922,3.79907227 C6.37776511,3.68692978 5.9757509,3.63085938 5.53564453,3.63085938 C5.10823354,3.63085938 4.71362486,3.6943353 4.35180664,3.82128906 C3.98998843,3.94824282 3.67895638,4.12491749 3.41870117,4.35131836 C3.15844596,4.57771923 2.955323,4.84537606 2.80932617,5.15429688 C2.66332935,5.46321769 2.59033203,5.79964011 2.59033203,6.16357422 L4.1328125,6.16357422 C4.1328125,5.96468 4.16878219,5.78588947 4.24072266,5.62719727 C4.31266312,5.46850507 4.41210874,5.33308975 4.5390625,5.22094727 C4.66601626,5.10880478 4.81624262,5.02205434 4.98974609,4.96069336 C5.16324957,4.89933238 5.35156148,4.86865234 5.5546875,4.86865234 C6.0286482,4.86865234 6.3809396,4.99031454 6.61157227,5.23364258 C6.84220493,5.47697062 6.95751953,5.8186827 6.95751953,6.25878906 C6.95751953,6.47037866 6.92578157,6.66292231 6.86230469,6.83642578 C6.79882781,7.00992925 6.70149805,7.15803975 6.5703125,7.28076172 C6.43912695,7.40348369 6.2762054,7.49975551 6.08154297,7.56958008 C5.88688054,7.63940465 5.65625133,7.67431641 5.38964844,7.67431641 L4.47558594,7.67431641 Z M16.1092076,13 L16.1092076,11.7685547 L11.818192,11.7685547 L13.8811802,9.55957031 C14.1520149,9.27604025 14.4016869,8.99357237 14.6302037,8.7121582 C14.8587204,8.43074404 15.0554958,8.15039202 15.2205357,7.87109375 C15.3855756,7.59179548 15.5146433,7.31144346 15.6077427,7.0300293 C15.7008422,6.74861513 15.7473912,6.46403139 15.7473912,6.17626953 C15.7473912,5.79117646 15.6828573,5.44100093 15.5537877,5.12573242 C15.424718,4.81046392 15.2364061,4.54280709 14.9888462,4.32275391 C14.7412864,4.10270072 14.4376599,3.93237365 14.0779576,3.81176758 C13.7182553,3.69116151 13.3077776,3.63085938 12.8465123,3.63085938 C12.3471608,3.63085938 11.9028293,3.70808842 11.5135045,3.86254883 C11.1241796,4.01700924 10.7962206,4.22753773 10.5296177,4.49414062 C10.2630148,4.76074352 10.0609498,5.0728335 9.92341656,5.43041992 C9.78588332,5.78800635 9.71711773,6.16991984 9.71711773,6.57617188 L11.2595982,6.57617188 C11.2595982,6.32649615 11.2923941,6.09692488 11.3579869,5.88745117 C11.4235796,5.67797747 11.5209094,5.49812901 11.6499791,5.34790039 C11.7790487,5.19767177 11.9419703,5.08024131 12.1387486,4.99560547 C12.3355269,4.91096963 12.5672141,4.86865234 12.833817,4.86865234 C13.0538701,4.86865234 13.2485296,4.90567997 13.4178013,4.97973633 C13.587073,5.05379269 13.7298938,5.1564121 13.8462681,5.28759766 C13.9626424,5.41878321 14.0515087,5.57429923 14.1128697,5.75415039 C14.1742307,5.93400155 14.2049107,6.12971899 14.2049107,6.34130859 C14.2049107,6.4978849 14.18481,6.65445885 14.144608,6.81103516 C14.1044059,6.96761146 14.0345824,7.13582267 13.9351353,7.31567383 C13.8356882,7.49552499 13.7023887,7.69441623 13.535233,7.91235352 C13.3680772,8.1302908 13.1575487,8.37890485 12.9036412,8.65820312 L9.89485211,11.9399414 L9.89485211,13 L16.1092076,13 Z"/>
</svg>
