<svg xmlns="http://www.w3.org/2000/svg" width="20" height="16" viewBox="0 0 20 16">
  <path fill-rule="evenodd" d="M11,10 L11,9 L9,9 L9,10 L11,10 Z M2,0 L18,0 C19.1045695,-2.02906125e-16 20,0.8954305 20,2 L20,14 C20,15.1045695 19.1045695,16 18,16 L2,16 C0.8954305,16 1.3527075e-16,15.1045695 0,14 L0,2 C-1.3527075e-16,0.8954305 0.8954305,2.02906125e-16 2,0 Z M14.1587302,5.65306122 L9.26984127,5.65306122 L9.26984127,4.64285714 L8.04761905,4.64285714 L8.04761905,5.65306122 L7.43650794,5.65306122 C6.7581746,5.65306122 6.22039683,6.10765306 6.22039683,6.66326531 L6.21428571,12.9489796 C6.21428571,13.5045918 6.7581746,13.9591837 7.43650794,13.9591837 L15.9920635,13.9591837 C16.6642857,13.9591837 17.2142857,13.5045918 17.2142857,12.9489796 L17.2142857,6.66326531 C17.2142857,6.10765306 16.6642857,5.65306122 15.9920635,5.65306122 L15.3809524,5.65306122 L15.3809524,4.64285714 L14.1587302,4.64285714 L14.1587302,5.65306122 Z M7.5,13.2857141 L7.5,8.14285714 L15.5,8.14285714 L15.5,13.2857141 L7.5,13.2857141 Z M9,11 L11,11 L11,10 L9,10 L9,11 Z M2,3 L2,4 L8,4 L8,3 L2,3 Z M2,1 L2,2 L12,2 L12,1 L2,1 Z"/>
</svg>
