<svg xmlns="http://www.w3.org/2000/svg" width="20" height="16" viewBox="0 0 20 16">
  <path fill-rule="evenodd" d="M2,0 L18,0 C19.1045695,-2.02906125e-16 20,0.8954305 20,2 L20,14 C20,15.1045695 19.1045695,16 18,16 L2,16 C0.8954305,16 1.3527075e-16,15.1045695 0,14 L0,2 C-1.3527075e-16,0.8954305 0.8954305,2.02906125e-16 2,0 Z M4.3984375,7.7578125 C3.71093406,7.7578125 3.18554869,8.04752314 2.82226562,8.62695312 C2.45898256,9.20638311 2.27734375,9.98697426 2.27734375,10.96875 C2.27734375,11.9531299 2.45898256,12.7350231 2.82226562,13.3144531 C3.18554869,13.8938831 3.71093406,14.1835938 4.3984375,14.1835938 C5.08854512,14.1835938 5.61458152,13.8938831 5.9765625,13.3144531 C6.33854348,12.7350231 6.51953125,11.9531299 6.51953125,10.96875 C6.51953125,9.98697426 6.33854348,9.20638311 5.9765625,8.62695312 C5.61458152,8.04752314 5.08854512,7.7578125 4.3984375,7.7578125 Z M3.21484375,12.265625 C3.13671836,11.93229 3.09244797,11.6679697 3.08203125,11.4726562 C3.07161453,11.2773428 3.06640625,11.0950529 3.06640625,10.9257812 C3.06640625,10.18359 3.17968637,9.57096596 3.40625,9.08789062 C3.63281363,8.60481529 3.96353949,8.36328125 4.3984375,8.36328125 C4.565105,8.36328125 4.72591068,8.40559854 4.88085938,8.49023438 C5.03580807,8.57487021 5.17968684,8.73828004 5.3125,8.98046875 L3.21484375,12.265625 Z M5.57421875,9.703125 C5.68099012,10.0885436 5.734375,10.4895813 5.734375,10.90625 C5.734375,11.5807325 5.63020937,12.1946587 5.421875,12.7480469 C5.21354063,13.3014351 4.86198164,13.578125 4.3671875,13.578125 C4.1874991,13.578125 4.02474031,13.5305994 3.87890625,13.4355469 C3.73307219,13.3404943 3.60416723,13.1979176 3.4921875,13.0078125 L5.57421875,9.703125 Z M9.01953125,13.3945312 L7.53515625,13.3945312 L7.53515625,14 L11.203125,14 L11.203125,13.3945312 L9.74609375,13.3945312 L9.74609375,7.9375 L9.01953125,7.9375 C8.60025832,8.32291859 8.1054716,8.63671754 7.53515625,8.87890625 L7.53515625,9.53515625 C7.89453305,9.40755145 8.1770823,9.2825527 8.3828125,9.16015625 C8.5885427,9.0377598 8.80078016,8.88932379 9.01953125,8.71484375 L9.01953125,13.3945312 Z M14,7.7578125 C13.3124966,7.7578125 12.7871112,8.04752314 12.4238281,8.62695312 C12.0605451,9.20638311 11.8789062,9.98697426 11.8789062,10.96875 C11.8789062,11.9531299 12.0605451,12.7350231 12.4238281,13.3144531 C12.7871112,13.8938831 13.3124966,14.1835938 14,14.1835938 C14.6901076,14.1835938 15.216144,13.8938831 15.578125,13.3144531 C15.940106,12.7350231 16.1210938,11.9531299 16.1210938,10.96875 C16.1210938,9.98697426 15.940106,9.20638311 15.578125,8.62695312 C15.216144,8.04752314 14.6901076,7.7578125 14,7.7578125 Z M12.8164062,12.265625 C12.7382809,11.93229 12.6940105,11.6679697 12.6835938,11.4726562 C12.673177,11.2773428 12.6679688,11.0950529 12.6679688,10.9257812 C12.6679688,10.18359 12.7812489,9.57096596 13.0078125,9.08789062 C13.2343761,8.60481529 13.565102,8.36328125 14,8.36328125 C14.1666675,8.36328125 14.3274732,8.40559854 14.4824219,8.49023438 C14.6373706,8.57487021 14.7812493,8.73828004 14.9140625,8.98046875 L12.8164062,12.265625 Z M15.1757812,9.703125 C15.2825526,10.0885436 15.3359375,10.4895813 15.3359375,10.90625 C15.3359375,11.5807325 15.2317719,12.1946587 15.0234375,12.7480469 C14.8151031,13.3014351 14.4635441,13.578125 13.96875,13.578125 C13.7890616,13.578125 13.6263028,13.5305994 13.4804688,13.4355469 C13.3346347,13.3404943 13.2057297,13.1979176 13.09375,13.0078125 L15.1757812,9.703125 Z M14,2 L14,3 L18,3 L18,2 L14,2 Z M14,4 L14,5 L18,5 L18,4 L14,4 Z M14,6 L14,7 L18,7 L18,6 L14,6 Z"/>
</svg>
