<svg xmlns="http://www.w3.org/2000/svg" width="20" height="16" viewBox="0 0 20 16">
  <path fill-rule="evenodd" d="M2,0 L18,0 C19.1045695,-2.02906125e-16 20,0.8954305 20,2 L20,14 C20,15.1045695 19.1045695,16 18,16 L2,16 C0.8954305,16 1.3527075e-16,15.1045695 0,14 L0,2 C-1.3527075e-16,0.8954305 0.8954305,2.02906125e-16 2,0 Z M14.5668945,11.0957031 L14.8588867,13 L16.7568359,13 L14.9985352,3.7578125 L13.2783203,3.7578125 L8.33984375,13 L10.3901367,13 L11.3422852,11.0957031 L14.5668945,11.0957031 Z M12.1040039,9.55322266 L13.8115234,6.11279297 L14.3320312,9.55322266 L12.1040039,9.55322266 Z M2,4 L2,5 L8,5 L8,4 L2,4 Z M2,2 L2,3 L12,3 L12,2 L2,2 Z"/>
</svg>
