<svg xmlns="http://www.w3.org/2000/svg" width="20" height="16" viewBox="0 0 20 16">
  <path fill-rule="evenodd" d="M2,0 L18,0 C19.1045695,-2.02906125e-16 20,0.8954305 20,2 L20,14 C20,15.1045695 19.1045695,16 18,16 L2,16 C0.8954305,16 1.3527075e-16,15.1045695 0,14 L0,2 C-1.3527075e-16,0.8954305 0.8954305,2.02906125e-16 2,0 Z M7.98632812,6.07714844 L7.98632812,4.890625 L2.1953125,4.890625 L2.1953125,6.07714844 L4.34375,6.07714844 L4.34375,12 L5.80859375,12 L5.80859375,6.07714844 L7.98632812,6.07714844 Z M17.7261328,9.09472656 L17.7261328,7.91308594 L14.9136328,7.91308594 L14.9136328,6.07714844 L18.0776953,6.07714844 L18.0776953,4.890625 L13.4487891,4.890625 L13.4487891,12 L14.9136328,12 L14.9136328,9.09472656 L17.7261328,9.09472656 Z M10,2 L10,14 L11,14 L11,2 L10,2 Z"/>
</svg>
