<svg xmlns="http://www.w3.org/2000/svg" width="20" height="16" viewBox="0 0 20 16">
  <path fill-rule="evenodd" d="M2,0 L18,0 C19.1045695,-2.02906125e-16 20,0.8954305 20,2 L20,14 C20,15.1045695 19.1045695,16 18,16 L2,16 C0.8954305,16 1.3527075e-16,15.1045695 0,14 L0,2 C-1.3527075e-16,0.8954305 0.8954305,2.02906125e-16 2,0 Z M6.11962891,13 L6.11962891,5.15283203 L5.953125,5.15283203 L2.90234375,6.27539062 L2.90234375,7.37646484 L4.81982422,6.72119141 L4.81982422,13 L6.11962891,13 Z M12.1225781,5.14208984 L11.9721875,5.14208984 C11.4995289,5.14208984 11.0761119,5.19669542 10.7019238,5.3059082 C10.3277358,5.41512099 9.99741682,5.56819563 9.71095705,5.76513672 C9.42449728,5.96207781 9.17921979,6.19661322 8.97511721,6.46875 C8.77101462,6.74088678 8.60451238,7.0389795 8.47560549,7.36303711 C8.34669859,7.68709472 8.25270539,8.03263163 8.19362307,8.3996582 C8.13454074,8.76668478 8.10500002,9.14355275 8.10500002,9.53027344 L8.10500002,10.0405273 C8.10500002,10.4487325 8.16229111,10.8372377 8.27687502,11.2060547 C8.39145893,11.5748716 8.56064669,11.9007147 8.78444338,12.1835938 C9.00824007,12.4664728 9.28305829,12.6911613 9.60890627,12.857666 C9.93475425,13.0241708 10.3107271,13.1074219 10.736836,13.1074219 C11.1378796,13.1074219 11.495949,13.0384935 11.8110547,12.9006348 C12.1261604,12.762776 12.3920269,12.5738944 12.6086621,12.3339844 C12.8252973,12.0940743 12.9900092,11.8120947 13.1028028,11.4880371 C13.2155963,11.1639795 13.2719922,10.8139667 13.2719922,10.4379883 C13.2719922,10.1013981 13.2272335,9.77555496 13.1377149,9.46044922 C13.0481962,9.14534348 12.9121298,8.86604939 12.7295117,8.62255859 C12.5468936,8.37906779 12.3150437,8.18481518 12.0339551,8.03979492 C11.7528665,7.89477467 11.4225475,7.82226562 11.0429883,7.82226562 C10.7171403,7.82226562 10.4181524,7.87776637 10.1460156,7.98876953 C9.87387887,8.09977269 9.63755311,8.26090389 9.43703127,8.47216797 C9.47283874,8.16422372 9.5480333,7.87329239 9.66261721,7.59936523 C9.77720111,7.32543808 9.93922749,7.0864268 10.1487012,6.88232422 C10.3581749,6.67822164 10.6177752,6.51709043 10.9275098,6.39892578 C11.2372444,6.28076113 11.6051606,6.22167969 12.0312696,6.22167969 L12.1225781,6.22167969 L12.1225781,5.14208984 Z M10.7207227,8.875 C10.928406,8.875 11.1110214,8.91796832 11.2685742,9.00390625 C11.4261271,9.08984418 11.5577176,9.20532154 11.6633496,9.3503418 C11.7689817,9.49536205 11.8486521,9.66454981 11.9023633,9.85791016 C11.9560745,10.0512705 11.9829297,10.2571604 11.9829297,10.4755859 C11.9829297,10.7083345 11.9542842,10.9213858 11.8969922,11.1147461 C11.8397003,11.3081064 11.7564491,11.4746087 11.6472363,11.6142578 C11.5380236,11.7539069 11.4055379,11.8622229 11.2497754,11.939209 C11.0940129,12.016195 10.9176638,12.0546875 10.7207227,12.0546875 C10.5416853,12.0546875 10.3733927,12.0144047 10.2158399,11.9338379 C10.058287,11.8532711 9.9204303,11.734213 9.80226564,11.5766602 C9.68410099,11.4191073 9.59010779,11.221274 9.52028322,10.9831543 C9.45045865,10.7450346 9.41554689,10.4702164 9.41554689,10.1586914 L9.41554689,9.75585938 C9.46567735,9.63411397 9.53281535,9.51953179 9.61696291,9.41210938 C9.70111047,9.30468696 9.79957953,9.21158894 9.91237307,9.1328125 C10.0251666,9.05403606 10.1504909,8.99137393 10.2883496,8.94482422 C10.4262084,8.89827451 10.5703313,8.875 10.7207227,8.875 Z M2,3 L2,4 L8,4 L8,3 L2,3 Z M2,1 L2,2 L12,2 L12,1 L2,1 Z"/>
</svg>
