<svg xmlns="http://www.w3.org/2000/svg" width="20" height="16" viewBox="0 0 20 16">
  <path fill-rule="evenodd" d="M2,0 L18,0 C19.1045695,-2.02906125e-16 20,0.8954305 20,2 L20,14 C20,15.1045695 19.1045695,16 18,16 L2,16 C0.8954305,16 1.3527075e-16,15.1045695 0,14 L0,2 C-1.3527075e-16,0.8954305 0.8954305,2.02906125e-16 2,0 Z M12.0800781,9.98242188 L10.159668,12.5058594 L11.5141602,13.4521484 L13.1655273,10.8637695 L14.8354492,13.5356445 L16.1806641,12.5522461 L14.3251953,10.0844727 L17.2011719,9.26806641 L16.7001953,7.67236328 L13.9448242,8.73925781 L14.0839844,5.4921875 L12.4233398,5.4921875 L12.5625,8.68359375 L9.76074219,7.59814453 L9.25048828,9.16601562 L12.0800781,9.98242188 Z M2,4 L2,5 L8,5 L8,4 L2,4 Z M2,2 L2,3 L12,3 L12,2 L2,2 Z"/>
</svg>
