<svg xmlns="http://www.w3.org/2000/svg" width="20" height="16" viewBox="0 0 20 16">
  <path fill-rule="evenodd" d="M2,1 L18,1 C19.1045695,1 20,1.8954305 20,3 L20,15 C20,16.1045695 19.1045695,17 18,17 L2,17 C0.8954305,17 1.3527075e-16,16.1045695 0,15 L0,3 C-1.3527075e-16,1.8954305 0.8954305,1 2,1 Z M8.56640625,9.55859375 L6.34277344,12.4804688 L7.91113281,13.5761719 L9.82324219,10.5791016 L11.7568359,13.6728516 L13.3144531,12.5341797 L11.1660156,9.67675781 L14.4960938,8.73144531 L13.9160156,6.88378906 L10.7255859,8.11914062 L10.8867188,4.359375 L8.96386719,4.359375 L9.125,8.0546875 L5.88085938,6.79785156 L5.29003906,8.61328125 L8.56640625,9.55859375 Z" transform="translate(0 -1)"/>
</svg>
