<svg xmlns="http://www.w3.org/2000/svg" width="20" height="16" viewBox="0 0 20 16">
  <path fill-rule="evenodd" d="M2,0 L18,0 C19.1045695,-2.02906125e-16 20,0.8954305 20,2 L20,14 C20,15.1045695 19.1045695,16 18,16 L2,16 C0.8954305,16 1.3527075e-16,15.1045695 0,14 L0,2 C-1.3527075e-16,0.8954305 0.8954305,2.02906125e-16 2,0 Z M3,8 L3,10 L17,10 L17,8 L3,8 Z M3,11 L3,12 L7,12 L7,11 L3,11 Z M3,13 L3,14 L7,14 L7,13 L3,13 Z M8,11 L8,12 L12,12 L12,11 L8,11 Z M8,13 L8,14 L12,14 L12,13 L8,13 Z M13,11 L13,12 L17,12 L17,11 L13,11 Z M13,13 L13,14 L17,14 L17,13 L13,13 Z M5.80706154,5.55561128 L6.16054336,6.56258891 L6.94473833,6.56258891 L5.30802837,2.23763484 L4.63373952,2.23763484 L3,6.56258891 L3.78122453,6.56258891 L4.13173592,5.55561128 L5.80706154,5.55561128 Z M4.34263684,4.94964244 L4.96939873,3.15549941 L5.59616062,4.94964244 L4.34263684,4.94964244 Z M10.1854834,4.9882581 L10.1854834,4.92587896 C10.1854834,4.68626263 10.1587498,4.46595753 10.1052817,4.26495706 C10.0518136,4.06395659 9.97210769,3.89117798 9.86616163,3.74661607 C9.76021557,3.60205415 9.62902265,3.4896738 9.47257893,3.40947164 C9.31613521,3.32926948 9.13395032,3.289169 8.9260188,3.289169 C8.74185088,3.289169 8.5809539,3.32085333 8.44332303,3.38422294 C8.30569217,3.44759254 8.18638087,3.53868499 8.08538556,3.657503 L8.08538556,2 L7.36356973,2 L7.36356973,6.56258891 L8.01706554,6.56258891 L8.05271077,6.21504796 C8.15370608,6.34574777 8.27648285,6.4462465 8.42104477,6.51654716 C8.56560668,6.58684782 8.73590995,6.62199762 8.93195967,6.62199762 C9.13593059,6.62199762 9.31613521,6.58140207 9.47257893,6.50020977 C9.62902265,6.41901746 9.7597205,6.30614204 9.86467641,6.16158012 C9.96963233,6.0170182 10.0493382,5.84473467 10.1037965,5.64472434 C10.1582547,5.44471402 10.1854834,5.22589413 10.1854834,4.9882581 Z M9.46366762,4.92587896 L9.46366762,4.9882581 C9.46366762,5.13480032 9.451786,5.27143898 9.4280224,5.3981782 C9.40425879,5.52491741 9.36415832,5.63531749 9.30771976,5.72938176 C9.2512812,5.82344602 9.17751613,5.89770616 9.08642232,5.95216442 C8.99532851,6.00662267 8.88344322,6.03385139 8.75076311,6.03385139 C8.58045729,6.03385139 8.44134328,5.99523612 8.33341692,5.91800441 C8.22549056,5.8407727 8.14281426,5.7397789 8.08538556,5.61501999 L8.08538556,4.29020576 C8.14281426,4.16544685 8.22499549,4.06593825 8.3319317,3.991677 C8.43886791,3.91741574 8.57649672,3.88028566 8.74482223,3.88028566 C8.88344325,3.88028566 8.99879401,3.90850452 9.09087797,3.96494308 C9.18296193,4.02138163 9.25672701,4.09712698 9.31217541,4.19218139 C9.36762382,4.2872358 9.40673416,4.39813095 9.42950761,4.52487017 C9.45228107,4.65160938 9.46366762,4.78527764 9.46366762,4.92587896 Z M12.1103256,6.04573314 C11.9618031,6.04573314 11.8405116,6.01602908 11.7464473,5.95662007 C11.652383,5.89721106 11.5776278,5.81899038 11.5221794,5.72195567 C11.466731,5.62492096 11.4286108,5.51452087 11.4078177,5.39075211 C11.3870245,5.26698335 11.3766281,5.13975096 11.3766281,5.00905115 L11.3766281,4.90508591 C11.3766281,4.77834669 11.3870245,4.65259951 11.4078177,4.5278406 C11.4286108,4.40308169 11.466731,4.29218654 11.5221794,4.19515183 C11.5776278,4.09811711 11.6528781,4.01940136 11.7479325,3.9590022 C11.8429869,3.89860305 11.9637834,3.86840392 12.1103256,3.86840392 C12.2073604,3.86840392 12.2944923,3.88523622 12.371724,3.91890133 C12.4489557,3.95256643 12.5147997,3.99811265 12.5692579,4.05554136 C12.6237162,4.11297006 12.666292,4.18029926 12.6969867,4.25753097 C12.7276813,4.33476268 12.7450087,4.41595377 12.7489693,4.50110668 L13.429199,4.50110668 C13.4232581,4.32287966 13.3881083,4.15950734 13.3237485,4.01098483 C13.2593888,3.86246231 13.1702766,3.73473486 13.0564093,3.62779865 C12.9425421,3.52086244 12.8059034,3.43769107 12.6464892,3.37828207 C12.4870751,3.31887306 12.3103359,3.289169 12.1162665,3.289169 C11.868729,3.289169 11.6538696,3.33174482 11.471682,3.41689773 C11.2894944,3.50205064 11.1375086,3.61839153 11.0157202,3.7659239 C10.8939317,3.91345626 10.8033343,4.08524473 10.7439253,4.28129446 C10.6845163,4.47734418 10.6548123,4.68527258 10.6548123,4.90508591 L10.6548123,5.00905115 C10.6548123,5.22886448 10.6845163,5.43679288 10.7439253,5.6328426 C10.8033343,5.82889232 10.8939317,6.00018573 11.0157202,6.14672794 C11.1375086,6.29327016 11.2899895,6.40911598 11.4731672,6.49426889 C11.656345,6.5794218 11.8716994,6.62199762 12.1192369,6.62199762 C12.297464,6.62199762 12.4647968,6.59278863 12.6212405,6.53436977 C12.7776843,6.47595092 12.914818,6.39574996 13.0326459,6.2937645 C13.1504737,6.19177904 13.2445366,6.07246774 13.3148372,5.93582702 C13.3851379,5.79918631 13.4232581,5.65363642 13.429199,5.49917301 L12.7489693,5.49917301 C12.7450087,5.57838501 12.725701,5.65165502 12.6910458,5.71898523 C12.6563905,5.78631544 12.6108443,5.84423835 12.5544057,5.89275571 C12.4979672,5.94127306 12.4316281,5.9788982 12.3553866,6.00563226 C12.279145,6.03236631 12.1974589,6.04573314 12.1103256,6.04573314 Z"/>
</svg>
