<svg xmlns="http://www.w3.org/2000/svg" width="20" height="16" viewBox="0 0 20 16">
  <path fill-rule="evenodd" d="M2,0 L18,0 C19.1045695,-2.02906125e-16 20,0.8954305 20,2 L20,14 C20,15.1045695 19.1045695,16 18,16 L2,16 C0.8954305,16 1.3527075e-16,15.1045695 0,14 L0,2 C-1.3527075e-16,0.8954305 0.8954305,2.02906125e-16 2,0 Z M5.6145238,11.5783968 L6.06968605,12.8750355 L7.07945778,12.8750355 L4.97194179,7.30599143 L4.1036911,7.30599143 L2,12.8750355 L3.00594683,12.8750355 L3.4572842,11.5783968 L5.6145238,11.5783968 Z M3.72885159,10.7981187 L4.535904,8.48788334 L5.3429564,10.7981187 L3.72885159,10.7981187 Z M11.2524159,10.8478423 L11.2524159,10.7675195 C11.2524159,10.4589766 11.2179923,10.1752999 11.1491438,9.91648084 C11.0802954,9.65766179 10.9776618,9.43518275 10.84124,9.24903703 C10.7048181,9.06289131 10.535887,8.91818431 10.3344416,8.81491168 C10.1329963,8.71163906 9.89840519,8.66000352 9.63066135,8.66000352 C9.39351681,8.66000352 9.18633718,8.70080197 9.00911625,8.7824001 C8.83189533,8.86399822 8.67826367,8.98129376 8.54821666,9.13429024 L8.54821666,7 L7.61876768,7 L7.61876768,12.8750355 L8.46024412,12.8750355 L8.50614284,12.427523 C8.63618985,12.5958192 8.79428384,12.7252267 8.98042956,12.8157497 C9.16657528,12.9062726 9.38586694,12.9515334 9.63831114,12.9515334 C9.9009551,12.9515334 10.1329963,12.8992604 10.3344416,12.7947128 C10.535887,12.6901652 10.7041806,12.5448207 10.8393275,12.358675 C10.9744744,12.1725292 11.077108,11.9506877 11.1472314,11.6931436 C11.2173548,11.4355995 11.2524159,11.1538352 11.2524159,10.8478423 Z M10.322967,10.7675195 L10.322967,10.8478423 C10.322967,11.0365379 10.3076675,11.2124812 10.2770683,11.3756775 C10.246469,11.5388737 10.1948334,11.6810308 10.1221601,11.802153 C10.0494868,11.9232753 9.95450287,12.0188966 9.83720557,12.08902 C9.71990827,12.1591434 9.57583874,12.1942046 9.40499267,12.1942046 C9.18569771,12.1942046 9.00656702,12.1444815 8.86759522,12.0450337 C8.72862341,11.945586 8.62216496,11.815541 8.54821666,11.6548947 L8.54821666,9.94899243 C8.62216496,9.78834613 8.72798594,9.6602135 8.86568277,9.56459069 C9.0033796,9.46896789 9.18059787,9.42115721 9.39734288,9.42115721 C9.57583878,9.42115721 9.72437063,9.45749333 9.84294291,9.53016666 C9.96151518,9.60283999 10.0564991,9.70037378 10.1278974,9.82277097 C10.1992958,9.94516815 10.2496564,10.0879627 10.2789807,10.251159 C10.308305,10.4143552 10.322967,10.5864737 10.322967,10.7675195 Z M13.7309465,12.2095041 C13.5397009,12.2095041 13.3835194,12.1712556 13.2623972,12.0947574 C13.141275,12.0182591 13.0450161,11.9175379 12.9736178,11.7925908 C12.9022194,11.6676437 12.8531338,11.5254866 12.8263594,11.3661153 C12.799585,11.2067439 12.786198,11.0429126 12.786198,10.8746165 L12.786198,10.7407453 C12.786198,10.577549 12.799585,10.4156302 12.8263594,10.2549839 C12.8531338,10.0943376 12.9022194,9.95154299 12.9736178,9.82659586 C13.0450161,9.70164873 13.1419124,9.60029008 13.2643096,9.52251687 C13.3867068,9.44474366 13.5422509,9.40585764 13.7309465,9.40585764 C13.8558937,9.40585764 13.9680894,9.42753182 14.0675371,9.47088082 C14.1669848,9.51422982 14.2517691,9.57287759 14.3218925,9.64682589 C14.3920159,9.72077419 14.4468388,9.8074709 14.4863629,9.90691861 C14.525887,10.0063663 14.5481986,10.1109124 14.5532985,10.2205598 L15.429199,10.2205598 C15.4215492,9.99106511 15.3762884,9.7806981 15.2934153,9.5894525 C15.2105422,9.3982069 15.0957966,9.23373815 14.9491749,9.09604131 C14.8025533,8.95834448 14.62661,8.85124855 14.4213397,8.77475031 C14.2160694,8.69825207 13.9884906,8.66000352 13.7385963,8.66000352 C13.4198537,8.66000352 13.1431892,8.71482644 12.9085946,8.82447392 C12.674,8.9341214 12.4782949,9.0839282 12.3214735,9.27389883 C12.1646521,9.46386946 12.0479941,9.68507356 11.9714958,9.93751775 C11.8949976,10.1899619 11.856749,10.4577018 11.856749,10.7407453 L11.856749,10.8746165 C11.856749,11.15766 11.8949976,11.4253998 11.9714958,11.677844 C12.0479941,11.9302882 12.1646521,12.1508548 12.3214735,12.3395505 C12.4782949,12.5282462 12.6746374,12.6774155 12.910507,12.787063 C13.1463766,12.8967104 13.4236786,12.9515334 13.7424212,12.9515334 C13.9719159,12.9515334 14.1873828,12.9139223 14.3888281,12.838699 C14.5902735,12.7634758 14.7668543,12.6602047 14.9185758,12.5288827 C15.0702973,12.3975607 15.1914177,12.2439291 15.2819406,12.0679831 C15.3724635,11.8920371 15.4215492,11.7046193 15.429199,11.5057238 L14.5532985,11.5057238 C14.5481986,11.6077215 14.5233371,11.7020679 14.4787131,11.7887659 C14.4340891,11.8754639 14.3754414,11.9500486 14.302768,12.0125222 C14.2300947,12.0749957 14.144673,12.1234439 14.0465002,12.1578681 C13.9483275,12.1922923 13.843144,12.2095041 13.7309465,12.2095041 Z M2,4 L2,5 L8,5 L8,4 L2,4 Z M2,2 L2,3 L12,3 L12,2 L2,2 Z"/>
</svg>
