<svg xmlns="http://www.w3.org/2000/svg" width="20" height="16" viewBox="0 0 20 16">
  <path fill-rule="evenodd" d="M2,0 L18,0 C19.1045695,-2.02906125e-16 20,0.8954305 20,2 L20,14 C20,15.1045695 19.1045695,16 18,16 L2,16 C0.8954305,16 1.3527075e-16,15.1045695 0,14 L0,2 C-1.3527075e-16,0.8954305 0.8954305,2.02906125e-16 2,0 Z M6.42198606,9.60118234 L6.97882875,11.1874821 L8.21417723,11.1874821 L5.6358552,4.37434803 L4.57364268,4.37434803 L2,11.1874821 L3.23066914,11.1874821 L3.78283247,9.60118234 L6.42198606,9.60118234 Z M4.11506635,8.64659488 L5.10240927,5.82026728 L6.08975219,8.64659488 L4.11506635,8.64659488 Z M13.3193484,8.70742643 L13.3193484,8.60916007 C13.3193484,8.23169059 13.2772347,7.88464225 13.193006,7.56800462 C13.1087773,7.251367 12.9832159,6.97918751 12.8163183,6.75145799 C12.6494206,6.52372847 12.4427514,6.34669482 12.1963044,6.22035173 C11.9498573,6.09400864 11.6628601,6.03083804 11.3353039,6.03083804 C11.0451827,6.03083804 10.7917205,6.08075061 10.5749095,6.18057725 C10.3580985,6.28040389 10.1701465,6.42390253 10.0110478,6.61107748 L10.0110478,4 L8.87396563,4 L8.87396563,11.1874821 L9.9034227,11.1874821 L9.95957491,10.6399981 C10.1186736,10.8458906 10.3120848,11.004207 10.5398143,11.1149522 C10.7675439,11.2256974 11.0358239,11.2810691 11.3446626,11.2810691 C11.6659796,11.2810691 11.9498573,11.2171186 12.1963044,11.0892157 C12.4427514,10.9613129 12.6486407,10.7834993 12.8139786,10.5557698 C12.9793165,10.3280403 13.1048778,10.0566407 13.1906663,9.74156285 C13.2764548,9.42648502 13.3193484,9.08177633 13.3193484,8.70742643 Z M12.1822663,8.60916007 L12.1822663,8.70742643 C12.1822663,8.93827553 12.1635491,9.1535235 12.1261141,9.35317677 C12.0886791,9.55283005 12.0255085,9.72674417 11.9366004,9.87492434 C11.8476923,10.0231045 11.7314896,10.1400871 11.5879888,10.2258756 C11.444488,10.3116641 11.2682343,10.3545577 11.0592222,10.3545577 C10.7909381,10.3545577 10.5717908,10.2937268 10.4017735,10.1720631 C10.2317563,10.0503994 10.1015157,9.89130305 10.0110478,9.69476935 L10.0110478,7.6077791 C10.1015157,7.41124541 10.2309764,7.25448874 10.3994338,7.13750439 C10.5678913,7.02052005 10.784699,6.96202876 11.0498635,6.96202876 C11.2682343,6.96202876 11.4499473,7.00648214 11.5950078,7.09539024 C11.7400684,7.18429834 11.8562711,7.30362058 11.9436194,7.45336054 C12.0309678,7.6031005 12.0925786,7.7777945 12.1284538,7.97744778 C12.164329,8.17710106 12.1822663,8.38766972 12.1822663,8.60916007 Z M16.3515675,10.3732751 C16.1175988,10.3732751 15.9265272,10.3264821 15.778347,10.2328946 C15.6301669,10.1393072 15.5124044,10.0160855 15.4250561,9.86322596 C15.3377078,9.71036642 15.2776567,9.5364523 15.2449011,9.3414784 C15.2121455,9.14650449 15.1957679,8.94607433 15.1957679,8.74018188 L15.1957679,8.57640462 C15.1957679,8.37675134 15.2121455,8.17866083 15.2449011,7.98212713 C15.2776567,7.78559343 15.3377078,7.61089943 15.4250561,7.45803989 C15.5124044,7.30518035 15.6309468,7.18117881 15.7806867,7.08603154 C15.9304267,6.99088428 16.1207184,6.94331136 16.3515675,6.94331136 C16.504427,6.94331136 16.6416866,6.96982741 16.7633503,7.02286031 C16.885014,7.07589321 16.9887386,7.14764253 17.0745271,7.23811043 C17.1603156,7.32857832 17.2273856,7.43464253 17.2757391,7.55630625 C17.3240927,7.67796997 17.3513886,7.80587093 17.3576278,7.94001298 L18.429199,7.94001298 C18.4198403,7.65925055 18.3644685,7.40188886 18.2630821,7.16792017 C18.1616956,6.93395149 18.0213165,6.73274143 17.8419405,6.56428398 C17.6625645,6.39582653 17.4473166,6.26480603 17.1961902,6.17121855 C16.9450638,6.07763108 16.6666452,6.03083804 16.3609262,6.03083804 C15.9709783,6.03083804 15.6325087,6.09790806 15.3455071,6.23205011 C15.0585055,6.36619215 14.8190812,6.54946487 14.6272269,6.78187377 C14.4353725,7.01428266 14.2926538,7.28490239 14.1990663,7.59374105 C14.1054788,7.90257972 14.0586858,8.23013096 14.0586858,8.57640462 L14.0586858,8.74018188 C14.0586858,9.08645554 14.1054788,9.41400678 14.1990663,9.72284545 C14.2926538,10.0316841 14.4353725,10.301524 14.6272269,10.5323731 C14.8190812,10.7632222 15.0592854,10.945715 15.3478468,11.079857 C15.6364082,11.2139991 15.9756577,11.2810691 16.3656055,11.2810691 C16.6463679,11.2810691 16.9099687,11.235056 17.1564157,11.1430283 C17.4028627,11.0510006 17.6188906,10.9246594 17.8045057,10.7640009 C17.9901209,10.6033424 18.1382988,10.4153904 18.249044,10.2001392 C18.3597892,9.98488799 18.4198403,9.75560212 18.429199,9.51227469 L17.3576278,9.51227469 C17.3513886,9.63705799 17.3209731,9.75248081 17.2663804,9.85854661 C17.2117878,9.96461241 17.1400384,10.0558588 17.0511303,10.1322886 C16.9622222,10.2087184 16.8577178,10.2679896 16.7376139,10.3101039 C16.6175099,10.3522183 16.4888291,10.3732751 16.3515675,10.3732751 Z"/>
</svg>
